<svg xmlns="http://www.w3.org/2000/svg" xmlns:xlink="http://www.w3.org/1999/xlink" width="18" height="18" viewBox="0 0 18 18">
  <defs>
    <clipPath id="clip-path">
      <rect id="사각형_997" data-name="사각형 997" width="18" height="18" transform="translate(45 119)" fill="#fff" stroke="#fff" stroke-width="1"/>
    </clipPath>
  </defs>
  <g id="_1" data-name="1" transform="translate(-45 -119)" clip-path="url(#clip-path)">
    <path id="stars_24dp_434343_FILL0_wght300_GRAD0_opsz24" d="M7.816-6.03l3.553-2.707L14.921-6.03l-1.33-4.4,3.543-2.518H12.793l-1.425-4.617L9.944-12.946H5.6l3.543,2.518ZM11.37-2.368a8.768,8.768,0,0,1-3.51-.709A9.09,9.09,0,0,1,5-5,9.09,9.09,0,0,1,3.077-7.857a8.76,8.76,0,0,1-.709-3.509,8.768,8.768,0,0,1,.709-3.51A9.09,9.09,0,0,1,5-17.735,9.09,9.09,0,0,1,7.857-19.66a8.76,8.76,0,0,1,3.509-.709,8.768,8.768,0,0,1,3.51.709,9.09,9.09,0,0,1,2.858,1.923,9.09,9.09,0,0,1,1.924,2.857,8.76,8.76,0,0,1,.709,3.509,8.768,8.768,0,0,1-.709,3.51A9.09,9.09,0,0,1,17.736-5a9.089,9.089,0,0,1-2.857,1.924A8.76,8.76,0,0,1,11.37-2.368Zm0-1.421a7.315,7.315,0,0,0,5.376-2.2,7.315,7.315,0,0,0,2.2-5.376,7.315,7.315,0,0,0-2.2-5.376,7.315,7.315,0,0,0-5.376-2.2,7.315,7.315,0,0,0-5.376,2.2,7.315,7.315,0,0,0-2.2,5.376,7.315,7.315,0,0,0,2.2,5.376A7.315,7.315,0,0,0,11.368-3.789ZM11.368-11.368Z" transform="translate(42.632 139.368)" fill="#fff"/>
  </g>
</svg>
