<svg xmlns="http://www.w3.org/2000/svg" xmlns:xlink="http://www.w3.org/1999/xlink" width="18" height="18" viewBox="0 0 18 18">
  <defs>
    <clipPath id="clip-path">
      <rect id="사각형_985" data-name="사각형 985" width="18" height="18" transform="translate(326 311)" fill="#fff" stroke="#707070" stroke-width="1"/>
    </clipPath>
  </defs>
  <g id="_10" data-name="10" transform="translate(-326 -311)" clip-path="url(#clip-path)">
    <path id="visibility_24dp_434343_FILL0_wght300_GRAD0_opsz24_1_" data-name="visibility_24dp_434343_FILL0_wght300_GRAD0_opsz24 (1)" d="M10.326-7.246A3.378,3.378,0,0,0,12.809-8.27a3.388,3.388,0,0,0,1.022-2.486,3.378,3.378,0,0,0-1.024-2.484,3.388,3.388,0,0,0-2.486-1.022,3.378,3.378,0,0,0-2.484,1.024,3.388,3.388,0,0,0-1.022,2.486A3.378,3.378,0,0,0,7.84-8.268a3.388,3.388,0,0,0,2.486,1.022Zm0-1.185a2.24,2.24,0,0,1-1.645-.677A2.24,2.24,0,0,1,8-10.754,2.24,2.24,0,0,1,8.678-12.4a2.24,2.24,0,0,1,1.645-.677,2.24,2.24,0,0,1,1.645.677,2.24,2.24,0,0,1,.677,1.645,2.24,2.24,0,0,1-.677,1.645A2.24,2.24,0,0,1,10.324-8.431Zm0,3.7A9.5,9.5,0,0,1,4.917-6.369a9.667,9.667,0,0,1-3.593-4.385,9.67,9.67,0,0,1,3.592-4.385,9.492,9.492,0,0,1,5.407-1.637,9.5,9.5,0,0,1,5.408,1.637,9.667,9.667,0,0,1,3.593,4.385,9.67,9.67,0,0,1-3.592,4.385A9.492,9.492,0,0,1,10.325-4.732ZM10.324-10.754Zm0,4.732A8.211,8.211,0,0,0,14.786-7.3a8.408,8.408,0,0,0,3.108-3.452,8.408,8.408,0,0,0-3.108-3.452,8.211,8.211,0,0,0-4.463-1.28,8.211,8.211,0,0,0-4.463,1.28,8.408,8.408,0,0,0-3.108,3.452A8.408,8.408,0,0,0,5.861-7.3,8.211,8.211,0,0,0,10.324-6.022Z" transform="translate(324.677 330.754)" fill="#fff"/>
  </g>
</svg>
