<svg xmlns="http://www.w3.org/2000/svg" xmlns:xlink="http://www.w3.org/1999/xlink" width="18" height="18" viewBox="0 0 18 18">
  <defs>
    <clipPath id="clip-path">
      <rect id="사각형_1035" data-name="사각형 1035" width="18" height="18" transform="translate(597 215)" fill="#fff" stroke="#707070" stroke-width="1"/>
    </clipPath>
  </defs>
  <g id="_12" data-name="12" transform="translate(-597 -215)" clip-path="url(#clip-path)">
    <path id="speed_24dp_434343_FILL0_wght300_GRAD0_opsz24" d="M10.045-8.2a1.679,1.679,0,0,0,1.3.479,1.367,1.367,0,0,0,1.167-.574l5.141-7.447-7.466,5.123a1.383,1.383,0,0,0-.6,1.143A1.591,1.591,0,0,0,10.045-8.2Zm1.323-10.275a8.777,8.777,0,0,1,2.533.354,8.785,8.785,0,0,1,2.282,1.072l-1.336.863a7.46,7.46,0,0,0-1.677-.649,7.326,7.326,0,0,0-1.8-.22A7.306,7.306,0,0,0,6-14.838,7.306,7.306,0,0,0,3.789-9.473a7.246,7.246,0,0,0,.272,1.966,7.764,7.764,0,0,0,.77,1.824H17.9A6.913,6.913,0,0,0,18.7-7.555a8.082,8.082,0,0,0,.249-2.013,7.354,7.354,0,0,0-.21-1.726,6.5,6.5,0,0,0-.65-1.659l.863-1.336A10.049,10.049,0,0,1,20-11.988,8.508,8.508,0,0,1,20.368-9.6a9.037,9.037,0,0,1-.29,2.431,9.677,9.677,0,0,1-.916,2.24,1.316,1.316,0,0,1-.528.486,1.554,1.554,0,0,1-.729.178H4.831a1.478,1.478,0,0,1-.715-.182,1.427,1.427,0,0,1-.542-.517A9.66,9.66,0,0,1,2.7-7.029a8.574,8.574,0,0,1-.332-2.445,8.722,8.722,0,0,1,.7-3.49A9.184,9.184,0,0,1,5-15.826a9.021,9.021,0,0,1,2.865-1.938A8.769,8.769,0,0,1,11.368-18.473ZM11.47-11.47Z" transform="translate(594.632 235.368)" fill="#fff"/>
  </g>
</svg>
