<svg xmlns="http://www.w3.org/2000/svg" xmlns:xlink="http://www.w3.org/1999/xlink" width="18" height="18" viewBox="0 0 18 18">
  <defs>
    <clipPath id="clip-path">
      <rect id="사각형_1003" data-name="사각형 1003" width="18" height="18" transform="translate(597 119)" fill="#fff" stroke="#fff" stroke-width="1"/>
    </clipPath>
  </defs>
  <g id="_13" data-name="13" transform="translate(-597 -119)" clip-path="url(#clip-path)">
    <path id="query_stats_24dp_434343_FILL0_wght300_GRAD0_opsz24" d="M2.449-9.324l-1.1-.789,4.163-6.672,2.648,3.1,3.514-5.72,2.648,3.981,3.029-4.824,1.082.8-4.083,6.5-2.626-3.958-3.377,5.5L5.686-14.523l-3.236,5.2ZM12.877-5.4a2.331,2.331,0,0,0,1.714-.7,2.331,2.331,0,0,0,.7-1.714,2.331,2.331,0,0,0-.7-1.714,2.331,2.331,0,0,0-1.714-.7,2.331,2.331,0,0,0-1.714.7,2.333,2.333,0,0,0-.7,1.715,2.331,2.331,0,0,0,.7,1.714A2.331,2.331,0,0,0,12.877-5.4Zm4.616,3.15L15.011-4.732a3.5,3.5,0,0,1-1,.507,3.683,3.683,0,0,1-1.136.175,3.631,3.631,0,0,1-2.666-1.1,3.628,3.628,0,0,1-1.1-2.665,3.634,3.634,0,0,1,1.1-2.667,3.627,3.627,0,0,1,2.665-1.1,3.634,3.634,0,0,1,2.667,1.1,3.629,3.629,0,0,1,1.1,2.666,3.722,3.722,0,0,1-.175,1.141,3.484,3.484,0,0,1-.507,1L18.433-3.19l-.94.94Z" transform="translate(596.108 139.25)" fill="#fff"/>
  </g>
</svg>
