<svg xmlns="http://www.w3.org/2000/svg" xmlns:xlink="http://www.w3.org/1999/xlink" width="18" height="18" viewBox="0 0 18 18">
  <defs>
    <clipPath id="clip-path">
      <rect id="사각형_1004" data-name="사각형 1004" width="18" height="18" transform="translate(597 167)" fill="#fff" stroke="#fff" stroke-width="1"/>
    </clipPath>
  </defs>
  <g id="_14" data-name="14" transform="translate(-597 -167)" clip-path="url(#clip-path)">
    <path id="money_24dp_434343_FILL0_wght300_GRAD0_opsz24" d="M14.1-7.816h2.824a.688.688,0,0,0,.506-.2.687.687,0,0,0,.2-.506v-5.684a.687.687,0,0,0-.2-.506.688.688,0,0,0-.506-.2H14.1a.687.687,0,0,0-.506.2.687.687,0,0,0-.2.506v5.684a.687.687,0,0,0,.2.506A.687.687,0,0,0,14.1-7.816Zm.711-1.421V-13.5h1.4v4.263ZM8.545-7.816h2.824a.687.687,0,0,0,.506-.2.687.687,0,0,0,.2-.506v-5.684a.687.687,0,0,0-.2-.506.687.687,0,0,0-.506-.2H8.545a.688.688,0,0,0-.506.2.687.687,0,0,0-.2.506v5.684a.687.687,0,0,0,.2.506.688.688,0,0,0,.506.2Zm.711-1.421V-13.5h1.4v4.263ZM5.1-7.816H6.522v-7.105H5.1v7.105ZM2.368-4.263V-18.474h18V-4.263ZM3.789-17.053v0Zm0,11.368H18.947V-17.053H3.789Z" transform="translate(594.632 187.368)" fill="#fff"/>
  </g>
</svg>
