<svg xmlns="http://www.w3.org/2000/svg" xmlns:xlink="http://www.w3.org/1999/xlink" width="18" height="18" viewBox="0 0 18 18">
  <defs>
    <clipPath id="clip-path">
      <rect id="사각형_1007" data-name="사각형 1007" width="18" height="18" transform="translate(597 311)" fill="#fff" stroke="#fff" stroke-width="1"/>
    </clipPath>
  </defs>
  <g id="_17" data-name="17" transform="translate(-597 -311)" clip-path="url(#clip-path)">
    <path id="currency_bitcoin_24dp_434343_FILL0_wght300_GRAD0_opsz24" d="M9.957-3.706V-5.824H6.781V-7.412H8.9V-18H6.781v-1.588H9.957v-2.118h1.588v2.118h2.22v-2.118h1.588v2.2a3.722,3.722,0,0,1,2.281,1.261,3.682,3.682,0,0,1,.895,2.5,3.739,3.739,0,0,1-.3,1.495,3.72,3.72,0,0,1-.792,1.181,3.607,3.607,0,0,1,1.567,1.361,3.729,3.729,0,0,1,.579,2.051A3.711,3.711,0,0,1,18.482-6.93,3.711,3.711,0,0,1,15.75-5.824h-.4v2.118H13.765V-5.824h-2.22v2.118Zm.529-9.794h4.2a2.177,2.177,0,0,0,1.6-.647,2.177,2.177,0,0,0,.647-1.6,2.177,2.177,0,0,0-.647-1.6,2.177,2.177,0,0,0-1.6-.647h-4.2Zm0,6.088H15.75a2.177,2.177,0,0,0,1.6-.647A2.177,2.177,0,0,0,18-9.662a2.177,2.177,0,0,0-.647-1.6,2.177,2.177,0,0,0-1.6-.647H10.486Z" transform="translate(592.815 332.706)" fill="#fff"/>
  </g>
</svg>
