<svg xmlns="http://www.w3.org/2000/svg" xmlns:xlink="http://www.w3.org/1999/xlink" width="18" height="18" viewBox="0 0 18 18">
  <defs>
    <clipPath id="clip-path">
      <rect id="사각형_1009" data-name="사각형 1009" width="18" height="18" transform="translate(876 119)" fill="#fff" stroke="#707070" stroke-width="1"/>
    </clipPath>
  </defs>
  <g id="_19" data-name="19" transform="translate(-876 -119)" clip-path="url(#clip-path)">
    <path id="donut_small_24dp_434343_FILL0_wght300_GRAD0_opsz24" d="M12.317-20.375a8.771,8.771,0,0,1,5.5,2.573,8.7,8.7,0,0,1,2.583,5.49H13.954a2.829,2.829,0,0,0-.635-1.012,2.564,2.564,0,0,0-1-.634Zm1.425,1.783v3.778a4.706,4.706,0,0,1,.59.492,3.815,3.815,0,0,1,.488.585h3.8a7.233,7.233,0,0,0-1.831-3.042,7.074,7.074,0,0,0-3.042-1.813Zm-3.215-1.783v6.412a2.661,2.661,0,0,0-1.313,1,2.67,2.67,0,0,0-.5,1.563,2.542,2.542,0,0,0,.5,1.538,2.745,2.745,0,0,0,1.309.977v6.46a8.75,8.75,0,0,1-5.8-2.913A8.729,8.729,0,0,1,2.4-11.4a8.757,8.757,0,0,1,2.327-6.073A8.662,8.662,0,0,1,10.527-20.375ZM9.1-18.592a7.134,7.134,0,0,0-3.821,2.7A7.431,7.431,0,0,0,3.823-11.4,7.431,7.431,0,0,0,5.282-6.9,7.288,7.288,0,0,0,9.1-4.176V-8.019A4.6,4.6,0,0,1,7.783-9.5a3.833,3.833,0,0,1-.489-1.9,3.888,3.888,0,0,1,.485-1.906A4.5,4.5,0,0,1,9.1-14.8v-3.8ZM13.954-10.5H20.4a8.753,8.753,0,0,1-2.585,5.5,8.753,8.753,0,0,1-5.5,2.585V-8.883A2.606,2.606,0,0,0,13.322-9.5a2.723,2.723,0,0,0,.631-1Zm.866,1.425a4.356,4.356,0,0,1-.49.576,4.09,4.09,0,0,1-.588.483v3.814a7.111,7.111,0,0,0,3.047-1.822,7.247,7.247,0,0,0,1.827-3.051h-3.8ZM7.294-11.384ZM14.82-13.737ZM14.82-9.079Z" transform="translate(873.602 139.398)" fill="#fff"/>
  </g>
</svg>
