<svg xmlns="http://www.w3.org/2000/svg" xmlns:xlink="http://www.w3.org/1999/xlink" width="18" height="18" viewBox="0 0 18 18">
  <defs>
    <clipPath id="clip-path">
      <rect id="사각형_998" data-name="사각형 998" width="18" height="18" transform="translate(45 167)" fill="#fff" stroke="#fff" stroke-width="1"/>
    </clipPath>
  </defs>
  <g id="_2" data-name="2" transform="translate(-45 -167)" clip-path="url(#clip-path)">
    <path id="list_24dp_434343_FILL0_wght300_GRAD0_opsz24" d="M7.758-15.821v-1.588H21.706v1.588Zm0,3.909V-13.5H21.706v1.588ZM7.758-8V-9.591H21.706V-8Zm-3.2-7.758a.823.823,0,0,1-.609-.249.843.843,0,0,1-.246-.617.813.813,0,0,1,.246-.6.833.833,0,0,1,.609-.243.833.833,0,0,1,.609.243.813.813,0,0,1,.246.6.843.843,0,0,1-.246.617A.823.823,0,0,1,4.561-15.76Zm0,3.9a.833.833,0,0,1-.609-.243.812.812,0,0,1-.246-.6.838.838,0,0,1,.246-.622.832.832,0,0,1,.609-.243.832.832,0,0,1,.609.243.838.838,0,0,1,.246.622.812.812,0,0,1-.246.6A.833.833,0,0,1,4.561-11.861Zm0,3.92a.823.823,0,0,1-.609-.249.842.842,0,0,1-.246-.617.813.813,0,0,1,.246-.6.833.833,0,0,1,.609-.243.833.833,0,0,1,.609.243.813.813,0,0,1,.246.6.842.842,0,0,1-.246.617A.823.823,0,0,1,4.561-7.941Z" transform="translate(41.294 188.706)" fill="#fff"/>
  </g>
</svg>
