<svg xmlns="http://www.w3.org/2000/svg" xmlns:xlink="http://www.w3.org/1999/xlink" width="18" height="18" viewBox="0 0 18 18">
  <defs>
    <clipPath id="clip-path">
      <rect id="사각형_1010" data-name="사각형 1010" width="18" height="18" transform="translate(876 167)" fill="#fff" stroke="#707070" stroke-width="1"/>
    </clipPath>
  </defs>
  <g id="_20" data-name="20" transform="translate(-876 -167)" clip-path="url(#clip-path)">
    <path id="calendar_today_24dp_434343_FILL0_wght300_GRAD0_opsz24_1_" data-name="calendar_today_24dp_434343_FILL0_wght300_GRAD0_opsz24 (1)" d="M5-2.354A1.643,1.643,0,0,1,3.79-2.849,1.643,1.643,0,0,1,3.3-4.056v-12.6a1.643,1.643,0,0,1,.494-1.208A1.643,1.643,0,0,1,5-18.362H6.3v-1.992H7.751v1.992h7.135v-1.992H16.3v1.992h1.3a1.643,1.643,0,0,1,1.208.494A1.643,1.643,0,0,1,19.3-16.66v12.6a1.643,1.643,0,0,1-.494,1.208,1.643,1.643,0,0,1-1.208.494ZM5-3.767H17.6a.276.276,0,0,0,.2-.091.276.276,0,0,0,.091-.2v-8.837H4.708v8.837a.276.276,0,0,0,.091.2.276.276,0,0,0,.2.091Zm-.29-10.539H17.891V-16.66a.276.276,0,0,0-.091-.2.276.276,0,0,0-.2-.091H5a.276.276,0,0,0-.2.091.276.276,0,0,0-.091.2Zm0,0v0Z" transform="translate(873.7 187.354)" fill="#fff"/>
  </g>
</svg>
