<svg xmlns="http://www.w3.org/2000/svg" xmlns:xlink="http://www.w3.org/1999/xlink" width="18" height="18" viewBox="0 0 18 18">
  <defs>
    <clipPath id="clip-path">
      <rect id="사각형_992" data-name="사각형 992" width="18" height="18" transform="translate(1167 71)" fill="#fff" stroke="#707070" stroke-width="1"/>
    </clipPath>
    <clipPath id="clip-path-2">
      <rect id="사각형_791" data-name="사각형 791" width="18" height="18" transform="translate(985.5 277.875)" fill="#fff"/>
    </clipPath>
  </defs>
  <g id="_21" data-name="21" transform="translate(-1167 -71)" clip-path="url(#clip-path)">
    <g id="plant_on" transform="translate(181.5 -206.875)" clip-path="url(#clip-path-2)">
      <path id="plant-line" d="M5.4,1.8a6.3,6.3,0,0,1,5.575,3.367A5.842,5.842,0,0,1,15.75,2.7H18.9V4.95a5.85,5.85,0,0,1-5.85,5.85H11.7v.9h4.5V18a1.8,1.8,0,0,1-1.8,1.8H7.2A1.8,1.8,0,0,1,5.4,18V11.7H9.9V9.9H8.1A6.3,6.3,0,0,1,1.8,3.6V1.8Zm9,11.7H7.2V18h7.2Zm2.7-9H15.75A4.05,4.05,0,0,0,11.7,8.55V9h1.35A4.05,4.05,0,0,0,17.1,4.95ZM5.4,3.6H3.6A4.5,4.5,0,0,0,8.1,8.1H9.9A4.5,4.5,0,0,0,5.4,3.6Z" transform="translate(984.152 276.075)" fill="#fff"/>
    </g>
  </g>
</svg>
