<svg xmlns="http://www.w3.org/2000/svg" xmlns:xlink="http://www.w3.org/1999/xlink" width="18" height="18" viewBox="0 0 18 18">
  <defs>
    <clipPath id="clip-path">
      <rect id="사각형_994" data-name="사각형 994" width="18" height="18" transform="translate(1167 167)" fill="#fff" stroke="#707070" stroke-width="1"/>
    </clipPath>
  </defs>
  <g id="_23" data-name="23" transform="translate(-1167 -167)" clip-path="url(#clip-path)">
    <path id="chart2_blue" d="M8.472,10.612l5.7-5.7a.813.813,0,0,1,1.149,0l2.542,2.542,5.833-5.833H21.757a.813.813,0,0,1,0-1.627H25.7a.884.884,0,0,1,.119.014.628.628,0,0,1,.069.018l.068.021.027.018L26.047.1a.493.493,0,0,1,.062.04.8.8,0,0,1,.226.225.564.564,0,0,1,.034.058A.652.652,0,0,1,26.4.489l.011.03q.013.034.023.069c0,.013.011.038.018.069a.812.812,0,0,1,.016.16v3.9a.813.813,0,1,1-1.627,0V2.777L18.436,9.185a.815.815,0,0,1-1.149,0L14.745,6.643,8.472,12.913ZM8.9,11.883l5.847-5.84,2.844,2.842a.388.388,0,0,0,.551,0l7.138-7.131L18.143,8.886a.388.388,0,0,1-.551,0L14.743,6.043ZM25.275,4.712a.39.39,0,0,0,.779,0h0a.39.39,0,0,1-.779,0ZM21.369.813a.39.39,0,0,0,.39.39h0A.39.39,0,0,1,21.369.813ZM25.66.424a.467.467,0,0,1,.073,0,.388.388,0,0,0-.076,0Z" transform="translate(1158.528 169.545)" fill="#fff"/>
  </g>
</svg>
