<svg xmlns="http://www.w3.org/2000/svg" xmlns:xlink="http://www.w3.org/1999/xlink" width="15" height="15" viewBox="0 0 15 15">
  <defs>
    <clipPath id="clip-path">
      <rect id="사각형_991" data-name="사각형 991" width="15" height="15" transform="translate(291 548)" fill="#fff" stroke="#707070" stroke-width="1"/>
    </clipPath>
  </defs>
  <g id="_30" data-name="30" transform="translate(-291 -548)" clip-path="url(#clip-path)">
    <path id="feed_on" d="M7.434-13.911a1.217,1.217,0,0,1-.892-.371,1.217,1.217,0,0,1-.371-.892,1.217,1.217,0,0,1,.371-.892,1.217,1.217,0,0,1,.892-.371,1.217,1.217,0,0,1,.892.371,1.217,1.217,0,0,1,.371.892,1.217,1.217,0,0,1-.371.892,1.217,1.217,0,0,1-.892.371Zm12.633,0a13.484,13.484,0,0,0-1.092-5.423A14.087,14.087,0,0,0,16-23.738a14.089,14.089,0,0,0-4.4-2.978A13.485,13.485,0,0,0,6.17-27.808v-1.5a14.9,14.9,0,0,1,6,1.212,15.643,15.643,0,0,1,4.881,3.3,15.656,15.656,0,0,1,3.3,4.878,14.893,14.893,0,0,1,1.212,6Zm-5.685,0a7.925,7.925,0,0,0-.642-3.195,8.369,8.369,0,0,0-1.771-2.6,8.369,8.369,0,0,0-2.6-1.771,7.925,7.925,0,0,0-3.195-.642v-1.5a9.465,9.465,0,0,1,3.786.759,9.9,9.9,0,0,1,3.089,2.078A9.882,9.882,0,0,1,15.123-17.7a9.465,9.465,0,0,1,.759,3.794Z" transform="translate(284.833 577.309)" fill="#fff"/>
  </g>
</svg>
