<svg xmlns="http://www.w3.org/2000/svg" xmlns:xlink="http://www.w3.org/1999/xlink" width="18" height="18" viewBox="0 0 18 18">
  <defs>
    <clipPath id="clip-path">
      <rect id="사각형_989" data-name="사각형 989" width="18" height="18" transform="translate(291 692)" fill="#fff" stroke="#707070" stroke-width="1"/>
    </clipPath>
  </defs>
  <g id="_33" data-name="33" transform="translate(-291 -692)" clip-path="url(#clip-path)">
    <path id="contract_on" d="M6.348-6.442a2.286,2.286,0,0,1-1.68-.688A2.286,2.286,0,0,1,3.98-8.81v-2.732H6.821v-12.9H20.084V-8.81A2.286,2.286,0,0,1,19.4-7.13a2.286,2.286,0,0,1-1.68.688ZM17.715-7.863a.917.917,0,0,0,.675-.27.917.917,0,0,0,.27-.675V-23.021H8.242v11.477h8.526v2.732a.917.917,0,0,0,.27.675A.917.917,0,0,0,17.715-7.863ZM9.371-18.573v-1.421h8.162v1.421Zm0,2.733v-1.421h8.162v1.421ZM6.348-7.863h9v-2.259H5.4V-8.81a.917.917,0,0,0,.27.675.917.917,0,0,0,.678.272Zm0,0Z" transform="translate(287.968 716.442)" fill="#fff"/>
  </g>
</svg>
