<svg xmlns="http://www.w3.org/2000/svg" xmlns:xlink="http://www.w3.org/1999/xlink" width="18" height="18" viewBox="0 0 18 18">
  <defs>
    <clipPath id="clip-path">
      <rect id="사각형_1020" data-name="사각형 1020" width="18" height="18" transform="translate(452 618)" fill="#fff" stroke="#707070" stroke-width="1"/>
    </clipPath>
  </defs>
  <g id="_35" data-name="35" transform="translate(-452 -618)" clip-path="url(#clip-path)">
    <path id="full_coverage_24dp_434343_FILL1_wght300_GRAD0_opsz24" d="M3.877-3.15a1.57,1.57,0,0,1-1.154-.473A1.57,1.57,0,0,1,2.25-4.777V-14.85H3.6V-4.777a.264.264,0,0,0,.087.19.264.264,0,0,0,.19.087H16.65v1.35H3.877Zm3.6-3.6a1.57,1.57,0,0,1-1.154-.472A1.57,1.57,0,0,1,5.85-8.377V-18.45h14.4V-8.377a1.57,1.57,0,0,1-.472,1.154,1.57,1.57,0,0,1-1.154.472ZM9-10.8h3.6v-4.5H9Zm4.5,0h3.6v-1.8H13.5Zm0-2.7h3.6v-1.8H13.5Z" transform="translate(449.75 637.8)" fill="#fff"/>
  </g>
</svg>
