<svg xmlns="http://www.w3.org/2000/svg" xmlns:xlink="http://www.w3.org/1999/xlink" width="18" height="18" viewBox="0 0 18 18">
  <defs>
    <clipPath id="clip-path">
      <rect id="사각형_1019" data-name="사각형 1019" width="18" height="18" transform="translate(452 666)" fill="#fff" stroke="#707070" stroke-width="1"/>
    </clipPath>
  </defs>
  <g id="_36" data-name="36" transform="translate(-452 -666)" clip-path="url(#clip-path)">
    <path id="search_24dp_434343_FILL1_wght300_GRAD0_opsz24" d="M20.46-3.584,13.885-10.16a5.985,5.985,0,0,1-1.806,1.015,6.2,6.2,0,0,1-2.112.366,6.181,6.181,0,0,1-4.543-1.859A6.178,6.178,0,0,1,3.564-15.18a6.185,6.185,0,0,1,1.859-4.544,6.176,6.176,0,0,1,4.542-1.86,6.184,6.184,0,0,1,4.544,1.859,6.179,6.179,0,0,1,1.86,4.543,6.143,6.143,0,0,1-.376,2.142,5.988,5.988,0,0,1-1,1.776l6.576,6.576-1.1,1.1ZM9.966-10.349a4.663,4.663,0,0,0,3.428-1.4,4.663,4.663,0,0,0,1.4-3.428,4.663,4.663,0,0,0-1.4-3.428,4.663,4.663,0,0,0-3.428-1.4,4.663,4.663,0,0,0-3.428,1.4,4.663,4.663,0,0,0-1.4,3.428,4.663,4.663,0,0,0,1.4,3.428,4.663,4.663,0,0,0,3.428,1.4Z" transform="translate(448.437 687.584)" fill="#fff"/>
  </g>
</svg>
