<svg xmlns="http://www.w3.org/2000/svg" xmlns:xlink="http://www.w3.org/1999/xlink" width="15" height="15" viewBox="0 0 15 15">
  <defs>
    <clipPath id="clip-path">
      <rect id="사각형_1017" data-name="사각형 1017" width="15" height="15" transform="translate(494 716)" fill="#fff" stroke="#707070" stroke-width="1"/>
    </clipPath>
  </defs>
  <g id="_37" data-name="37" transform="translate(-494 -716)" clip-path="url(#clip-path)">
    <path id="telegram-2-fill_4_" data-name="telegram-2-fill (4)" d="M1.648,9.062Q7.688,6.431,9.7,5.593C13.539,4,14.336,3.72,14.855,3.711a.908.908,0,0,1,.535.161.582.582,0,0,1,.2.374,2.437,2.437,0,0,1,.023.544c-.208,2.184-1.107,7.484-1.565,9.93-.194,1.035-.575,1.382-.944,1.416-.8.074-1.411-.53-2.188-1.039-1.216-.8-1.9-1.293-3.082-2.071-1.364-.9-.48-1.393.3-2.2.2-.211,3.737-3.426,3.806-3.717a.282.282,0,0,0-.064-.244.318.318,0,0,0-.286-.028q-.183.042-5.826,3.851a2.623,2.623,0,0,1-1.5.553,9.86,9.86,0,0,1-2.147-.508C1.248,10.452.56,10.3.62,9.825Q.667,9.452,1.648,9.062Z" transform="translate(493.383 713.574)" fill="#fff"/>
  </g>
</svg>
