<svg xmlns="http://www.w3.org/2000/svg" xmlns:xlink="http://www.w3.org/1999/xlink" width="14" height="14" viewBox="0 0 14 14">
  <defs>
    <clipPath id="clip-path">
      <rect id="사각형_1018" data-name="사각형 1018" width="14" height="14" transform="translate(452 762)" fill="#fff" stroke="#707070" stroke-width="1"/>
    </clipPath>
  </defs>
  <g id="_38" data-name="38" transform="translate(-452 -762)" clip-path="url(#clip-path)">
    <path id="rss_feed_24dp_434343_FILL1_wght300_GRAD0_opsz24" d="M5.351-7.937a1.361,1.361,0,0,1-1-.415,1.361,1.361,0,0,1-.415-1,1.361,1.361,0,0,1,.415-1,1.361,1.361,0,0,1,1-.415,1.361,1.361,0,0,1,1,.415,1.361,1.361,0,0,1,.415,1,1.361,1.361,0,0,1-.415,1A1.361,1.361,0,0,1,5.351-7.937Zm10.635,0a11.691,11.691,0,0,0-.947-4.7,12.217,12.217,0,0,0-2.582-3.819,12.216,12.216,0,0,0-3.819-2.582,11.692,11.692,0,0,0-4.7-.947v-1.952a13.6,13.6,0,0,1,5.456,1.1,14.177,14.177,0,0,1,4.443,3,14.182,14.182,0,0,1,3,4.442,13.591,13.591,0,0,1,1.1,5.458Zm-5.048,0a6.756,6.756,0,0,0-.547-2.723,7.134,7.134,0,0,0-1.509-2.22,7.134,7.134,0,0,0-2.22-1.509,6.756,6.756,0,0,0-2.723-.547v-1.952a8.7,8.7,0,0,1,3.49.7,9.108,9.108,0,0,1,2.842,1.919,9.1,9.1,0,0,1,1.919,2.84,8.694,8.694,0,0,1,.7,3.492H10.938Z" transform="translate(448.063 783.938)" fill="#fff"/>
  </g>
</svg>
