<svg xmlns="http://www.w3.org/2000/svg" xmlns:xlink="http://www.w3.org/1999/xlink" width="18" height="18" viewBox="0 0 18 18">
  <defs>
    <clipPath id="clip-path">
      <rect id="사각형_1000" data-name="사각형 1000" width="18" height="18" transform="translate(45 263)" fill="#fff" stroke="#fff" stroke-width="1"/>
    </clipPath>
  </defs>
  <g id="_4" data-name="4" transform="translate(-45 -263)" clip-path="url(#clip-path)">
    <path id="lock_open_24dp_434343_FILL0_wght300_GRAD0_opsz24" d="M5.823-14.308h8.024v-1.846a2.671,2.671,0,0,0-.808-1.962,2.671,2.671,0,0,0-1.962-.808,2.671,2.671,0,0,0-1.962.808,2.671,2.671,0,0,0-.808,1.962H6.923A4.005,4.005,0,0,1,8.136-19.1a4.005,4.005,0,0,1,2.941-1.212A4.005,4.005,0,0,1,14.018-19.1a4.005,4.005,0,0,1,1.212,2.941v1.846h1.1a1.608,1.608,0,0,1,1.18.489A1.608,1.608,0,0,1,18-12.639v8.663a1.608,1.608,0,0,1-.489,1.18,1.608,1.608,0,0,1-1.18.489H5.823A1.608,1.608,0,0,1,4.643-2.8a1.608,1.608,0,0,1-.489-1.18v-8.663a1.608,1.608,0,0,1,.489-1.18A1.608,1.608,0,0,1,5.823-14.308Zm0,10.615H16.331a.277.277,0,0,0,.2-.08.277.277,0,0,0,.08-.2v-8.663a.277.277,0,0,0-.08-.2.277.277,0,0,0-.2-.08H5.823a.277.277,0,0,0-.2.08.277.277,0,0,0-.08.2v8.663a.277.277,0,0,0,.08.2.277.277,0,0,0,.2.08Zm5.254-3a1.558,1.558,0,0,0,1.144-.471,1.558,1.558,0,0,0,.471-1.144,1.558,1.558,0,0,0-.471-1.144,1.558,1.558,0,0,0-1.144-.471,1.558,1.558,0,0,0-1.144.471,1.558,1.558,0,0,0-.471,1.144,1.558,1.558,0,0,0,.471,1.144A1.558,1.558,0,0,0,11.077-6.692Zm-5.538,3v0Z" transform="translate(42.923 283.308)" fill="#fff"/>
  </g>
</svg>
