<svg xmlns="http://www.w3.org/2000/svg" xmlns:xlink="http://www.w3.org/1999/xlink" width="18" height="18" viewBox="0 0 18 18">
  <defs>
    <clipPath id="clip-path">
      <rect id="사각형_1022" data-name="사각형 1022" width="18" height="18" transform="translate(715 771)" fill="#fff" stroke="#707070" stroke-width="1"/>
    </clipPath>
  </defs>
  <g id="_44" data-name="44" transform="translate(-715 -771)" clip-path="url(#clip-path)">
    <path id="calendar_month_24dp_434343_FILL1_wght300_GRAD0_opsz24" d="M11.3-9.344a.8.8,0,0,1-.589-.244.8.8,0,0,1-.243-.589.8.8,0,0,1,.243-.589.8.8,0,0,1,.589-.243.8.8,0,0,1,.589.243.8.8,0,0,1,.243.589.8.8,0,0,1-.243.589A.8.8,0,0,1,11.3-9.344Zm-3.767,0a.8.8,0,0,1-.589-.244.8.8,0,0,1-.243-.589.8.8,0,0,1,.243-.589.8.8,0,0,1,.589-.243.8.8,0,0,1,.589.243.8.8,0,0,1,.243.589.8.8,0,0,1-.243.589A.8.8,0,0,1,7.533-9.344Zm7.533,0a.8.8,0,0,1-.589-.244.8.8,0,0,1-.243-.589.8.8,0,0,1,.243-.589.8.8,0,0,1,.589-.243.8.8,0,0,1,.589.243.8.8,0,0,1,.243.589.8.8,0,0,1-.243.589A.8.8,0,0,1,15.067-9.344ZM11.3-5.65a.8.8,0,0,1-.589-.244.8.8,0,0,1-.243-.589.8.8,0,0,1,.243-.589.8.8,0,0,1,.589-.244.8.8,0,0,1,.589.244.8.8,0,0,1,.243.589.8.8,0,0,1-.243.589A.8.8,0,0,1,11.3-5.65Zm-3.767,0a.8.8,0,0,1-.589-.244A.8.8,0,0,1,6.7-6.483a.8.8,0,0,1,.243-.589.8.8,0,0,1,.589-.244.8.8,0,0,1,.589.244.8.8,0,0,1,.243.589.8.8,0,0,1-.243.589A.8.8,0,0,1,7.533-5.65Zm7.533,0a.8.8,0,0,1-.589-.244.8.8,0,0,1-.243-.589.8.8,0,0,1,.243-.589.8.8,0,0,1,.589-.244.8.8,0,0,1,.589.244.8.8,0,0,1,.243.589.8.8,0,0,1-.243.589A.8.8,0,0,1,15.067-5.65ZM5-2.354A1.643,1.643,0,0,1,3.79-2.849,1.643,1.643,0,0,1,3.3-4.056v-12.6a1.643,1.643,0,0,1,.494-1.208A1.643,1.643,0,0,1,5-18.362H6.3v-1.992H7.751v1.992h7.135v-1.992H16.3v1.992h1.3a1.643,1.643,0,0,1,1.208.494A1.643,1.643,0,0,1,19.3-16.66v12.6a1.643,1.643,0,0,1-.494,1.208,1.643,1.643,0,0,1-1.208.494ZM5-3.767H17.6a.276.276,0,0,0,.2-.091.276.276,0,0,0,.091-.2v-8.837H4.708v8.837a.276.276,0,0,0,.091.2.276.276,0,0,0,.2.091Z" transform="translate(712.7 791.354)" fill="#fff"/>
  </g>
</svg>
