<svg xmlns="http://www.w3.org/2000/svg" xmlns:xlink="http://www.w3.org/1999/xlink" width="18" height="18" viewBox="0 0 18 18">
  <defs>
    <clipPath id="clip-path">
      <rect id="사각형_1023" data-name="사각형 1023" width="18" height="18" transform="translate(715 819)" fill="#fff" stroke="#707070" stroke-width="1"/>
    </clipPath>
  </defs>
  <g id="_45" data-name="45" transform="translate(-715 -819)" clip-path="url(#clip-path)">
    <path id="event_24dp_434343_FILL1_wght300_GRAD0_opsz24" d="M13.835-5.65a2.1,2.1,0,0,1-1.54-.633,2.1,2.1,0,0,1-.633-1.54,2.1,2.1,0,0,1,.633-1.54A2.1,2.1,0,0,1,13.835-10a2.1,2.1,0,0,1,1.54.633,2.1,2.1,0,0,1,.633,1.54,2.1,2.1,0,0,1-.633,1.54A2.1,2.1,0,0,1,13.835-5.65ZM5-2.354A1.643,1.643,0,0,1,3.79-2.849,1.643,1.643,0,0,1,3.3-4.056v-12.6a1.643,1.643,0,0,1,.494-1.208A1.643,1.643,0,0,1,5-18.362H6.3v-1.992H7.751v1.992h7.135v-1.992H16.3v1.992h1.3a1.643,1.643,0,0,1,1.208.494A1.643,1.643,0,0,1,19.3-16.66v12.6a1.643,1.643,0,0,1-.494,1.208,1.643,1.643,0,0,1-1.208.494ZM5-3.767H17.6a.276.276,0,0,0,.2-.091.276.276,0,0,0,.091-.2v-8.837H4.708v8.837a.276.276,0,0,0,.091.2.276.276,0,0,0,.2.091Z" transform="translate(712.7 839.354)" fill="#fff"/>
  </g>
</svg>
