<svg xmlns="http://www.w3.org/2000/svg" xmlns:xlink="http://www.w3.org/1999/xlink" width="18" height="18" viewBox="0 0 18 18">
  <defs>
    <clipPath id="clip-path">
      <rect id="사각형_1029" data-name="사각형 1029" width="18" height="18" transform="translate(974 714)" fill="#fff" stroke="#707070" stroke-width="1"/>
    </clipPath>
  </defs>
  <g id="_49" data-name="49" transform="translate(-974 -714)" clip-path="url(#clip-path)">
    <path id="play_circle_24dp_434343_FILL1_wght300_GRAD0_opsz24" d="M9.237-7.542l5.958-3.826L9.237-15.194ZM11.37-2.368a8.768,8.768,0,0,1-3.51-.709A9.09,9.09,0,0,1,5-5,9.09,9.09,0,0,1,3.077-7.857a8.76,8.76,0,0,1-.709-3.509,8.768,8.768,0,0,1,.709-3.51A9.09,9.09,0,0,1,5-17.735,9.09,9.09,0,0,1,7.857-19.66a8.76,8.76,0,0,1,3.509-.709,8.768,8.768,0,0,1,3.51.709,9.09,9.09,0,0,1,2.858,1.923,9.09,9.09,0,0,1,1.924,2.857,8.76,8.76,0,0,1,.709,3.509,8.768,8.768,0,0,1-.709,3.51A9.09,9.09,0,0,1,17.736-5a9.089,9.089,0,0,1-2.857,1.924A8.76,8.76,0,0,1,11.37-2.368Z" transform="translate(971.632 734.368)" fill="#fff"/>
  </g>
</svg>
