<svg xmlns="http://www.w3.org/2000/svg" xmlns:xlink="http://www.w3.org/1999/xlink" width="18" height="18" viewBox="0 0 18 18">
  <defs>
    <clipPath id="clip-path">
      <rect id="사각형_1001" data-name="사각형 1001" width="18" height="18" transform="translate(45 311)" fill="#fff" stroke="#fff" stroke-width="1"/>
    </clipPath>
  </defs>
  <g id="_5" data-name="5" transform="translate(-45 -311)" clip-path="url(#clip-path)">
    <path id="pie_chart_24dp_434343_FILL0_wght300_GRAD0_opsz24" d="M12.079-12.079h6.839a7.447,7.447,0,0,0-2.185-4.658,7.375,7.375,0,0,0-4.654-2.181Zm-1.421,8.26v-15.1a7.293,7.293,0,0,0-4.9,2.426,7.354,7.354,0,0,0-1.969,5.124A7.354,7.354,0,0,0,5.759-6.244a7.293,7.293,0,0,0,4.9,2.426Zm1.421,0A7.325,7.325,0,0,0,16.74-5.992a7.394,7.394,0,0,0,2.178-4.666H12.079ZM11.368-11.368Zm0,9a8.768,8.768,0,0,1-3.51-.709A9.09,9.09,0,0,1,5-5,9.09,9.09,0,0,1,3.077-7.857a8.76,8.76,0,0,1-.709-3.509,8.768,8.768,0,0,1,.709-3.51A9.09,9.09,0,0,1,5-17.735,9.09,9.09,0,0,1,7.857-19.66a8.76,8.76,0,0,1,3.509-.709,8.7,8.7,0,0,1,3.5.71,9.148,9.148,0,0,1,2.858,1.932,9.151,9.151,0,0,1,1.932,2.857,8.7,8.7,0,0,1,.71,3.5,8.709,8.709,0,0,1-.709,3.489A9.218,9.218,0,0,1,17.736-5.01a8.993,8.993,0,0,1-2.857,1.933A8.767,8.767,0,0,1,11.37-2.368Z" transform="translate(42.632 331.368)" fill="#fff"/>
  </g>
</svg>
