<svg xmlns="http://www.w3.org/2000/svg" xmlns:xlink="http://www.w3.org/1999/xlink" width="18" height="18" viewBox="0 0 18 18">
  <defs>
    <clipPath id="clip-path">
      <rect id="사각형_1027" data-name="사각형 1027" width="18" height="18" transform="translate(974 762)" fill="#fff" stroke="#707070" stroke-width="1"/>
    </clipPath>
  </defs>
  <g id="_50" data-name="50" transform="translate(-974 -762)" clip-path="url(#clip-path)">
    <path id="menu_book_24dp_434343_FILL1_wght300_GRAD0_opsz24" d="M11.951-12.218v-1.128a6.837,6.837,0,0,1,1.463-.487A7.612,7.612,0,0,1,15-13.995a6.7,6.7,0,0,1,1,.074q.486.073.976.194v1.075a5.545,5.545,0,0,0-.957-.244A6.488,6.488,0,0,0,15-12.973a6.457,6.457,0,0,0-1.593.2A6.5,6.5,0,0,0,11.951-12.218Zm0,4.7V-8.664a6.464,6.464,0,0,1,1.459-.487A7.757,7.757,0,0,1,15-9.313a6.717,6.717,0,0,1,1,.073q.486.073.976.194v1.075a5.545,5.545,0,0,0-.957-.244A6.506,6.506,0,0,0,15-8.291a6.411,6.411,0,0,0-1.593.2,6.177,6.177,0,0,0-1.456.574Zm0-2.341V-11a6.837,6.837,0,0,1,1.463-.487A7.612,7.612,0,0,1,15-11.654a6.7,6.7,0,0,1,1,.073q.486.073.976.194v1.075a5.545,5.545,0,0,0-.957-.244A6.506,6.506,0,0,0,15-10.632a6.213,6.213,0,0,0-1.593.2,6.788,6.788,0,0,0-1.456.568ZM10.929-5.842a8.756,8.756,0,0,1,2-.758A8.855,8.855,0,0,1,15-6.841a8.884,8.884,0,0,1,1.449.112,8.079,8.079,0,0,1,1.287.32.184.184,0,0,0,.181-.012A.187.187,0,0,0,18-6.59V-14.7a.221.221,0,0,0-.041-.132.319.319,0,0,0-.14-.1,7.475,7.475,0,0,0-1.377-.4A8.111,8.111,0,0,0,15-15.445a7.823,7.823,0,0,0-2.116.294,7.028,7.028,0,0,0-1.955.883Zm-.643,1.885A8.385,8.385,0,0,0,8.049-5.138a7.5,7.5,0,0,0-2.478-.417,6.863,6.863,0,0,0-1.541.174,6.942,6.942,0,0,0-1.459.512A.841.841,0,0,1,1.7-4.936a.893.893,0,0,1-.414-.787V-15.03a1.01,1.01,0,0,1,.143-.52.81.81,0,0,1,.411-.35,8.974,8.974,0,0,1,1.821-.621,8.7,8.7,0,0,1,1.911-.21,8.831,8.831,0,0,1,2.445.342,8.993,8.993,0,0,1,2.27,1.01,8.993,8.993,0,0,1,2.27-1.01A8.831,8.831,0,0,1,15-16.731a8.7,8.7,0,0,1,1.911.21,8.974,8.974,0,0,1,1.821.621.81.81,0,0,1,.411.35,1.01,1.01,0,0,1,.143.52v9.306a.865.865,0,0,1-.43.779.913.913,0,0,1-.9.059,6.929,6.929,0,0,0-1.438-.5A6.781,6.781,0,0,0,15-5.555a7.5,7.5,0,0,0-2.478.417,8.385,8.385,0,0,0-2.237,1.182Z" transform="translate(972.714 781.344)" fill="#fff"/>
  </g>
</svg>
