<svg xmlns="http://www.w3.org/2000/svg" xmlns:xlink="http://www.w3.org/1999/xlink" width="18" height="18" viewBox="0 0 18 18">
  <defs>
    <clipPath id="clip-path">
      <rect id="사각형_981" data-name="사각형 981" width="18" height="18" transform="translate(326 119)" fill="#fff" stroke="#707070" stroke-width="1"/>
    </clipPath>
    <clipPath id="clip-path-2">
      <rect id="사각형_798" data-name="사각형 798" width="18" height="18" transform="translate(406.125 676.125)" fill="#fff"/>
    </clipPath>
  </defs>
  <g id="_6" data-name="6" transform="translate(-326 -119)" clip-path="url(#clip-path)">
    <g id="fire_blue" transform="translate(-80.125 -557.125)" clip-path="url(#clip-path-2)">
      <path id="fire-line" d="M10.046,19.255a6.279,6.279,0,0,0,6.279-6.279,6.318,6.318,0,0,0-.417-2.064q-2.094,2.068-3.182,2.068c3.345-5.86,1.508-8.372-3.517-11.721.418,4.186-2.341,6.09-3.465,7.147a6.279,6.279,0,0,0,4.3,10.849ZM10.64,4.388c2.714,2.3,2.727,4.092.631,7.763a1.674,1.674,0,0,0,1.455,2.5,3.733,3.733,0,0,0,1.774-.5A4.606,4.606,0,1,1,6.892,9.622c.106-.1.64-.574.664-.594.354-.319.647-.6.936-.91A8.775,8.775,0,0,0,10.64,4.387Z" transform="translate(405.079 674.869)" fill="#fff"/>
    </g>
  </g>
</svg>
