<svg xmlns="http://www.w3.org/2000/svg" xmlns:xlink="http://www.w3.org/1999/xlink" width="18" height="18" viewBox="0 0 18 18">
  <defs>
    <clipPath id="clip-path">
      <rect id="사각형_982" data-name="사각형 982" width="18" height="18" transform="translate(326 167)" fill="#fff" stroke="#707070" stroke-width="1"/>
    </clipPath>
  </defs>
  <g id="_7" data-name="7" transform="translate(-326 -167)" clip-path="url(#clip-path)">
    <path id="update_24dp_434343_FILL0_wght300_GRAD0_opsz24" d="M12.716-3.706a8.741,8.741,0,0,1-3.51-.709A9.113,9.113,0,0,1,6.351-6.341,9.109,9.109,0,0,1,4.425-9.2a8.74,8.74,0,0,1-.709-3.51,8.74,8.74,0,0,1,.709-3.51,9.109,9.109,0,0,1,1.926-2.855A9.113,9.113,0,0,1,9.206-21a8.741,8.741,0,0,1,3.51-.709,8.861,8.861,0,0,1,3.8.84A8.987,8.987,0,0,1,19.6-18.505v-2.509h1.588v5.376H15.811v-1.588H18.58a8,8,0,0,0-2.612-2.121,7.078,7.078,0,0,0-3.252-.771A7.151,7.151,0,0,0,7.462-17.96,7.151,7.151,0,0,0,5.3-12.706,7.151,7.151,0,0,0,7.462-7.451a7.151,7.151,0,0,0,5.254,2.157A7.138,7.138,0,0,0,17.563-7.1a7.241,7.241,0,0,0,2.469-4.548h1.621A8.639,8.639,0,0,1,18.711-5.97,8.751,8.751,0,0,1,12.716-3.706Zm3.148-4.736-3.942-3.942V-18H13.51v4.972l3.47,3.47Z" transform="translate(322.315 188.706)" fill="#fff"/>
  </g>
</svg>
