<svg xmlns="http://www.w3.org/2000/svg" xmlns:xlink="http://www.w3.org/1999/xlink" width="18" height="18" viewBox="0 0 18 18">
  <defs>
    <clipPath id="clip-path">
      <rect id="사각형_983" data-name="사각형 983" width="18" height="18" transform="translate(326 215)" fill="#fff" stroke="#707070" stroke-width="1"/>
    </clipPath>
  </defs>
  <g id="_8" data-name="8" transform="translate(-326 -215)" clip-path="url(#clip-path)">
    <path id="format_list_bulleted_add_24dp_434343_FILL0_wght300_GRAD0_opsz24" d="M16.634-2.9h.838V-5.265H19.84V-6.1H17.472V-8.472h-.838V-6.1H14.265v.838h2.368Zm.419,1.476a4.111,4.111,0,0,1-3.019-1.244,4.111,4.111,0,0,1-1.244-3.019A4.111,4.111,0,0,1,14.034-8.7a4.111,4.111,0,0,1,3.019-1.244A4.111,4.111,0,0,1,20.071-8.7a4.111,4.111,0,0,1,1.244,3.019,4.111,4.111,0,0,1-1.244,3.019A4.111,4.111,0,0,1,17.053-1.421ZM8.818-16.342v-1.421h10.6v1.421ZM4.892-4.108a1.517,1.517,0,0,1-1.113-.463,1.517,1.517,0,0,1-.463-1.113A1.517,1.517,0,0,1,3.779-6.8,1.517,1.517,0,0,1,4.892-7.26,1.517,1.517,0,0,1,6-6.8a1.517,1.517,0,0,1,.463,1.113A1.517,1.517,0,0,1,6-4.571a1.517,1.517,0,0,1-1.113.463Zm0-5.684a1.517,1.517,0,0,1-1.113-.463,1.517,1.517,0,0,1-.463-1.113,1.517,1.517,0,0,1,.463-1.113,1.517,1.517,0,0,1,1.113-.463A1.517,1.517,0,0,1,6-12.481a1.517,1.517,0,0,1,.463,1.113A1.517,1.517,0,0,1,6-10.256,1.517,1.517,0,0,1,4.892-9.792Zm0-5.684a1.517,1.517,0,0,1-1.113-.463,1.517,1.517,0,0,1-.463-1.113,1.517,1.517,0,0,1,.463-1.113,1.517,1.517,0,0,1,1.113-.463A1.517,1.517,0,0,1,6-18.166a1.517,1.517,0,0,1,.463,1.113A1.517,1.517,0,0,1,6-15.94,1.517,1.517,0,0,1,4.892-15.477Zm3.926,10.5V-6.395H10.7a4.826,4.826,0,0,0-.053.711,4.826,4.826,0,0,0,.053.711Zm0-5.684v-1.421h8.235a5.909,5.909,0,0,0-2.115.377,6.111,6.111,0,0,0-1.783,1.044Z" transform="translate(322.685 234.025)" fill="#fff"/>
  </g>
</svg>
