<svg xmlns="http://www.w3.org/2000/svg" xmlns:xlink="http://www.w3.org/1999/xlink" width="18" height="18" viewBox="0 0 18 18">
  <defs>
    <clipPath id="clip-path">
      <rect id="사각형_984" data-name="사각형 984" width="18" height="18" transform="translate(326 263)" fill="#fff" stroke="#707070" stroke-width="1"/>
    </clipPath>
  </defs>
  <g id="_9" data-name="9" transform="translate(-326 -263)" clip-path="url(#clip-path)">
    <path id="whatshot_24dp_434343_FILL0_wght300_GRAD0_opsz24" d="M11.368-2.368a8.8,8.8,0,0,1-2.792-.454A9.255,9.255,0,0,1,6.03-4.136L7.058-5.163a7.768,7.768,0,0,0,2.084,1.03,7.363,7.363,0,0,0,2.226.343A7.309,7.309,0,0,0,16.737-6a7.309,7.309,0,0,0,2.21-5.369,7.309,7.309,0,0,0-2.21-5.369,7.309,7.309,0,0,0-5.369-2.21A7.309,7.309,0,0,0,6-16.737a7.309,7.309,0,0,0-2.21,5.369H2.368a8.749,8.749,0,0,1,.71-3.508A9.1,9.1,0,0,1,5-17.734a9.1,9.1,0,0,1,2.858-1.925,8.749,8.749,0,0,1,3.508-.71,8.7,8.7,0,0,1,3.5.71,9.148,9.148,0,0,1,2.858,1.932,9.148,9.148,0,0,1,1.932,2.858,8.7,8.7,0,0,1,.71,3.5,8.714,8.714,0,0,1-.71,3.493A9.124,9.124,0,0,1,17.727-5.01a9.148,9.148,0,0,1-2.858,1.932A8.7,8.7,0,0,1,11.368-2.368ZM3.975-6.284,7.608-9.926,10.45-7.557l4.863-4.863V-9.61h1.421v-5.229H11.505v1.421H14.3L10.392-9.5,7.55-11.864,3.227-7.55q.2.4.348.66a7.24,7.24,0,0,0,.4.606ZM11.368-11.368Z" transform="translate(323.632 283.368)" fill="#fff"/>
  </g>
</svg>
