<svg xmlns="http://www.w3.org/2000/svg" width="18" height="17" viewBox="0 0 18 17">
  <path id="account_balance_wallet_24dp_FFFFFF_FILL1_wght300_GRAD0_opsz24" d="M5.308-3.5a1.745,1.745,0,0,1-1.283-.525A1.745,1.745,0,0,1,3.5-5.308V-18.692a1.745,1.745,0,0,1,.525-1.283A1.745,1.745,0,0,1,5.308-20.5H18.692a1.745,1.745,0,0,1,1.283.525,1.745,1.745,0,0,1,.525,1.283V-18H13.308a3.24,3.24,0,0,0-2.4.911,3.24,3.24,0,0,0-.911,2.4v5.385a3.24,3.24,0,0,0,.911,2.4,3.24,3.24,0,0,0,2.4.911H20.5v.692a1.745,1.745,0,0,1-.525,1.283,1.745,1.745,0,0,1-1.283.525Zm8-4a1.745,1.745,0,0,1-1.283-.525A1.745,1.745,0,0,1,11.5-9.308v-5.385a1.745,1.745,0,0,1,.525-1.283,1.745,1.745,0,0,1,1.283-.525h6.385a1.745,1.745,0,0,1,1.283.525,1.745,1.745,0,0,1,.525,1.283v5.385a1.745,1.745,0,0,1-.525,1.283,1.745,1.745,0,0,1-1.283.525ZM16-10.5a1.457,1.457,0,0,0,1.075-.425A1.457,1.457,0,0,0,17.5-12a1.457,1.457,0,0,0-.425-1.075A1.457,1.457,0,0,0,16-13.5a1.457,1.457,0,0,0-1.075.425A1.457,1.457,0,0,0,14.5-12a1.457,1.457,0,0,0,.425,1.075A1.457,1.457,0,0,0,16-10.5Z" transform="translate(-3.5 20.5)" fill="#3861fb"/>
</svg>
