<svg xmlns="http://www.w3.org/2000/svg" width="19.8" height="18.868" viewBox="0 0 19.8 18.868">
  <path id="add_reaction" d="M11.675-15.678Zm0,8.852a8.623,8.623,0,0,1-3.452-.7A8.941,8.941,0,0,1,5.413-9.415a8.94,8.94,0,0,1-1.893-2.81,8.615,8.615,0,0,1-.7-3.451,8.621,8.621,0,0,1,.7-3.452A8.939,8.939,0,0,1,5.413-21.94a8.942,8.942,0,0,1,2.81-1.893,8.618,8.618,0,0,1,3.452-.7,8.92,8.92,0,0,1,1.871.194,8.539,8.539,0,0,1,1.731.566V-22.2a7.677,7.677,0,0,0-1.706-.684,7.235,7.235,0,0,0-1.9-.246A7.186,7.186,0,0,0,6.4-20.954a7.186,7.186,0,0,0-2.178,5.276A7.186,7.186,0,0,0,6.4-10.4a7.186,7.186,0,0,0,5.276,2.178A7.186,7.186,0,0,0,16.951-10.4a7.186,7.186,0,0,0,2.178-5.276A7.008,7.008,0,0,0,19-17.055a8.061,8.061,0,0,0-.372-1.293h1.5a8.735,8.735,0,0,1,.3,1.3,9.09,9.09,0,0,1,.1,1.372,8.621,8.621,0,0,1-.7,3.452,8.939,8.939,0,0,1-1.892,2.81,8.935,8.935,0,0,1-2.81,1.892A8.615,8.615,0,0,1,11.677-6.826Zm7.685-13.744v-1.864H17.5v-1.4h1.864v-1.864h1.4v1.864h1.864v1.4H20.76v1.864Zm-4.513,3.781a1.17,1.17,0,0,0,.863-.356,1.18,1.18,0,0,0,.354-.864,1.17,1.17,0,0,0-.356-.862,1.18,1.18,0,0,0-.865-.354,1.17,1.17,0,0,0-.862.356,1.18,1.18,0,0,0-.354.864,1.17,1.17,0,0,0,.356.862A1.18,1.18,0,0,0,14.849-16.789Zm-6.343,0a1.17,1.17,0,0,0,.862-.356,1.18,1.18,0,0,0,.354-.864,1.17,1.17,0,0,0-.356-.862,1.18,1.18,0,0,0-.864-.354,1.17,1.17,0,0,0-.863.356A1.18,1.18,0,0,0,7.285-18a1.17,1.17,0,0,0,.356.862A1.18,1.18,0,0,0,8.506-16.789Zm3.169,5.949a4.65,4.65,0,0,0,2.673-.816,4.868,4.868,0,0,0,1.775-2.158H7.228A4.868,4.868,0,0,0,9-11.656a4.65,4.65,0,0,0,2.673.816Z" transform="translate(-2.824 25.694)" fill="#808a9d"/>
</svg>
