<svg xmlns="http://www.w3.org/2000/svg" width="120.397" height="151.555" viewBox="0 0 120.397 151.555">
  <g id="alarm_img" transform="translate(-846.802 -353.5)">
    <path id="패스_292" data-name="패스 292" d="M959.066,274.051a9.365,9.365,0,0,0,6.832,2.666,10.1,10.1,0,0,0,6.188-2.368c.022,2.963.194,6.017.014,8.97-.018.343-.035.684-.035,1.028-2-.318-5.894-.974-7.788-.591a23.567,23.567,0,0,0-4.493.539l-.707.093c-.048-3.432-.146-6.906-.01-10.336" transform="translate(-58.699 94.737)" fill="#3861fb"/>
    <path id="패스_293" data-name="패스 293" d="M931.174,3.615q-.13-.179-.27-.35t-.287-.336q-.148-.164-.3-.321t-.319-.306q-.163-.149-.334-.289t-.348-.272q-.178-.132-.362-.254t-.374-.236q-.19-.113-.385-.217t-.4-.2q-.2-.093-.405-.177T926.977.5q-.209-.073-.421-.136t-.427-.114Q925.914.2,925.7.16T925.26.09a9.525,9.525,0,0,0-6.919,1.718,9.512,9.512,0,0,0-3.511,6.064,9,9,0,0,0,1.621,6.372c.255.37.568.687.838,1.044a9.365,9.365,0,0,0,6.832,2.666,10.1,10.1,0,0,0,6.188-2.368c1.417-1.915,2.267-2.471,2.658-5.032a9.373,9.373,0,0,0-1.792-6.939m-4.381,6.966a3.385,3.385,0,0,1-2.186,1.624,3.609,3.609,0,0,1-2.117-.226q-.073-.035-.144-.073c-.047-.025-.094-.052-.14-.08s-.091-.056-.136-.087-.088-.061-.132-.093-.085-.066-.127-.1-.082-.07-.121-.106-.078-.074-.116-.112-.074-.078-.11-.118-.071-.081-.1-.123-.066-.085-.1-.128-.062-.088-.091-.133-.057-.091-.084-.137-.053-.094-.077-.141-.048-.1-.07-.145-.043-.1-.063-.148-.038-.1-.055-.152-.033-.1-.048-.155-.028-.1-.04-.157-.023-.106-.032-.159-.017-.107-.024-.16-.012-.108-.016-.161-.006-.108-.007-.162,0-.108,0-.162,0-.108.009-.162.01-.108.017-.161.016-.107.025-.16.021-.106.033-.159.026-.1.041-.157.031-.1.049-.155.037-.1.057-.152.042-.1.065-.149.047-.1.072-.146a3.57,3.57,0,0,1,2.225-1.692,4.007,4.007,0,0,1,2.052.3,3.141,3.141,0,0,1,1.66,1.9,3.212,3.212,0,0,1-.166,2.492" transform="translate(-16.922 353.5)" fill="#ffb000"/>
    <path id="패스_294" data-name="패스 294" d="M828.551,2431.554c4.47.16,8.968.083,13.442.083,4.817,0,9.645.067,14.46-.087.329,4.238-.452,7.823-3.29,11.115a13.273,13.273,0,0,1-4.514,3.508,26.134,26.134,0,0,1-2.575.835,14.168,14.168,0,0,1-10.711-1.467,13.745,13.745,0,0,1-6.4-8.913,26.25,26.25,0,0,1-.414-5.075" transform="translate(64.471 -1942.409)" fill="#2c4db5"/>
    <path id="패스_295" data-name="패스 295" d="M835.207,2521.614l11.314-.007a40.955,40.955,0,0,1,6.081.124,2.761,2.761,0,0,1,1.408.776c1.126,1.135,1.066,2.921,1.027,4.4a26.37,26.37,0,0,0-.146,4.247,26.072,26.072,0,0,1-2.575.835,14.168,14.168,0,0,1-10.711-1.467,13.745,13.745,0,0,1-6.4-8.913" transform="translate(58.186 -2027.394)" fill="#3861fb"/>
    <path id="패스_296" data-name="패스 296" d="M128.54,1683.329c4.208.047,8.419-.014,12.628.007l.048.012a17.506,17.506,0,0,0-.548,3.01q-.567,2.782-1.222,5.546-.322,1.339-.7,2.664t-.8,2.635q-.427,1.31-.9,2.6t-1.007,2.563q-.529,1.272-1.107,2.522t-1.206,2.476q-.627,1.226-1.3,2.426t-1.4,2.373c-.7,1.162-1.333,2.336-2.144,3.429a.5.5,0,0,0-.117.275l.1.109q-4.845-.051-9.69,0c-1.984.015-4.043.13-6.02-.021,1.217-1.627,2.484-3.24,3.621-4.923a74.837,74.837,0,0,0,11.763-27.7" transform="translate(739.958 -1235.926)" fill="#ffc734"/>
    <path id="패스_297" data-name="패스 297" d="M442.993,457.672l.751.106c-.464.562-3.012,2.3-3.792,2.925a31.446,31.446,0,0,0-4.31,4.309q-.319.389-.63.784t-.615.8q-.3.4-.6.808t-.584.819q-.288.413-.567.831t-.551.841q-.271.423-.535.852t-.518.862q-.255.434-.5.872t-.484.882q-.238.443-.467.891t-.45.9q-.22.452-.432.909t-.414.917q-.2.461-.4.925t-.378.932q-.185.468-.36.939t-.342.946q-.166.475-.323.952t-.3.959q-.148.481-.286.964t-.267.97q-.129.486-.248.975t-.229.979q-.11.491-.21.984t-.191.988q-.091.495-.172.991t-.152.994q-.071.5-.133,1t-.114,1q-.052.5-.094,1t-.075,1c-.171,2.426-.114,4.871-.114,7.3l-.011,11.578c-4.071.023-8.151-.1-12.221-.01L411.727,501c0-2.638-.13-5.34.027-7.971q.038-.649.1-1.3t.141-1.294q.081-.646.184-1.288t.227-1.282q.124-.639.269-1.273t.311-1.263q.166-.629.354-1.252t.4-1.24q.208-.616.437-1.226t.477-1.211q.249-.6.517-1.194t.557-1.176q.288-.583.6-1.157t.634-1.136q.327-.563.672-1.114t.709-1.091a36.774,36.774,0,0,1,23.957-15.771Z" transform="translate(458.092 -78.641)" fill="#ffc734"/>
    <path id="패스_298" data-name="패스 298" d="M94.8,2267.076c6.435.006,12.912.149,19.342-.071q3.113-.039,6.226-.044.038,4.563.024,9.126H89.833l-10,.007c-1.906,0-3.856-.072-5.757.05-4.815.154-9.642.087-14.46.087-4.474,0-8.971.077-13.442-.083a29.086,29.086,0,0,0-4.514-.079l-9.937,0H10.508c-3.5,0-7.012-.119-10.508-.021.043-3.014.01-6.032.009-9.047,2.1,0,4.206-.03,6.3.035,1.977.151,4.035.036,6.02.021q4.845-.049,9.69,0Z" transform="translate(846.802 -1787.001)" fill="#f09500"/>
    <path id="패스_299" data-name="패스 299" d="M662.164,440.18l.054,1.059a21.771,21.771,0,0,1,4.124.934q.638.189,1.268.4t1.253.446q.622.235,1.236.492t1.217.537q.6.28,1.2.581t1.174.625q.581.323,1.15.667t1.125.709q.556.365,1.1.75t1.07.789q.528.4,1.041.828t1.009.866q.5.442.977.9t.943.937q.463.477.908.971t.873,1q.232.274.46.551t.449.56q.222.282.439.568t.428.576q.211.29.417.584t.406.592q.2.3.395.6t.383.607q.189.305.372.614t.36.621q.177.313.348.628t.336.634q.165.319.324.641t.312.647q.153.325.3.652t.287.658q.141.33.275.663t.262.669q.128.335.25.673t.237.678q.115.34.224.682t.211.686q.1.344.2.69t.185.694q.089.348.172.7t.159.7q.076.351.145.7t.132.706q.063.353.119.708t.105.71q.049.356.091.712t.078.714c.235,2.542.152,5.116.164,7.666.024,4.923-.09,9.851-.022,14.771-5.769.01-11.546-.061-17.315.01l-.087-.022-44.733-.083.011-11.578c0-2.43-.057-4.876.114-7.3q.032-.5.075-1t.094-1q.052-.5.114-1t.133-1q.071-.5.152-.994t.172-.991q.09-.495.191-.988t.21-.984q.11-.491.229-.979t.248-.975q.129-.486.267-.97t.286-.964q.148-.481.3-.959t.323-.952q.166-.475.342-.946t.36-.939q.184-.468.378-.932t.4-.925q.2-.46.414-.917t.432-.909q.221-.452.45-.9t.467-.891q.238-.444.484-.882t.5-.872q.255-.433.518-.862t.535-.852q.272-.423.551-.841t.567-.831q.288-.413.584-.819t.6-.808q.3-.4.615-.8t.63-.784a31.443,31.443,0,0,1,4.31-4.309c.78-.622,3.328-2.363,3.792-2.925l-.751-.106a23.571,23.571,0,0,1,4.493-.539c1.894-.383,5.792.273,7.788.591,0-.344.017-.685.035-1.028" transform="translate(251.237 -62.125)" fill="#ffb000"/>
    <path id="패스_300" data-name="패스 300" d="M390.209,1455.126c4.069-.091,8.15.033,12.221.01l44.733.084.087.022c5.768-.072,11.545,0,17.315-.01a60.653,60.653,0,0,0,1.013,8.08,28.547,28.547,0,0,1,.854,4.492c.336,7.6,5.562,18.666,9.518,25.054a74.1,74.1,0,0,0,5.439,7.57c-6.43.22-12.907.077-19.342.071l-72.779-.024-.1-.109a.5.5,0,0,1,.117-.275c.811-1.093,1.439-2.267,2.144-3.429q.722-1.173,1.4-2.373t1.3-2.426q.628-1.226,1.206-2.476t1.107-2.522q.529-1.272,1.007-2.563t.9-2.6q.427-1.31.8-2.635t.7-2.664q.654-2.763,1.222-5.546a17.5,17.5,0,0,1,.548-3.01l-.048-.012c-4.209-.021-8.42.04-12.628-.007a50.1,50.1,0,0,0,1.268-12.7" transform="translate(479.558 -1020.421)" fill="#ffb000"/>
    <path id="패스_301" data-name="패스 301" d="M1434.2,1457.222c5.768-.072,11.545,0,17.314-.01a60.674,60.674,0,0,0,1.013,8.079,28.537,28.537,0,0,1,.854,4.492c-5.861.144-11.736-.092-17.593.089l-.042-.017c-.241-1.053-.338-2.182-.48-3.255q-.458-3.407-.838-6.824c-.093-.849-.11-1.708-.228-2.554" transform="translate(-507.396 -1022.402)" fill="#2c4db5"/>
    <path id="패스_302" data-name="패스 302" d="M390.223,1455.126c4.113-.091,8.238.033,12.353.01l45.216.084.088.022c.119.846.137,1.7.231,2.554q.384,3.417.847,6.824c.143,1.073.241,2.2.485,3.255l-47.688-.031-.049-.012c-4.254-.021-8.511.04-12.764-.007a49.583,49.583,0,0,0,1.282-12.7" transform="translate(479.558 -1020.421)" fill="#3861fb"/>
  </g>
</svg>
