<svg xmlns="http://www.w3.org/2000/svg" width="9.833" height="9.833" viewBox="0 0 9.833 9.833">
  <g id="allnetwork" transform="translate(-257.333 -199.667)">
    <path id="all" d="M6.3-15.245H4.34a1.009,1.009,0,0,1-.742-.3,1.009,1.009,0,0,1-.3-.742v-1.958a1.009,1.009,0,0,1,.3-.742,1.009,1.009,0,0,1,.742-.3H6.3a1.009,1.009,0,0,1,.742.3,1.009,1.009,0,0,1,.3.742v1.958a1.009,1.009,0,0,1-.3.742A1.009,1.009,0,0,1,6.3-15.245ZM4.34-16.113H6.3a.173.173,0,0,0,.128-.05.173.173,0,0,0,.05-.128v-1.958a.173.173,0,0,0-.05-.128.173.173,0,0,0-.128-.05H4.34a.173.173,0,0,0-.128.05.173.173,0,0,0-.05.128v1.958a.173.173,0,0,0,.05.128A.173.173,0,0,0,4.34-16.113ZM6.3-9.461H4.34a1.009,1.009,0,0,1-.742-.3,1.009,1.009,0,0,1-.3-.742v-1.958a1.009,1.009,0,0,1,.3-.742,1.009,1.009,0,0,1,.742-.3H6.3a1.009,1.009,0,0,1,.742.3,1.009,1.009,0,0,1,.3.742v1.958a1.009,1.009,0,0,1-.3.742A1.009,1.009,0,0,1,6.3-9.461ZM4.34-10.329H6.3a.173.173,0,0,0,.128-.05.173.173,0,0,0,.05-.128v-1.958a.173.173,0,0,0-.05-.128.173.173,0,0,0-.128-.05H4.34a.173.173,0,0,0-.128.05.173.173,0,0,0-.05.128v1.958a.173.173,0,0,0,.05.128.173.173,0,0,0,.128.05Zm7.742-4.917H10.124a1.009,1.009,0,0,1-.742-.3,1.009,1.009,0,0,1-.3-.742v-1.958a1.009,1.009,0,0,1,.3-.742,1.009,1.009,0,0,1,.742-.3h1.958a1.009,1.009,0,0,1,.742.3,1.009,1.009,0,0,1,.3.742v1.958a1.009,1.009,0,0,1-.3.742A1.009,1.009,0,0,1,12.082-15.245Zm-1.958-.868h1.958a.173.173,0,0,0,.128-.05.173.173,0,0,0,.05-.128v-1.958a.173.173,0,0,0-.05-.128.173.173,0,0,0-.128-.05H10.124a.173.173,0,0,0-.128.05.173.173,0,0,0-.05.128v1.958a.173.173,0,0,0,.05.128A.173.173,0,0,0,10.124-16.113Zm1.958,6.652H10.124a1.009,1.009,0,0,1-.742-.3,1.009,1.009,0,0,1-.3-.742v-1.958a1.009,1.009,0,0,1,.3-.742,1.009,1.009,0,0,1,.742-.3h1.958a1.009,1.009,0,0,1,.742.3,1.009,1.009,0,0,1,.3.742v1.958a1.009,1.009,0,0,1-.3.742A1.009,1.009,0,0,1,12.082-9.461Zm-1.958-.868h1.958a.173.173,0,0,0,.128-.05.173.173,0,0,0,.05-.128v-1.958a.173.173,0,0,0-.05-.128.173.173,0,0,0-.128-.05H10.124a.173.173,0,0,0-.128.05.173.173,0,0,0-.05.128v1.958a.173.173,0,0,0,.05.128.173.173,0,0,0,.128.05ZM6.475-16.113ZM6.475-12.642ZM9.946-16.113ZM9.946-12.642Z" transform="translate(254.039 218.961)" fill="#808a9d"/>
  </g>
</svg>
