<svg xmlns="http://www.w3.org/2000/svg" width="16.284" height="20" viewBox="0 0 16.284 20">
  <path id="Apple_logo_black" d="M15.764,6.819a4.53,4.53,0,0,0-2.164,3.81,4.41,4.41,0,0,0,2.684,4.044,10.489,10.489,0,0,1-1.374,2.838c-.856,1.232-1.75,2.462-3.11,2.462s-1.71-.79-3.28-.79c-1.53,0-2.074.816-3.318.816s-2.112-1.14-3.11-2.54A12.251,12.251,0,0,1,0,10.837C0,6.949,2.528,4.886,5.017,4.886c1.322,0,2.424.868,3.254.868.79,0,2.022-.92,3.526-.92a4.716,4.716,0,0,1,3.966,1.984Zm-4.68-3.63A4.466,4.466,0,0,0,12.145.4a1.92,1.92,0,0,0-.038-.4A4.474,4.474,0,0,0,9.165,1.516a4.348,4.348,0,0,0-1.1,2.71,1.837,1.837,0,0,0,.038.362,1.565,1.565,0,0,0,.272.026,3.876,3.876,0,0,0,2.71-1.426Z"/>
</svg>
