<svg xmlns="http://www.w3.org/2000/svg" width="442.684" height="322" viewBox="0 0 442.684 322">
  <g id="background" transform="translate(0 -0.003)">
    <g id="그룹_338" data-name="그룹 338">
      <rect id="사각형_920" data-name="사각형 920" width="363.859" height="0.576" transform="translate(61.71 102.965) rotate(-2.434)" fill="#3861fb" stroke="#3861fb" stroke-width="1"/>
      <rect id="사각형_921" data-name="사각형 921" width="430.784" height="0.576" transform="translate(14.501 217.651) rotate(-17.579)" fill="#3861fb" stroke="#3861fb" stroke-width="1"/>
      <rect id="사각형_922" data-name="사각형 922" width="350.882" height="0.576" transform="translate(147.858 302.687) rotate(-37.806)" fill="#3861fb" stroke="#3861fb" stroke-width="1"/>
      <rect id="사각형_923" data-name="사각형 923" width="0.576" height="188.644" transform="translate(250.515 16.729) rotate(-67.776)" fill="#3861fb" stroke="#3861fb" stroke-width="1"/>
      <rect id="사각형_924" data-name="사각형 924" width="176.602" height="0.576" transform="matrix(0.056, -0.998, 0.998, 0.056, 415.006, 264.117)" fill="#3861fb" stroke="#3861fb" stroke-width="1"/>
      <rect id="사각형_925" data-name="사각형 925" width="123.996" height="0.576" transform="translate(14.327 217.824) rotate(-67.663)" fill="#3861fb" stroke="#3861fb" stroke-width="1"/>
      <rect id="사각형_926" data-name="사각형 926" width="0.576" height="217.559" transform="translate(61.413 103.366) rotate(-23.39)" fill="#3861fb" stroke="#3861fb" stroke-width="1"/>
      <rect id="사각형_927" data-name="사각형 927" width="207.882" height="0.576" transform="translate(61.604 102.987) rotate(-24.677)" fill="#3861fb" stroke="#3861fb" stroke-width="1"/>
      <rect id="사각형_928" data-name="사각형 928" width="0.576" height="388.457" transform="translate(61.603 103.505) rotate(-65.532)" fill="#3861fb" stroke="#3861fb" stroke-width="1"/>
      <rect id="사각형_929" data-name="사각형 929" width="0.576" height="158.226" transform="translate(14.436 218.176) rotate(-57.507)" fill="#3861fb" stroke="#3861fb" stroke-width="1"/>
      <rect id="사각형_930" data-name="사각형 930" width="310.325" height="0.576" transform="translate(14.404 217.715) rotate(-40.484)" fill="#3861fb" stroke="#3861fb" stroke-width="1"/>
      <rect id="사각형_931" data-name="사각형 931" width="0.576" height="403.358" transform="matrix(0.115, -0.993, 0.993, 0.115, 14.558, 218.219)" fill="#3861fb" stroke="#3861fb" stroke-width="1"/>
      <rect id="사각형_932" data-name="사각형 932" width="304.279" height="0.576" transform="translate(147.793 302.839) rotate(-70.306)" fill="#3861fb" stroke="#3861fb" stroke-width="1"/>
      <rect id="사각형_933" data-name="사각형 933" width="270.047" height="0.576" transform="translate(148.006 302.643) rotate(-8.259)" fill="#3861fb" stroke="#3861fb" stroke-width="1"/>
      <rect id="사각형_934" data-name="사각형 934" width="0.576" height="297.418" transform="translate(250.384 16.622) rotate(-33.619)" fill="#3861fb" stroke="#3861fb" stroke-width="1"/>
    </g>
    <g id="그룹_334" data-name="그룹 334" transform="translate(0 0.003)">
      <g id="그룹_336" data-name="그룹 336" transform="translate(0 0)">
        <path id="패스_723" data-name="패스 723" d="M411.6,725.664a17.458,17.458,0,1,1-17.458-17.458A17.458,17.458,0,0,1,411.6,725.664" transform="translate(-331.543 -623.336)" fill="#3861fb"/>
        <path id="패스_724" data-name="패스 724" d="M1983.678,17.46A17.458,17.458,0,1,1,1966.221,0a17.458,17.458,0,0,1,17.458,17.458" transform="translate(-1715.226 -0.002)" fill="#3861fb"/>
        <path id="패스_725" data-name="패스 725" d="M34.915,1678.9a17.458,17.458,0,1,1-17.458-17.458A17.458,17.458,0,0,1,34.915,1678.9" transform="translate(0 -1462.342)" fill="#3861fb"/>
        <path id="패스_726" data-name="패스 726" d="M1133.256,2413.054A17.458,17.458,0,1,1,1115.8,2395.6a17.458,17.458,0,0,1,17.458,17.458" transform="translate(-966.717 -2108.511)" fill="#3861fb"/>
        <path id="패스_727" data-name="패스 727" d="M3345.312,2070.964a17.458,17.458,0,1,1-17.457-17.458,17.458,17.458,0,0,1,17.457,17.458" transform="translate(-2913.684 -1807.417)" fill="#3861fb"/>
        <path id="패스_728" data-name="패스 728" d="M3437.562,604.588A17.458,17.458,0,1,1,3420.1,587.13a17.458,17.458,0,0,1,17.458,17.458" transform="translate(-2994.878 -516.769)" fill="#3861fb"/>
        <g id="그룹_339" data-name="그룹 339">
          <path id="패스_732" data-name="패스 732" d="M87.269,1733.732a11.6,11.6,0,0,1-8.374-2.287.457.457,0,0,0-.585,0,11.6,11.6,0,0,1-8.374,2.287.045.045,0,0,0-.048.041c-.073.894-1.081,15.111,8.715,17.5,9.8-2.384,8.788-16.6,8.715-17.5a.045.045,0,0,0-.048-.041" transform="translate(-61.458 -1523.859)" fill="#f5f5f5"/>
        </g>
        <path id="패스_733" data-name="패스 733" d="M95.479,1745.614a9.892,9.892,0,0,1-7.142-1.951.39.39,0,0,0-.5,0,9.892,9.892,0,0,1-7.142,1.951.038.038,0,0,0-.041.035c-.063.762-.922,12.888,7.432,14.921,8.354-2.033,7.495-14.159,7.432-14.921a.038.038,0,0,0-.041-.035" transform="translate(-70.942 -1534.626)" fill="#3861fb"/>
        <g id="그룹_340" data-name="그룹 340">
          <path id="패스_734" data-name="패스 734" d="M114.714,1782.846h-.339a.326.326,0,0,0-.321.331v4.252a.326.326,0,0,0,.321.331h3.157v-.882h-.31a.146.146,0,0,1-.142-.166l.2-1.581a.591.591,0,0,1-.3-.519.579.579,0,0,1,.557-.588v-1.179h-2.347a2.314,2.314,0,0,1,2.347-2.226v-.487a2.86,2.86,0,0,0-1.984.8,2.684,2.684,0,0,0-.835,1.916" transform="translate(-100.387 -1566.805)" fill="#f5f5f5"/>
          <path id="패스_735" data-name="패스 735" d="M146.238,1782.846H145.9a2.683,2.683,0,0,0-.835-1.916,2.86,2.86,0,0,0-1.984-.8v.487a2.314,2.314,0,0,1,2.347,2.226h-2.347v1.179a.579.579,0,0,1,.557.588.591.591,0,0,1-.3.519l.2,1.581a.146.146,0,0,1-.142.166h-.31v.882h3.157a.326.326,0,0,0,.321-.331v-4.252a.326.326,0,0,0-.321-.331" transform="translate(-125.935 -1566.805)" fill="#f5f5f5"/>
        </g>
        <path id="합치기_3" data-name="합치기 3" d="M-14972.491-72.348a10.838,10.838,0,0,1-10.826-10.826A10.841,10.841,0,0,1-14972.491-94a10.841,10.841,0,0,1,10.829,10.826,10.839,10.839,0,0,1-10.829,10.826Zm0-.918c1.761,0,3.326-2.372,4.058-5.715a22.979,22.979,0,0,0-8.115-.009c.731,3.348,2.3,5.725,4.058,5.725Zm-2.571-.339a11.025,11.025,0,0,1-2.4-5.2,20.069,20.069,0,0,0-3.319,1.047A9.945,9.945,0,0,0-14975.062-73.6Zm5.144,0a9.949,9.949,0,0,0,5.71-4.136,20.043,20.043,0,0,0-3.313-1.054A11.014,11.014,0,0,1-14969.919-73.6Zm6.184-4.935a9.848,9.848,0,0,0,1.152-4.635,9.843,9.843,0,0,0-1.175-4.674,20.83,20.83,0,0,1-3.6,1.149,21.494,21.494,0,0,1,.282,3.525,21.487,21.487,0,0,1-.274,3.476A20.84,20.84,0,0,1-14963.735-78.54Zm-18.661-4.635a9.846,9.846,0,0,0,1.143,4.616,20.867,20.867,0,0,1,3.62-1.151,21.589,21.589,0,0,1-.272-3.465,21.51,21.51,0,0,1,.281-3.516,20.846,20.846,0,0,1-3.6-1.143A9.844,9.844,0,0,0-14982.4-83.174Zm14.137,3.291a20.283,20.283,0,0,0,.266-3.291,20.193,20.193,0,0,0-.274-3.341,23.863,23.863,0,0,1-4.242.378,23.875,23.875,0,0,1-4.2-.37,20.219,20.219,0,0,0-.272,3.333,20.175,20.175,0,0,0,.265,3.281,23.812,23.812,0,0,1,4.2-.372A23.814,23.814,0,0,1-14968.26-79.884Zm-.185-7.533c-.736-3.316-2.295-5.663-4.047-5.663s-3.311,2.35-4.046,5.67A22.987,22.987,0,0,0-14968.444-87.416Zm-9.007-.177a10.987,10.987,0,0,1,2.385-5.146,9.951,9.951,0,0,0-5.687,4.107A20.079,20.079,0,0,0-14977.451-87.593Zm9.918-.008a20.059,20.059,0,0,0,3.3-1.044,9.944,9.944,0,0,0-5.68-4.094A10.965,10.965,0,0,1-14967.533-87.6Z" transform="translate(15386.717 346.883)" fill="#f5f5f5" stroke="rgba(0,0,0,0)" stroke-miterlimit="10" stroke-width="1"/>
        <g id="그룹_341" data-name="그룹 341">
          <path id="패스_729" data-name="패스 729" d="M3474.087,712.863a1.116,1.116,0,0,1-.164.669.467.467,0,0,1-.377.218.871.871,0,0,1-.2-.028,1.62,1.62,0,0,1-.366-.169l-4.451-2.564a.952.952,0,0,1-.3-.3,1.147,1.147,0,0,1,0-1.014.957.957,0,0,1,.3-.3l4.451-2.549a2.043,2.043,0,0,1,.366-.176.723.723,0,0,1,.2-.035.468.468,0,0,1,.377.218,1.117,1.117,0,0,1,.164.669.965.965,0,0,1-.084.408.7.7,0,0,1-.322.31l-3.752,1.958,3.752,1.958a.7.7,0,0,1,.322.31.967.967,0,0,1,.084.409" transform="translate(-3052.501 -621.943)" fill="#f5f5f5"/>
          <path id="패스_730" data-name="패스 730" d="M3535.212,692.146a1.325,1.325,0,0,1-.127.394l-3.747,8.677a1.085,1.085,0,0,1-.282.38.778.778,0,0,1-.507.141.857.857,0,0,1-.6-.225.716.716,0,0,1-.246-.549,1.323,1.323,0,0,1,.127-.394l3.76-8.677a.927.927,0,0,1,.275-.38.809.809,0,0,1,.514-.141.831.831,0,0,1,.591.225.726.726,0,0,1,.24.549" transform="translate(-3106.709 -608.518)" fill="#f5f5f5"/>
          <path id="패스_731" data-name="패스 731" d="M3595.267,710.187a.929.929,0,0,1-.118.507.957.957,0,0,1-.3.3l-4.451,2.564a1.625,1.625,0,0,1-.366.169.875.875,0,0,1-.2.028.467.467,0,0,1-.377-.218,1.114,1.114,0,0,1-.164-.669.967.967,0,0,1,.084-.409.7.7,0,0,1,.321-.31l3.753-1.958-3.753-1.958a.7.7,0,0,1-.321-.31.965.965,0,0,1-.084-.408,1.115,1.115,0,0,1,.164-.669.468.468,0,0,1,.377-.218.726.726,0,0,1,.2.035,2.051,2.051,0,0,1,.366.176l4.451,2.549a.962.962,0,0,1,.3.3.929.929,0,0,1,.118.507" transform="translate(-3159.159 -621.943)" fill="#f5f5f5"/>
        </g>
        <path id="패스_740" data-name="패스 740" d="M2012.51,91.784a3.939,3.939,0,0,0-1.123.164,4.809,4.809,0,0,0-9.289-1.113,4.524,4.524,0,0,0-6.378,2.968,2.817,2.817,0,0,0-3.62,2.724h0v.242a2.649,2.649,0,0,0,2.649,2.649h18.106a3.6,3.6,0,0,0,3.6-3.6c0-.02,0-.041,0-.061,0-.037,0-.064,0-.084a3.962,3.962,0,0,0-3.945-3.891" transform="translate(-1753.37 -77.182)" fill="#fff"/>
        <path id="패스_722" data-name="패스 722" d="M1183.057,2475.572l-.294-.071a.653.653,0,0,1-.387-.668v-1.619a.651.651,0,0,1,.389-.669l.284-.066a.765.765,0,0,0,.568-.937,9.743,9.743,0,0,0-.992-2.41.768.768,0,0,0-1.065-.271l-.263.161a.653.653,0,0,1-.746-.2l-1.145-1.145a.651.651,0,0,1-.2-.748l.172-.276a.767.767,0,0,0-.262-1.066,9.746,9.746,0,0,0-2.413-1.019.765.765,0,0,0-.942.562l-.083.346a.653.653,0,0,1-.668.387h-1.619a.651.651,0,0,1-.669-.389l-.087-.374a.765.765,0,0,0-.933-.57,9.743,9.743,0,0,0-2.445.993.768.768,0,0,0-.274,1.067l.215.351a.652.652,0,0,1-.2.746l-1.144,1.144a.652.652,0,0,1-.748.2l-.365-.227a.767.767,0,0,0-1.067.265,9.74,9.74,0,0,0-1.021,2.448.766.766,0,0,0,.563.939l.436.1a.653.653,0,0,1,.387.668v1.619a.651.651,0,0,1-.389.669l-.427.1a.766.766,0,0,0-.568.94,9.741,9.741,0,0,0,1.025,2.447.768.768,0,0,0,1.062.267l.375-.23a.653.653,0,0,1,.746.2l1.144,1.144a.651.651,0,0,1,.2.748l-.212.341a.767.767,0,0,0,.271,1.071,9.727,9.727,0,0,0,2.446.99.766.766,0,0,0,.931-.565l.092-.383a.653.653,0,0,1,.668-.387h1.619a.651.651,0,0,1,.669.389l.078.336a.765.765,0,0,0,.944.566,9.749,9.749,0,0,0,2.412-1.022.768.768,0,0,0,.265-1.061l-.175-.287a.652.652,0,0,1,.2-.746l1.145-1.145a.652.652,0,0,1,.748-.2l.253.157a.767.767,0,0,0,1.07-.27,9.736,9.736,0,0,0,.988-2.411.765.765,0,0,0-.564-.935m-8.918,3.4a5.073,5.073,0,1,1,5.073-5.073,5.073,5.073,0,0,1-5.073,5.073" transform="translate(-1025.064 -2169.166)" fill="#fff"/>
      </g>
      <g id="그룹_337" data-name="그룹 337">
        <rect id="사각형_935" data-name="사각형 935" width="217.995" height="96.617" transform="translate(124.495 119.774)" fill="#3861fb"/>
        <path id="패스_741" data-name="패스 741" d="M1354.6,1242.992c0-3.377-1-3.715-2.08-3.715-1.43,0-2.08-1.351-2.08-2.7s.65-2.7,2.08-2.7c1.083,0,2.08-.338,2.08-3.715V1219.24c0-5.122,1.994-7.373,5.764-7.373h2.687c1.127,0,1.95.844,1.95,2.533s-.823,2.533-1.95,2.533h-1.083c-1.213,0-1.907.957-1.907,3.264v10.638c0,5.122-3.164,5.516-4.681,5.685v.113c1.517.169,4.681.563,4.681,5.685v10.638c0,2.308.693,3.264,1.907,3.264h1.083c1.127,0,1.95.844,1.95,2.533s-.823,2.533-1.95,2.533h-2.687c-3.771,0-5.764-2.251-5.764-7.373Z" transform="translate(-1188.604 -1066.639)" fill="#f5f5f5"/>
        <path id="패스_742" data-name="패스 742" d="M1559.454,1240.562a6.619,6.619,0,0,1,6.022-4.672c2.983,0,5.066,1.97,6.022,4.672l11.032,30.619a6.557,6.557,0,0,1,.45,2.083,3.749,3.749,0,0,1-3.884,3.715,3.944,3.944,0,0,1-4.109-2.927l-1.689-5.291h-15.647l-1.688,5.234a3.909,3.909,0,0,1-4.053,2.983,4.039,4.039,0,0,1-4.165-3.94,4.821,4.821,0,0,1,.394-1.857Zm.619,20.431h10.694l-5.234-16.323h-.113Z" transform="translate(-1362.268 -1087.783)" fill="#f5f5f5"/>
        <path id="패스_743" data-name="패스 743" d="M1889.188,1245.918a4.052,4.052,0,0,1,4.39-4.39h9.962c8.274,0,14.409,5.4,14.409,13.452,0,8.217-6.36,13.339-14.071,13.339h-6.248v9.231a4.225,4.225,0,1,1-8.443,0Zm8.443,14.972h5.741a5.969,5.969,0,0,0,0-11.932h-5.741Z" transform="translate(-1662.791 -1092.745)" fill="#f5f5f5"/>
        <path id="패스_744" data-name="패스 744" d="M2175.683,1243.1a4.225,4.225,0,1,1,8.443,0v31.97a4.225,4.225,0,1,1-8.443,0Z" transform="translate(-1914.953 -1090.264)" fill="#f5f5f5"/>
        <path id="패스_745" data-name="패스 745" d="M2374.128,1230.159c0,3.377,1,3.715,2.08,3.715,1.43,0,2.08,1.351,2.08,2.7s-.65,2.7-2.08,2.7c-1.083,0-2.08.338-2.08,3.715v10.919c0,5.122-1.994,7.373-5.764,7.373h-2.687c-1.127,0-1.95-.844-1.95-2.533s.823-2.533,1.95-2.533h1.083c1.214,0,1.907-.957,1.907-3.264v-10.638c0-5.122,3.164-5.516,4.68-5.685v-.113c-1.517-.169-4.68-.563-4.68-5.685V1220.2c0-2.308-.694-3.264-1.907-3.264h-1.083c-1.127,0-1.95-.844-1.95-2.533s.823-2.533,1.95-2.533h2.687c3.771,0,5.764,2.252,5.764,7.373Z" transform="translate(-2080.461 -1066.639)" fill="#f5f5f5"/>
      </g>
    </g>
  </g>
</svg>
