<svg xmlns="http://www.w3.org/2000/svg" width="20" height="20" viewBox="0 0 20 20">
  <g id="Binance_Logo" transform="translate(0.547)">
    <path id="패스_303" data-name="패스 303" d="M26.117,8.446l3.872-3.9,3.874,3.905,2.253-2.271L29.989,0,23.864,6.175Z" transform="translate(-20.535)" fill="#f3ba2f"/>
    <rect id="사각형_837" data-name="사각형 837" width="3.212" height="3.212" transform="translate(1.725 7.728) rotate(45)" fill="#f3ba2f"/>
    <path id="패스_304" data-name="패스 304" d="M26.1,73.4l3.872,3.9L33.845,73.4l2.254,2.27h0l-6.127,6.177-6.125-6.175,0,0Z" transform="translate(-20.518 -61.844)" fill="#f3ba2f"/>
    <rect id="사각형_838" data-name="사각형 838" width="3.212" height="3.212" transform="translate(19.453 10.001) rotate(135)" fill="#f3ba2f"/>
    <path id="패스_305" data-name="패스 305" d="M52.844,51.085h0l-2.3-2.3-1.7,1.7h0l-.2.2-.4.4h0l0,0,0,0,2.3,2.3,2.3-2.3h0Z" transform="translate(-41.087 -41.086)" fill="#f3ba2f"/>
  </g>
</svg>
