<svg xmlns="http://www.w3.org/2000/svg" xmlns:xlink="http://www.w3.org/1999/xlink" width="50" height="50" viewBox="0 0 50 50">
  <defs>
    <clipPath id="clip-path">
      <circle id="타원_130" data-name="타원 130" cx="25" cy="25" r="25" transform="translate(1160 661)" fill="#fff" stroke="#707070" stroke-width="1"/>
    </clipPath>
  </defs>
  <g id="bitcoin_big" transform="translate(-1160 -661)" clip-path="url(#clip-path)">
    <g id="Layer_x0020_1" transform="translate(1160.003 661)">
      <g id="_1421344023328">
        <path id="패스_750" data-name="패스 750" d="M49.246,31.048a24.991,24.991,0,1,1-18.2-30.3,24.993,24.993,0,0,1,18.2,30.3h0Z" fill="#f7931a" stroke="#707070" stroke-width="0.012"/>
        <path id="패스_751" data-name="패스 751" d="M36.021,21.438c.5-3.327-2.035-5.115-5.5-6.308l1.124-4.507L28.9,9.94l-1.094,4.388c-.721-.18-1.462-.349-2.2-.517l1.1-4.417L23.971,8.71l-1.124,4.505c-.6-.136-1.183-.27-1.752-.412l0-.014-3.783-.945-.73,2.93s2.035.467,1.992.5a1.46,1.46,0,0,1,1.278,1.6L18.576,22a2.229,2.229,0,0,1,.285.092l-.29-.072-1.794,7.192a1,1,0,0,1-1.257.652c.027.04-1.994-.5-1.994-.5l-1.362,3.14,3.57.89c.664.167,1.315.341,1.956.5l-1.135,4.558,2.74.684,1.124-4.51c.749.2,1.475.391,2.186.567l-1.12,4.489,2.743.684,1.135-4.55c4.678.885,8.2.528,9.676-3.7,1.193-3.407-.059-5.372-2.52-6.653a4.375,4.375,0,0,0,3.5-4.028h0Zm-6.268,8.789c-.848,3.407-6.584,1.565-8.443,1.1l1.506-6.039c1.859.464,7.823,1.383,6.937,4.936Zm.848-8.839c-.773,3.1-5.547,1.524-7.1,1.138l1.366-5.477c1.549.386,6.536,1.107,5.73,4.339Z" fill="#fff" stroke="#707070" stroke-width="0.012"/>
      </g>
    </g>
  </g>
</svg>
