<svg xmlns="http://www.w3.org/2000/svg" xmlns:xlink="http://www.w3.org/1999/xlink" width="24" height="24" viewBox="0 0 24 24">
  <defs>
    <clipPath id="clip-path">
      <circle id="타원_1" data-name="타원 1" cx="12" cy="12" r="12" transform="translate(304 290)" fill="#9d9d9d"/>
    </clipPath>
  </defs>
  <g id="bitcoin_icon" transform="translate(-304 -290)" clip-path="url(#clip-path)">
    <g id="Layer_x0020_1" transform="translate(304.001 290)">
      <g id="_1421344023328">
        <path id="패스_6" data-name="패스 6" d="M23.638,14.9A12,12,0,1,1,14.9.359,12,12,0,0,1,23.638,14.9h0Z" fill="#f7931a"/>
        <path id="패스_7" data-name="패스 7" d="M17.29,10.29c.239-1.6-.977-2.455-2.639-3.028L15.19,5.1l-1.317-.328-.525,2.106c-.346-.086-.7-.168-1.055-.248l.529-2.12-1.316-.328-.54,2.162c-.286-.065-.568-.13-.841-.2l0-.007L8.311,5.685l-.35,1.406s.977.224.956.238a.7.7,0,0,1,.614.766L8.917,10.56a1.07,1.07,0,0,1,.137.044l-.139-.034-.861,3.452a.479.479,0,0,1-.6.313c.013.019-.957-.239-.957-.239L5.839,15.6l1.714.427c.319.08.631.164.939.242L7.946,18.46l1.315.328.54-2.165c.359.1.708.188,1.049.272l-.538,2.155,1.317.328.545-2.184c2.245.425,3.934.254,4.644-1.777a2.31,2.31,0,0,0-1.21-3.193,2.1,2.1,0,0,0,1.681-1.933h0Zm-3.009,4.219c-.407,1.635-3.16.751-4.053.53l.723-2.9c.893.223,3.755.664,3.33,2.369Zm.407-4.243c-.371,1.487-2.663.732-3.406.546l.656-2.629c.743.185,3.137.531,2.751,2.083Z" fill="#fff"/>
      </g>
    </g>
  </g>
</svg>
