<svg xmlns="http://www.w3.org/2000/svg" xmlns:xlink="http://www.w3.org/1999/xlink" width="20" height="20" viewBox="0 0 20 20">
  <defs>
    <clipPath id="clip-path">
      <circle id="타원_123" data-name="타원 123" cx="10" cy="10" r="10" transform="translate(488 627)" fill="#fff"/>
    </clipPath>
  </defs>
  <g id="bitcoin_small" transform="translate(-488 -627)" clip-path="url(#clip-path)">
    <g id="Layer_x0020_1" transform="translate(488.001 627)">
      <g id="_1421344023328">
        <path id="패스_746" data-name="패스 746" d="M19.7,12.419A10,10,0,1,1,12.417.3,10,10,0,0,1,19.7,12.419h0Z" fill="#f7931a"/>
        <path id="패스_747" data-name="패스 747" d="M14.408,8.575c.2-1.331-.814-2.046-2.2-2.523l.449-1.8-1.1-.273-.438,1.755c-.288-.072-.585-.14-.879-.207l.441-1.767-1.1-.273-.45,1.8c-.239-.054-.473-.108-.7-.165V5.116L6.926,4.738,6.634,5.91s.814.187.8.2a.584.584,0,0,1,.511.638L7.43,8.8a.892.892,0,0,1,.114.037l-.116-.029-.718,2.877a.4.4,0,0,1-.5.261c.011.016-.8-.2-.8-.2L4.866,13l1.428.356c.266.067.526.136.782.2l-.454,1.823,1.1.273.45-1.8c.3.081.59.156.874.227l-.448,1.8,1.1.273.454-1.82c1.871.354,3.278.211,3.87-1.481a1.925,1.925,0,0,0-1.008-2.661,1.75,1.75,0,0,0,1.4-1.611h0ZM11.9,12.091c-.339,1.363-2.633.626-3.377.441l.6-2.416c.744.186,3.129.553,2.775,1.974Zm.339-3.535c-.309,1.239-2.219.61-2.838.455L9.949,6.82c.619.154,2.614.443,2.292,1.735Z" fill="#fff"/>
      </g>
    </g>
  </g>
</svg>
