<svg id="btc_logo" xmlns="http://www.w3.org/2000/svg" width="1187.79" height="301.52" viewBox="0 0 1187.79 301.52">
  <g id="그룹_9" data-name="그룹 9">
    <path id="패스_2" data-name="패스 2" d="M1132.69,206.12a105.613,105.613,0,0,1-76.45,32.15c-56.89,0-103.17-43.8-103.17-97.63s46.28-97.63,103.17-97.63a105.556,105.556,0,0,1,76.45,32.15h55.1C1162.9,30.47,1113.34,0,1056.24,0,974.16,0,907.62,62.97,907.62,140.64s66.54,140.64,148.62,140.64c57.09,0,106.66-30.47,131.55-75.16h-55.1Z"/>
    <path id="패스_3" data-name="패스 3" d="M674.46,199.73h0a81.311,81.311,0,0,0-25.37-59.09,81.311,81.311,0,0,0,25.37-59.09h0A81.551,81.551,0,0,0,592.9,0H394.28V281.29H592.9a81.559,81.559,0,0,0,81.56-81.56ZM439.29,45H592.91a36.56,36.56,0,0,1,0,73.12H439.29V45Zm0,118.17H592.91a36.56,36.56,0,0,1,0,73.12H439.29V163.18Z"/>
    <path id="패스_4" data-name="패스 4" d="M820.01,280.1V45h92.88V0H682.13V45h92.88V280.1Z"/>
    <g id="그룹_8" data-name="그룹 8">
      <path id="패스_5" data-name="패스 5" d="M128,301.52h44.52v-7.73A157.375,157.375,0,0,1,128,274.55Z" fill="#ffb60f"/>
      <path id="패스_6" data-name="패스 6" d="M133.89,140.64a78.182,78.182,0,0,0,38.63,67.38V73.27a78.17,78.17,0,0,0-38.63,67.38Z" fill="#ffb60f"/>
      <path id="패스_7" data-name="패스 7" d="M134.48,0H0V44.52H83.4A161.87,161.87,0,0,1,134.48,0Z" fill="#ffb60f"/>
      <path id="패스_8" data-name="패스 8" d="M212.03,236.29a95.64,95.64,0,0,1,0-191.28h88.49V0H212.03A140.644,140.644,0,0,0,71.39,140.64h0A140.638,140.638,0,0,0,212.03,281.28h88.49v-45H212.03Z" fill="#ffb60f"/>
    </g>
  </g>
</svg>
