<svg xmlns="http://www.w3.org/2000/svg" width="14.452" height="14" viewBox="0 0 14.452 14">
  <path id="calendar" d="M4.1-1.831a1.613,1.613,0,0,1-1.09-.385,1.2,1.2,0,0,1-.446-.939v-9.8A1.2,1.2,0,0,1,3.01-13.9a1.613,1.613,0,0,1,1.09-.385H5.277v-1.549H6.585v1.549h6.441v-1.549H14.3v1.549h1.177a1.613,1.613,0,0,1,1.09.385,1.2,1.2,0,0,1,.446.939v9.8a1.2,1.2,0,0,1-.446.939,1.613,1.613,0,0,1-1.09.385Zm0-1.1H15.478a.269.269,0,0,0,.18-.07.2.2,0,0,0,.082-.155v-6.873H3.839v6.873A.2.2,0,0,0,3.92-3a.269.269,0,0,0,.18.07Zm-.262-8.2h11.9v-1.831a.2.2,0,0,0-.082-.155.269.269,0,0,0-.18-.07H4.1a.269.269,0,0,0-.18.07.2.2,0,0,0-.082.155Zm0,0v0Z" transform="translate(-2.563 15.831)" fill="#fff"/>
</svg>
