<svg xmlns="http://www.w3.org/2000/svg" width="12.747" height="9.145" viewBox="0 0 12.747 9.145">
  <path id="chart2_blue" d="M6,7.516l4.034-4.035a.576.576,0,0,1,.814,0l1.8,1.8,4.131-4.131h-1.37a.576.576,0,1,1,0-1.152H18.2a.626.626,0,0,1,.084.01.445.445,0,0,1,.049.013l.048.015L18.4.049l.047.023A.349.349,0,0,1,18.491.1a.563.563,0,0,1,.16.159A.4.4,0,0,1,18.675.3.461.461,0,0,1,18.7.346l.008.021q.009.024.016.049c0,.009.008.027.013.049a.575.575,0,0,1,.011.113V3.337a.576.576,0,1,1-1.152,0V1.967L13.057,6.505a.577.577,0,0,1-.814,0l-1.8-1.8L6,9.145Zm.3.9L10.441,4.28l2.014,2.013a.275.275,0,0,0,.39,0L17.9,1.243l-5.051,5.05a.275.275,0,0,1-.39,0L10.441,4.28ZM17.9,3.337a.276.276,0,0,0,.552,0v0a.276.276,0,0,1-.552,0ZM15.134.576a.276.276,0,0,0,.276.276h0a.276.276,0,0,1-.276-.276ZM18.173.3a.331.331,0,0,1,.052,0A.275.275,0,0,0,18.171.3Z" transform="translate(-6)" fill="#3861fb"/>
</svg>
