<svg xmlns="http://www.w3.org/2000/svg" xmlns:xlink="http://www.w3.org/1999/xlink" width="148.75" height="28.847" viewBox="0 0 148.75 28.847">
  <defs>
    <clipPath id="clip-path">
      <rect id="사각형_1113" data-name="사각형 1113" width="148.75" height="28.847" transform="translate(0 0)" fill="none"/>
    </clipPath>
  </defs>
  <g id="logo" transform="translate(0 0)">
    <g id="그룹_399" data-name="그룹 399" transform="translate(0 0)" clip-path="url(#clip-path)">
      <path id="패스_759" data-name="패스 759" d="M106.409,23.737a1.373,1.373,0,0,1,.02,1.157,2.971,2.971,0,0,1-.778,1.033,6.214,6.214,0,0,1-2.518,1.31,6.438,6.438,0,0,1-1.423.133,7.066,7.066,0,0,1-2.947-.7,6.3,6.3,0,0,1-1.3-.83,4.175,4.175,0,0,1-1.116-1.423,7.293,7.293,0,0,1-.584-1.77,10.44,10.44,0,0,1-.194-1.893q-.011-.952.051-1.791a7.607,7.607,0,0,1,.307-1.576,7.976,7.976,0,0,1,.686-1.607,7.629,7.629,0,0,1,1.064-1.464,5.93,5.93,0,0,1,1.463-1.146,4.214,4.214,0,0,1,1.423-.5,6.261,6.261,0,0,1,1.6-.061,5.736,5.736,0,0,1,1.535.348,3.8,3.8,0,0,1,1.238.747,4.488,4.488,0,0,1,.686.8,3.759,3.759,0,0,1,.522,1.044,1.6,1.6,0,0,1,.01.993,1.034,1.034,0,0,1-.829.624,1.023,1.023,0,0,1-.512.03,1.1,1.1,0,0,1-.409-.184,2.126,2.126,0,0,1-.348-.317c-.109-.123-.212-.246-.307-.368a2.486,2.486,0,0,0-1.146-.809,2.653,2.653,0,0,0-1.3-.1,2.871,2.871,0,0,0-2.078,1.607,7.7,7.7,0,0,0-.522,1.525,8.178,8.178,0,0,0-.215,1.679,6.9,6.9,0,0,0,.154,1.648,3.867,3.867,0,0,0,.6,1.412,2.724,2.724,0,0,0,.809.8,3.182,3.182,0,0,0,1.033.43,3.058,3.058,0,0,0,1.116.041,3.292,3.292,0,0,0,1.1-.368,2.142,2.142,0,0,0,.358-.235l.4-.317q.2-.164.419-.307a1.462,1.462,0,0,1,.461-.2,1.266,1.266,0,0,1,.809.021,1.117,1.117,0,0,1,.665.593" transform="translate(-59.746 -7.869)" fill="#1c1c1c"/>
      <path id="패스_760" data-name="패스 760" d="M131.894,25.887a5.742,5.742,0,0,1,1.412-.471,4.824,4.824,0,0,1,1.464-.061,4.741,4.741,0,0,1,1.412.389,4.4,4.4,0,0,1,1.259.86,4.652,4.652,0,0,1,.819,1.136,6.149,6.149,0,0,1,.512,1.3,4.433,4.433,0,0,1,.1,2.272,6.856,6.856,0,0,1-.839,2.129,3.6,3.6,0,0,1-.706.809,4.089,4.089,0,0,1-.891.584,4.949,4.949,0,0,1-1.33.4,5.676,5.676,0,0,1-1.392.051,4.616,4.616,0,0,1-2.159-.614,4.49,4.49,0,0,1-1.494-1.412,4.928,4.928,0,0,1-.737-1.955,5.339,5.339,0,0,1,.133-2.242,5.274,5.274,0,0,1,.952-2,4.254,4.254,0,0,1,1.484-1.177m.614,2.743a1.886,1.886,0,0,0-.471.716,3.322,3.322,0,0,0-.2.891,2.8,2.8,0,0,0,.072.921,2.577,2.577,0,0,0,.358.829A1.5,1.5,0,0,0,133,32.5a3.811,3.811,0,0,0,1.105.246,1.6,1.6,0,0,0,1.146-.358,2.57,2.57,0,0,0,.747-.993,3,3,0,0,0,.235-1.29,2.547,2.547,0,0,0-.368-1.269,1.476,1.476,0,0,0-.686-.6,2.4,2.4,0,0,0-.921-.2,2.865,2.865,0,0,0-.952.143,2.1,2.1,0,0,0-.8.461" transform="translate(-80.809 -15.832)" fill="#1c1c1c"/>
      <path id="패스_761" data-name="패스 761" d="M162.736,19.848q0,.574.01,1.29t.01,1.484v1.515q0,.748-.021,1.382-.021.307-.061.665a2.56,2.56,0,0,1-.163.665,1.157,1.157,0,0,1-.379.5,1.021,1.021,0,0,1-.686.174,1.036,1.036,0,0,1-.911-.553,3.369,3.369,0,0,1-.317-1.433q0-.471-.01-1.085t-.02-1.249q-.011-.634-.011-1.238v-1.1q0-.286-.01-.7t.01-.839a5.368,5.368,0,0,1,.1-.829,1.781,1.781,0,0,1,.266-.665.933.933,0,0,1,.409-.256,1.707,1.707,0,0,1,.563-.092,1.63,1.63,0,0,1,.573.1.788.788,0,0,1,.4.286.933.933,0,0,1,.123.348c.027.15.052.317.072.5s.034.375.041.573.01.379.01.542m-.778-4.135a1.22,1.22,0,0,1-1.054-.133,1.305,1.305,0,0,1-.522-.89,1.266,1.266,0,0,1,.061-.757,1.072,1.072,0,0,1,.43-.5,1.117,1.117,0,0,1,.655-.153,1.393,1.393,0,0,1,.737.286,1.476,1.476,0,0,1,.5.573,1.063,1.063,0,0,1,.1.635,1.12,1.12,0,0,1-.276.563,1.33,1.33,0,0,1-.635.379" transform="translate(-100.128 -8.299)" fill="#1c1c1c"/>
      <path id="패스_762" data-name="패스 762" d="M172.468,27.613q0-.471-.01-1a2.309,2.309,0,0,1,.174-.962,1.044,1.044,0,0,1,.542-.563,1.062,1.062,0,0,1,.747-.072,1.23,1.23,0,0,1,.573.225.978.978,0,0,1,.3.379,1.522,1.522,0,0,1,.112.491q.02.276.041.542a1.816,1.816,0,0,1,.512-.594,3.332,3.332,0,0,1,.634-.368,3.153,3.153,0,0,1,.624-.2,2.446,2.446,0,0,1,.461-.061,3.813,3.813,0,0,1,1.545.338,3.443,3.443,0,0,1,1.279.952,3.013,3.013,0,0,1,.44.767,4.264,4.264,0,0,1,.225.829,7.366,7.366,0,0,1,.092.87q.02.44.041.89a16.535,16.535,0,0,1,0,2.6q-.02.266-.02.614a4.622,4.622,0,0,1-.051.686,1.9,1.9,0,0,1-.184.594.6.6,0,0,1-.44.317,1.767,1.767,0,0,1-.706.051.9.9,0,0,1-.44-.195.867.867,0,0,1-.245-.368,3.782,3.782,0,0,1-.144-.512q-.041-.225-.072-.522c-.021-.2-.034-.4-.041-.6s-.014-.406-.02-.6-.01-.379-.01-.542q0-.389-.02-.86t0-.881a1.983,1.983,0,0,0-.5-1.463,1.61,1.61,0,0,0-1.361-.42,2.061,2.061,0,0,0-1.146.522,1.4,1.4,0,0,0-.471,1.136v.491q0,.225-.01.451t-.01.491v2.016a3.392,3.392,0,0,1-.184,1.218,1.078,1.078,0,0,1-.553.676,1,1,0,0,1-.921-.1.943.943,0,0,1-.358-.338,1.851,1.851,0,0,1-.2-.46,2.447,2.447,0,0,1-.092-.5c-.014-.171-.028-.331-.041-.481q-.061-.675-.071-1.259t-.011-1.259Z" transform="translate(-107.813 -15.614)" fill="#1c1c1c"/>
      <path id="패스_763" data-name="패스 763" d="M218.43,15.3l-.041,3.214h.819q.838-.02,1.495-.021t1.453.021h.1c.164,0,.324,0,.481.01s.31.01.461.01a3.432,3.432,0,0,1,.471.072c.15.034.3.071.45.112a1.4,1.4,0,0,1,.574.368.954.954,0,0,1,.2.593v.235a.625.625,0,0,1-.041.235.693.693,0,0,1-.266.41.617.617,0,0,1-.389.2,2.413,2.413,0,0,1-.532.1,2.742,2.742,0,0,1-.573.061h-.962l-3.786.02-.041,4.012,4.073.041h1.269a1.644,1.644,0,0,1,.266.021,1.744,1.744,0,0,0,.3.051,1.066,1.066,0,0,1,.256.051,1.186,1.186,0,0,1,.409.225.981.981,0,0,1,.266.43,2.093,2.093,0,0,1,.031.215.931.931,0,0,1-.01.235.949.949,0,0,1-.2.594,1.1,1.1,0,0,1-.574.368,2.37,2.37,0,0,1-.941.184c-.15.013-.307.021-.471.021s-.321.006-.471.02h-.123q-1.6.041-3.316,0-.41,0-.654-.01c-.164-.007-.311-.01-.44-.01h-.931a1.184,1.184,0,0,1-.778-.164.962.962,0,0,1-.348-.389.178.178,0,0,1-.061-.123.229.229,0,0,0-.04-.061.243.243,0,0,1-.041-.061,1.093,1.093,0,0,1-.061-.215,1.174,1.174,0,0,1-.02-.215,1.91,1.91,0,0,1-.031-.2c-.008-.068-.018-.136-.031-.2v-.328a1.274,1.274,0,0,1,.01-.164,1.257,1.257,0,0,0,.01-.163v-1.6l.041-2.947V17.839q0-.737.01-1.31t.031-1.248v-.1c.013-.15.024-.29.031-.42s.01-.262.01-.4a1.9,1.9,0,0,1,.226-.8,1.8,1.8,0,0,1,.174-.287.706.706,0,0,1,.256-.2,1.219,1.219,0,0,1,.634-.184,1.111,1.111,0,0,1,.246.02v-.02h1.033q.214,0,.46-.01t.675-.01q.819-.02,1.556-.021t1.515.021h.082q.225.02.471.021t.471.02a2.048,2.048,0,0,1,.45.051,3.8,3.8,0,0,1,.451.133,1.23,1.23,0,0,1,.573.348,1.055,1.055,0,0,1,.184.573v.235a.588.588,0,0,1-.04.215.743.743,0,0,1-.246.43,1.623,1.623,0,0,0-.175.1.858.858,0,0,1-.215.1,1.053,1.053,0,0,1-.255.051c-.09.007-.174.017-.256.031a1.237,1.237,0,0,1-.3.041h-1.217l-4.094.02Z" transform="translate(-134.8 -8.029)" fill="#1c1c1c"/>
      <path id="패스_764" data-name="패스 764" d="M252.38,31.334q.225.287.624.726t.758.921a5.781,5.781,0,0,1,.583.952,1.15,1.15,0,0,1,.123.819.788.788,0,0,1-.614.614,1.485,1.485,0,0,1-.942-.164,3.389,3.389,0,0,1-.8-.573q-.45-.409-.87-.86t-.747-.849c-.219-.267-.368-.454-.451-.563,0-.013,0-.02-.01-.02s-.01-.007-.01-.021q-.143.164-.287.358t-.307.378q-.2.246-.46.584t-.553.665a7.327,7.327,0,0,1-.614.6,2.239,2.239,0,0,1-.624.4.867.867,0,0,1-.788-.051.955.955,0,0,1-.481-.583,1.379,1.379,0,0,1,.061-.9,4.375,4.375,0,0,1,.491-.911,9.8,9.8,0,0,1,.665-.849q.358-.409.583-.717.225-.286.4-.5l.338-.419q-.287-.307-.614-.686t-.921-.993q-.205-.225-.451-.5a5.241,5.241,0,0,1-.45-.583,3.119,3.119,0,0,1-.328-.635,1.263,1.263,0,0,1-.061-.675.921.921,0,0,1,.266-.5,1.084,1.084,0,0,1,.491-.266,1.343,1.343,0,0,1,.594-.01,1.522,1.522,0,0,1,.573.246,5.543,5.543,0,0,1,1,.962q.471.574.921,1.085c.1.123.187.235.277.338l.256.3a2.118,2.118,0,0,1,.256-.328,4.037,4.037,0,0,0,.318-.389q.409-.491.829-1.023a5.163,5.163,0,0,1,.931-.921,1.276,1.276,0,0,1,.563-.256,1.3,1.3,0,0,1,.563.02,1.138,1.138,0,0,1,.471.256.849.849,0,0,1,.266.45,1.26,1.26,0,0,1-.01.655,2.4,2.4,0,0,1-.286.635,5.3,5.3,0,0,1-.43.583c-.157.184-.3.352-.44.5q-.471.512-.819.921t-.655.778q.184.2.379.44t.44.563" transform="translate(-153.542 -15.937)" fill="#1c1c1c"/>
      <path id="패스_765" data-name="패스 765" d="M279.459,25.666a3.582,3.582,0,0,1,1.085.706,4.914,4.914,0,0,1,.849,1.054,5.223,5.223,0,0,1,.553,1.28,5.04,5.04,0,0,1,.195,1.381,3.9,3.9,0,0,1-.481,1.965,3.251,3.251,0,0,1-1.628,1.412,9.381,9.381,0,0,1-1.77.522,15.126,15.126,0,0,1-1.893.235v3.746a.775.775,0,0,1-.031.225.7.7,0,0,0-.031.2,3.783,3.783,0,0,1-.092.368,3.289,3.289,0,0,1-.133.348c-.054.082-.109.157-.164.225a2.589,2.589,0,0,1-.184.2,1.4,1.4,0,0,1-1.024.1.845.845,0,0,1-.532-.2,1.159,1.159,0,0,1-.266-.389,3.179,3.179,0,0,1-.143-.47c-.014-.069-.024-.133-.031-.195a1.686,1.686,0,0,1-.01-.195v-11.4c0-.082,0-.167.01-.256s.017-.18.031-.276a1.607,1.607,0,0,1,.123-.491,1.112,1.112,0,0,1,.758-.7,3.848,3.848,0,0,1,1.289-.164,8.959,8.959,0,0,1,1.013.1q.522.082,1,.194t.87.236q.389.123.635.225m.041,4.421a1.551,1.551,0,0,0-.133-.972,1.8,1.8,0,0,0-.6-.655,3.224,3.224,0,0,0-.89-.4,6.623,6.623,0,0,0-.993-.2.673.673,0,0,0-.195-.021h-.3q0,.656.01,1.259t-.01,1.3v1.371a8.851,8.851,0,0,0,.993-.1,4.33,4.33,0,0,0,.972-.266,2.4,2.4,0,0,0,.768-.491,1.32,1.32,0,0,0,.379-.819" transform="translate(-171.123 -15.57)" fill="#1c1c1c"/>
      <path id="패스_766" data-name="패스 766" d="M300.65,27.085v-.563q0-.318.02-.655t.072-.655a2.492,2.492,0,0,1,.154-.563.9.9,0,0,1,.512-.5,1.841,1.841,0,0,1,.758-.112,1.347,1.347,0,0,1,.675.143.935.935,0,0,1,.368.379,1.458,1.458,0,0,1,.154.532,6.027,6.027,0,0,1,.031.624,1.5,1.5,0,0,1,.5-.532,3.36,3.36,0,0,1,.645-.328,3.681,3.681,0,0,1,.594-.174c.177-.034.28-.051.307-.051a7.311,7.311,0,0,1,.931-.02,3.673,3.673,0,0,1,.931.184,3.891,3.891,0,0,1,.676.338,2.952,2.952,0,0,1,.614.5,1.49,1.49,0,0,1,.358.624.972.972,0,0,1-.092.706q-.287.512-.635.5a3.539,3.539,0,0,1-.757-.112,2.25,2.25,0,0,1-.533-.184,2.271,2.271,0,0,0-.532-.184,2.41,2.41,0,0,0-1.228.1,3.516,3.516,0,0,0-1.7,1.289v2.948q0,.553-.01,1.146a3.721,3.721,0,0,1-.164,1.075,1.62,1.62,0,0,1-.512.778,1.438,1.438,0,0,1-1.034.256.914.914,0,0,1-.655-.358,1.461,1.461,0,0,1-.348-.665q-.042-.307-.062-.737t-.031-.9q-.011-.47-.01-.951V27.085Z" transform="translate(-187.954 -15.024)" fill="#1c1c1c"/>
      <path id="패스_767" data-name="패스 767" d="M330.992,32.656a3.065,3.065,0,0,1,.5-.082,1.074,1.074,0,0,1,.471.061.791.791,0,0,1,.358.276.9.9,0,0,1,.143.542.97.97,0,0,1-.123.471,1.783,1.783,0,0,1-.307.409,2.051,2.051,0,0,1-.409.317,3.214,3.214,0,0,1-.43.215,6.02,6.02,0,0,1-1.361.409,6.765,6.765,0,0,1-1.586.1,6.382,6.382,0,0,1-2.119-.44,3.2,3.2,0,0,1-1.587-1.32,4.751,4.751,0,0,1-.635-2.006,7.012,7.012,0,0,1,.1-2.088,4.77,4.77,0,0,1,.767-1.934,4.342,4.342,0,0,1,1.3-1.2,4.211,4.211,0,0,1,2.067-.553,5.056,5.056,0,0,1,2.191.45,4.385,4.385,0,0,1,1.248.829,3.409,3.409,0,0,1,.84,1.259,2.13,2.13,0,0,1,.133.451,4.75,4.75,0,0,1,.072.563,4.2,4.2,0,0,1,0,.583,1.886,1.886,0,0,1-.1.512,1.6,1.6,0,0,1-.307.573,1.129,1.129,0,0,1-.47.307,2.635,2.635,0,0,1-.686.133q-.4.031-.952.051-.491.02-.921.021t-.88-.01l-.932-.02q-.481-.011-1.074-.031a1.049,1.049,0,0,0,.112.706,1.431,1.431,0,0,0,.481.491,2.454,2.454,0,0,0,.7.3,3.736,3.736,0,0,0,.757.123,4.492,4.492,0,0,0,1.331-.112q.634-.153,1.31-.358m-.88-3.971a2.558,2.558,0,0,0-.819-.655,1.589,1.589,0,0,0-.686-.133,2.558,2.558,0,0,0-.686.112,1.89,1.89,0,0,0-1,.614,1.6,1.6,0,0,0-.144.195c-.068.1-.133.208-.194.317a1.433,1.433,0,0,0-.133.307c-.027.1-.014.143.041.143H330.5a1.292,1.292,0,0,0-.389-.9" transform="translate(-202.473 -16.153)" fill="#1c1c1c"/>
      <path id="패스_768" data-name="패스 768" d="M356.561,31.375a3.492,3.492,0,0,0-.87-.389q-.481-.143-.983-.266t-.972-.277a2.99,2.99,0,0,1-.86-.44,2.337,2.337,0,0,1-.972-1.566,2.9,2.9,0,0,1,.4-1.873,2.447,2.447,0,0,1,.758-.809,3.9,3.9,0,0,1,1.034-.491,4.407,4.407,0,0,1,1.156-.194,6.068,6.068,0,0,1,1.126.061,7.105,7.105,0,0,1,.737.174,3.616,3.616,0,0,1,.727.3,2.69,2.69,0,0,1,.614.461,1.6,1.6,0,0,1,.4.686,1.013,1.013,0,0,1,.031.512.831.831,0,0,1-.2.41.949.949,0,0,1-.389.246,1.022,1.022,0,0,1-.5.041,2.563,2.563,0,0,1-.573-.184q-.266-.123-.532-.266a4.355,4.355,0,0,0-.542-.246,1.673,1.673,0,0,0-.583-.1,1.375,1.375,0,0,0-.778.163.98.98,0,0,0-.42.451.7.7,0,0,0,.021.573,1.158,1.158,0,0,0,.563.532,4.008,4.008,0,0,0,.859.328q.471.123.931.246t.9.286a2.739,2.739,0,0,1,.788.45,2.247,2.247,0,0,1,.829,1.29,2.7,2.7,0,0,1-.092,1.453,3.143,3.143,0,0,1-2.272,2.006,6.3,6.3,0,0,1-1.279.123,6.418,6.418,0,0,1-1.351-.143,5.2,5.2,0,0,1-1.269-.45,3.3,3.3,0,0,1-1.013-.778,1.144,1.144,0,0,1-.3-.747,1.432,1.432,0,0,1,.163-.737.932.932,0,0,1,.5-.44.809.809,0,0,1,.737.143,5.66,5.66,0,0,0,.778.44,5.4,5.4,0,0,0,.9.338,3.308,3.308,0,0,0,.87.123,1.385,1.385,0,0,0,.727-.184.864.864,0,0,0,.47-.665.629.629,0,0,0-.266-.583" transform="translate(-219.855 -15.67)" fill="#1c1c1c"/>
      <path id="패스_769" data-name="패스 769" d="M381.353,31.375a3.492,3.492,0,0,0-.87-.389q-.481-.143-.983-.266t-.972-.277a2.991,2.991,0,0,1-.86-.44,2.337,2.337,0,0,1-.972-1.566,2.9,2.9,0,0,1,.4-1.873,2.447,2.447,0,0,1,.758-.809,3.9,3.9,0,0,1,1.034-.491,4.407,4.407,0,0,1,1.156-.194,6.068,6.068,0,0,1,1.126.061,7.105,7.105,0,0,1,.737.174,3.616,3.616,0,0,1,.727.3,2.69,2.69,0,0,1,.614.461,1.6,1.6,0,0,1,.4.686,1.013,1.013,0,0,1,.031.512.831.831,0,0,1-.2.41.949.949,0,0,1-.389.246,1.022,1.022,0,0,1-.5.041,2.564,2.564,0,0,1-.573-.184q-.266-.123-.532-.266a4.351,4.351,0,0,0-.542-.246,1.674,1.674,0,0,0-.583-.1,1.375,1.375,0,0,0-.778.163.98.98,0,0,0-.42.451.7.7,0,0,0,.021.573,1.158,1.158,0,0,0,.563.532,4.009,4.009,0,0,0,.859.328q.471.123.931.246t.9.286a2.738,2.738,0,0,1,.788.45,2.246,2.246,0,0,1,.829,1.29,2.7,2.7,0,0,1-.092,1.453,3.143,3.143,0,0,1-2.272,2.006,6.3,6.3,0,0,1-1.279.123,6.418,6.418,0,0,1-1.351-.143,5.2,5.2,0,0,1-1.269-.45,3.3,3.3,0,0,1-1.013-.778,1.143,1.143,0,0,1-.3-.747,1.431,1.431,0,0,1,.163-.737.932.932,0,0,1,.5-.44.81.81,0,0,1,.737.143,5.663,5.663,0,0,0,.778.44,5.4,5.4,0,0,0,.9.338,3.308,3.308,0,0,0,.87.123,1.385,1.385,0,0,0,.727-.184.864.864,0,0,0,.47-.665.629.629,0,0,0-.266-.583" transform="translate(-235.354 -15.67)" fill="#1c1c1c"/>
      <path id="패스_770" data-name="패스 770" d="M34.928,7.167a6.5,6.5,0,0,1,1.019,1.811,10.429,10.429,0,0,1,.407,4.783A8.849,8.849,0,0,1,34.242,18.8a10.609,10.609,0,0,1-4.57,2.981,15.8,15.8,0,0,1-6.125.779q-2.858-.162-3.9-1.15c-.06-.057-.117-.115-.171-.173,0,.026-.007.052-.01.078a10.52,10.52,0,0,0,.174,3.643,5.118,5.118,0,0,0,1.574,2.68,5.367,5.367,0,0,0,3.369,1.177A6.877,6.877,0,0,0,28,28.328a10.817,10.817,0,0,0,2.82-1.488c.83-.573,1.411-1.077,1.986-1.514a2.423,2.423,0,0,1,1.53-.617.879.879,0,0,1,.856.5,3.239,3.239,0,0,1,.078,1.469A4.326,4.326,0,0,1,34.081,29a10.773,10.773,0,0,1-2.689,2.235,14.052,14.052,0,0,1-3.625,1.612A11.2,11.2,0,0,1,25.7,33.3c.281.016.563.025.848.025A14.424,14.424,0,0,0,34.928,7.167" transform="translate(-12.12 -4.48)" fill="#1c1c1c"/>
      <path id="패스_771" data-name="패스 771" d="M3.277,15.923A20.233,20.233,0,0,1,4.79,10.235,19.882,19.882,0,0,1,7.918,5.117a14.927,14.927,0,0,1,4.423-3.608A10.058,10.058,0,0,1,17.555.342,14.424,14.424,0,0,0,5.125,25.449a9.146,9.146,0,0,1-1.477-3.111,17.269,17.269,0,0,1-.372-6.415" transform="translate(0.001 0)" fill="#1c1c1c"/>
      <path id="패스_772" data-name="패스 772" d="M24.871,22.5a11.656,11.656,0,0,0,4.245-.464,7.239,7.239,0,0,0,3.053-1.827A4.839,4.839,0,0,0,33.543,17.3a4.185,4.185,0,0,0-.5-2.9,3.168,3.168,0,0,0-2.562-1.1,6.369,6.369,0,0,0-3.516.815A9.851,9.851,0,0,0,24,16.7a15.354,15.354,0,0,0-2.174,3.848c-.176.444-.331.9-.469,1.354a5.555,5.555,0,0,1,1.273.269,9.746,9.746,0,0,0,2.241.324" transform="translate(-13.352 -8.306)" fill="#1c1c1c"/>
    </g>
  </g>
</svg>
