<svg xmlns="http://www.w3.org/2000/svg" xmlns:xlink="http://www.w3.org/1999/xlink" width="41" height="40" viewBox="0 0 41 40">
  <defs>
    <clipPath id="clip-path">
      <rect id="사각형_1" data-name="사각형 1" width="41" height="40" fill="#fff"/>
    </clipPath>
  </defs>
  <g id="coin_express_logoS" transform="translate(0 -0.5)">
    <g id="그룹_1" data-name="그룹 1" transform="translate(0 0.5)" clip-path="url(#clip-path)">
      <path id="패스_1" data-name="패스 1" d="M81.59,22.094a9.113,9.113,0,0,1,1.43,2.542,14.644,14.644,0,0,1,.572,6.716,12.424,12.424,0,0,1-2.965,7.069,14.9,14.9,0,0,1-6.416,4.185,22.174,22.174,0,0,1-8.6,1.094q-4.012-.228-5.475-1.615c-.085-.08-.164-.162-.241-.243a1.033,1.033,0,0,1-.014.11,14.765,14.765,0,0,0,.244,5.115,7.185,7.185,0,0,0,2.21,3.764,7.535,7.535,0,0,0,4.73,1.652,9.652,9.652,0,0,0,4.8-.679,15.168,15.168,0,0,0,3.96-2.089c1.165-.8,1.981-1.512,2.788-2.126a3.4,3.4,0,0,1,2.148-.867,1.234,1.234,0,0,1,1.2.7,4.547,4.547,0,0,1,.109,2.062,6.072,6.072,0,0,1-1.67,3.268,15.128,15.128,0,0,1-3.775,3.138,19.728,19.728,0,0,1-5.089,2.263,15.732,15.732,0,0,1-2.909.635c.394.023.79.036,1.19.036A20.251,20.251,0,0,0,81.59,22.094" transform="translate(-49.569 -18.823)" fill="#fff"/>
      <path id="패스_2" data-name="패스 2" d="M4.6,22.356a28.4,28.4,0,0,1,2.124-7.987,27.915,27.915,0,0,1,4.391-7.185,20.949,20.949,0,0,1,6.21-5.066A14.129,14.129,0,0,1,24.648.48,20.251,20.251,0,0,0,7.2,35.73a12.841,12.841,0,0,1-2.073-4.367A24.255,24.255,0,0,1,4.6,22.356" transform="translate(0 -0.5)" fill="#fff"/>
      <path id="패스_3" data-name="패스 3" d="M70.776,53.9a16.37,16.37,0,0,0,5.96-.651,10.159,10.159,0,0,0,4.286-2.565,6.791,6.791,0,0,0,1.93-4.083,5.873,5.873,0,0,0-.7-4.073,4.448,4.448,0,0,0-3.6-1.549,8.944,8.944,0,0,0-4.937,1.144,13.83,13.83,0,0,0-4.169,3.639,21.563,21.563,0,0,0-3.051,5.4c-.247.623-.465,1.258-.659,1.9a7.78,7.78,0,0,1,1.788.378,13.674,13.674,0,0,0,3.146.455" transform="translate(-54.603 -34.469)" fill="#fff"/>
    </g>
  </g>
</svg>
