<svg xmlns="http://www.w3.org/2000/svg" width="17.895" height="20" viewBox="0 0 17.895 20">
  <path id="contract_off" d="M7.053-7.158a2.54,2.54,0,0,1-1.867-.764,2.54,2.54,0,0,1-.764-1.867v-3.036H7.579V-27.158H22.316V-9.789a2.54,2.54,0,0,1-.764,1.867,2.54,2.54,0,0,1-1.867.764ZM19.684-8.737a1.019,1.019,0,0,0,.75-.3,1.019,1.019,0,0,0,.3-.75V-25.579H9.158v12.753h9.474v3.036a1.019,1.019,0,0,0,.3.75A1.019,1.019,0,0,0,19.684-8.737Zm-9.271-11.9v-1.579h9.069v1.579Zm0,3.037v-1.579h9.069V-17.6ZM7.053-8.737h10v-2.51H6v1.458a1.019,1.019,0,0,0,.3.75A1.019,1.019,0,0,0,7.053-8.737Zm0,0h0Z" transform="translate(-4.421 27.158)" fill="#808a9d"/>
</svg>
