<svg xmlns="http://www.w3.org/2000/svg" width="11.334" height="12.667" viewBox="0 0 11.334 12.667">
  <g id="contract" transform="translate(-306.667 -433)">
    <path id="contract_24dp_434343_FILL0_wght300_GRAD0_opsz24_1_" data-name="contract_24dp_434343_FILL0_wght300_GRAD0_opsz24 (1)" d="M4.614-5.438a1.609,1.609,0,0,1-1.183-.484A1.609,1.609,0,0,1,2.947-7.1V-9.028h2v-9.077h9.334v11A1.609,1.609,0,0,1,13.8-5.922a1.609,1.609,0,0,1-1.183.484Zm8-1a.645.645,0,0,0,.475-.192.645.645,0,0,0,.192-.475v-10H5.947v8.077h6V-7.1a.645.645,0,0,0,.192.475A.645.645,0,0,0,12.614-6.438ZM6.742-13.977v-1h5.744v1Zm0,1.923v-1h5.744v1ZM4.614-6.438h6.333v-1.59h-7V-7.1a.645.645,0,0,0,.192.475A.645.645,0,0,0,4.614-6.438Zm0,0h0Z" transform="translate(303.719 451.105)" fill="#b8bec9"/>
  </g>
</svg>
