<svg xmlns="http://www.w3.org/2000/svg" width="11.5" height="11.5" viewBox="0 0 11.5 11.5">
  <path id="download_icon" d="M185.75-771.345l-3.273-3.273.808-.831,1.89,1.89V-780h1.15v6.44l1.89-1.89.808.831Zm-4.364,2.845a1.338,1.338,0,0,1-.983-.4,1.338,1.338,0,0,1-.4-.984v-2.079h1.15v2.079a.225.225,0,0,0,.074.162.225.225,0,0,0,.162.074h8.728a.225.225,0,0,0,.162-.074.225.225,0,0,0,.074-.162v-2.079h1.15v2.079a1.338,1.338,0,0,1-.4.984,1.338,1.338,0,0,1-.983.4Z" transform="translate(-180 780)" fill="#7f8891"/>
</svg>
