<svg xmlns="http://www.w3.org/2000/svg" width="14.15" height="14.176" viewBox="0 0 14.15 14.176">
  <path id="edit" d="M141.353-883.364a1.306,1.306,0,0,1-.96-.393,1.306,1.306,0,0,1-.393-.96v-10.019a1.306,1.306,0,0,1,.393-.96,1.306,1.306,0,0,1,.96-.393h6.479l-1.123,1.123h-5.356a.219.219,0,0,0-.158.072.22.22,0,0,0-.072.158v10.019a.22.22,0,0,0,.072.158.22.22,0,0,0,.158.072h10.019a.22.22,0,0,0,.158-.072.22.22,0,0,0,.072-.158v-5.4l1.123-1.123v6.527a1.306,1.306,0,0,1-.393.96,1.306,1.306,0,0,1-.96.393ZM146.363-889.726Zm-1.871,1.871v-2.57l6.782-6.782a1.09,1.09,0,0,1,.383-.254,1.178,1.178,0,0,1,.425-.08,1.144,1.144,0,0,1,.423.08,1.08,1.08,0,0,1,.37.247l.94.937a1.281,1.281,0,0,1,.25.384,1.105,1.105,0,0,1,.087.426,1.212,1.212,0,0,1-.074.419,1.035,1.035,0,0,1-.248.377l-6.8,6.815Zm8.548-7.6-.94-.961Zm-7.425,6.481h.933l4.665-4.665-.466-.466-.5-.481-4.632,4.632Zm5.132-5.132-.5-.481.5.481.466.466Z" transform="translate(-140 897.54)" fill="#58667e"/>
</svg>
