<svg xmlns="http://www.w3.org/2000/svg" xmlns:xlink="http://www.w3.org/1999/xlink" width="16" height="16" viewBox="0 0 16 16">
  <defs>
    <clipPath id="clip-path">
      <rect id="사각형_794" data-name="사각형 794" width="16" height="16" transform="translate(566 247)"/>
    </clipPath>
  </defs>
  <g id="eye_on" transform="translate(-566 -247)" clip-path="url(#clip-path)">
    <path id="eye-show-svgrepo-com" d="M9.7,4.243A8.594,8.594,0,0,0,4.144,6.828,16.481,16.481,0,0,0,2.525,8.559c-.191.236-.34.433-.442.573-.051.07-.09.125-.118.164l-.031.045-.009.013,0,0L1.7,9.709l.22.328h0l0,0,.009.013.031.045c.027.039.067.094.118.164.1.14.251.337.442.573a16.481,16.481,0,0,0,1.619,1.731A8.594,8.594,0,0,0,9.7,15.153a8.594,8.594,0,0,0,5.554-2.585,16.477,16.477,0,0,0,1.619-1.731c.191-.236.34-.433.442-.573.051-.07.09-.125.118-.164l.031-.045.009-.013,0,0v0L17.7,9.7l-.227-.339h0l0,0-.009-.013L17.431,9.3c-.027-.039-.067-.094-.118-.164-.1-.14-.251-.337-.442-.573a16.477,16.477,0,0,0-1.619-1.731A8.594,8.594,0,0,0,9.7,4.243ZM3.467,10.074c-.116-.143-.215-.27-.295-.376.08-.106.179-.233.295-.376a15.275,15.275,0,0,1,1.5-1.6A7.415,7.415,0,0,1,9.7,5.455,7.415,7.415,0,0,1,14.43,7.719a15.274,15.274,0,0,1,1.5,1.6c.116.143.214.27.295.376-.08.106-.179.233-.295.376a15.272,15.272,0,0,1-1.5,1.6A7.415,7.415,0,0,1,9.7,13.941a7.415,7.415,0,0,1-4.733-2.264A15.274,15.274,0,0,1,3.467,10.074ZM11.516,9.7A1.818,1.818,0,1,1,9.7,7.88,1.818,1.818,0,0,1,11.516,9.7Zm1.212,0A3.031,3.031,0,1,1,9.7,6.667,3.031,3.031,0,0,1,12.729,9.7Z" transform="translate(564.298 245.302)" fill-rule="evenodd"/>
  </g>
</svg>
