<svg xmlns="http://www.w3.org/2000/svg" width="23" height="20.362" viewBox="0 0 23 20.362">
  <path id="eye_off" d="M98.574-806.711l-.923-.923a2.834,2.834,0,0,0-.86-2.628,2.843,2.843,0,0,0-2.617-.849l-.923-.923a3.126,3.126,0,0,1,.61-.181,3.9,3.9,0,0,1,.719-.06,4.086,4.086,0,0,1,3,1.231,4.086,4.086,0,0,1,1.231,3,4.274,4.274,0,0,1-.06.741A2.236,2.236,0,0,1,98.574-806.711Zm3.664,3.561-.878-.776a12.689,12.689,0,0,0,1.956-1.84,10.311,10.311,0,0,0,1.463-2.274,11.392,11.392,0,0,0-4.158-4.65,11.018,11.018,0,0,0-6.041-1.724,11.662,11.662,0,0,0-1.651.116,11.145,11.145,0,0,0-1.594.348l-.9-.9a10.568,10.568,0,0,1,2.055-.549,13.155,13.155,0,0,1,2.1-.168,12.231,12.231,0,0,1,6.9,2.074,12.306,12.306,0,0,1,4.6,5.459,12.7,12.7,0,0,1-1.574,2.626,13.076,13.076,0,0,1-2.268,2.263Zm1.292,6.281-4.511-4.5a10.548,10.548,0,0,1-1.909.6,11.414,11.414,0,0,1-2.531.26,12.162,12.162,0,0,1-6.9-2.074,12.5,12.5,0,0,1-4.6-5.459,12.264,12.264,0,0,1,1.781-2.876,12.836,12.836,0,0,1,2.36-2.25l-3.232-3.245.82-.82,19.541,19.541ZM88.041-812.345A12.747,12.747,0,0,0,86-810.482a9.478,9.478,0,0,0-1.622,2.443,11.392,11.392,0,0,0,4.158,4.65,11.018,11.018,0,0,0,6.041,1.724,10.734,10.734,0,0,0,2.021-.2,9.452,9.452,0,0,0,1.531-.393l-1.89-1.9a2.682,2.682,0,0,1-.764.253,4.559,4.559,0,0,1-.9.1,4.086,4.086,0,0,1-3-1.231,4.086,4.086,0,0,1-1.231-3,4.311,4.311,0,0,1,.1-.865,3.467,3.467,0,0,1,.253-.8ZM96.347-808.937ZM93.087-807.3Z" transform="translate(-83.08 817.23)" fill="#a6b0c3"/>
</svg>
