<svg xmlns="http://www.w3.org/2000/svg" xmlns:xlink="http://www.w3.org/1999/xlink" width="15" height="15" viewBox="0 0 15 15">
  <defs>
    <clipPath id="clip-path">
      <rect id="사각형_800" data-name="사각형 800" width="15" height="15" transform="translate(641 603)" fill="#3861fb" stroke="#707070" stroke-width="1"/>
    </clipPath>
  </defs>
  <g id="eye_blue" transform="translate(-641 -603)" clip-path="url(#clip-path)">
    <path id="eye-show-svgrepo-com" d="M9.092,3.978A8.057,8.057,0,0,0,3.885,6.4,15.451,15.451,0,0,0,2.367,8.024c-.179.221-.319.406-.414.537-.048.066-.085.118-.11.154l-.029.043L1.8,8.77l0,0L1.6,9.1l.207.308h0l0,0,.008.012.029.043c.025.036.062.088.11.154.1.131.235.316.414.537a15.451,15.451,0,0,0,1.518,1.623,8.057,8.057,0,0,0,5.207,2.423A8.057,8.057,0,0,0,14.3,11.783a15.447,15.447,0,0,0,1.518-1.623c.179-.221.319-.406.415-.537.048-.066.085-.118.11-.154l.029-.043.008-.012,0,0v0l.213-.317-.213-.318h0l0,0-.008-.012-.029-.043c-.025-.036-.062-.088-.11-.154-.1-.131-.235-.316-.415-.537A15.447,15.447,0,0,0,14.3,6.4,8.057,8.057,0,0,0,9.092,3.978ZM3.25,9.445c-.109-.134-.2-.253-.276-.353.075-.1.168-.219.276-.353a14.321,14.321,0,0,1,1.4-1.5A6.951,6.951,0,0,1,9.092,5.114a6.951,6.951,0,0,1,4.437,2.123,14.319,14.319,0,0,1,1.4,1.5c.109.134.2.253.276.353-.075.1-.168.219-.276.353a14.318,14.318,0,0,1-1.4,1.5,6.951,6.951,0,0,1-4.437,2.123,6.951,6.951,0,0,1-4.437-2.123A14.319,14.319,0,0,1,3.25,9.445ZM10.8,9.092a1.7,1.7,0,1,1-1.7-1.7A1.7,1.7,0,0,1,10.8,9.092Zm1.136,0A2.841,2.841,0,1,1,9.092,6.251,2.841,2.841,0,0,1,11.933,9.092Z" transform="translate(639.405 601.408)" fill="#3861fb" fill-rule="evenodd"/>
  </g>
</svg>
