<svg xmlns="http://www.w3.org/2000/svg" width="18.667" height="18.667" viewBox="0 0 18.667 18.667">
  <path id="feed_on" d="M7.932-11.733a1.475,1.475,0,0,1-1.082-.45,1.475,1.475,0,0,1-.45-1.082,1.475,1.475,0,0,1,.45-1.082,1.475,1.475,0,0,1,1.082-.45,1.475,1.475,0,0,1,1.082.45,1.475,1.475,0,0,1,.45,1.082,1.475,1.475,0,0,1-.45,1.082A1.475,1.475,0,0,1,7.932-11.733Zm15.316,0a16.347,16.347,0,0,0-1.324-6.574,17.078,17.078,0,0,0-3.61-5.34,17.081,17.081,0,0,0-5.34-3.61A16.349,16.349,0,0,0,6.4-28.581V-30.4a18.067,18.067,0,0,1,7.275,1.469,18.965,18.965,0,0,1,5.918,4,18.98,18.98,0,0,1,4,5.914,18.055,18.055,0,0,1,1.469,7.28Zm-6.892,0a9.608,9.608,0,0,0-.778-3.873,10.146,10.146,0,0,0-2.147-3.158,10.146,10.146,0,0,0-3.158-2.147A9.608,9.608,0,0,0,6.4-21.689v-1.819a11.475,11.475,0,0,1,4.59.92,12,12,0,0,1,3.745,2.519,11.98,11.98,0,0,1,2.519,3.739,11.475,11.475,0,0,1,.92,4.6Z" transform="translate(-6.4 30.4)"/>
</svg>
