<svg xmlns="http://www.w3.org/2000/svg" xmlns:xlink="http://www.w3.org/1999/xlink" width="24" height="24" viewBox="0 0 24 24">
  <defs>
    <clipPath id="clip-path">
      <rect id="사각형_308" data-name="사각형 308" width="24" height="24" transform="translate(179 1038)" fill="#9aa2b1"/>
    </clipPath>
  </defs>
  <g id="feedbook" transform="translate(-179 -1038)" clip-path="url(#clip-path)">
    <path id="contract_edit_24dp_FFFFFF_FILL0_wght200_GRAD0_opsz24" d="M12.513-20.821v-1.333H23.487v1.333Zm0,3.692v-1.333H23.487v1.333ZM15.8-5.333h0ZM15.8-4H8a2.577,2.577,0,0,1-1.9-.769,2.577,2.577,0,0,1-.769-1.9v-3.692h4V-28H26.667v10.521a4.024,4.024,0,0,0-.683.075,4.385,4.385,0,0,0-.65.186v-9.449H10.667v16.308H17.8L16.462-9.026H6.667v2.359a1.29,1.29,0,0,0,.383.95A1.29,1.29,0,0,0,8-5.333h7.8Zm3.179,0V-6.946l7.11-7.077a1.04,1.04,0,0,1,.41-.267,1.366,1.366,0,0,1,.426-.069,1.246,1.246,0,0,1,.446.086,1.114,1.114,0,0,1,.4.258L29-12.756a1.541,1.541,0,0,1,.25.41,1.127,1.127,0,0,1,.086.425,1.207,1.207,0,0,1-.082.43,1.368,1.368,0,0,1-.254.414L21.921-4Zm9.18-7.921-1.233-1.259Zm-8,6.741h1.267L26.044-9.81l-.626-.633L24.81-11.1,20.154-6.446v1.267Zm5.264-5.264L24.81-11.1,26.044-9.81Z" transform="translate(173.667 1066)" fill="#9aa2b1"/>
  </g>
</svg>
