<svg xmlns="http://www.w3.org/2000/svg" xmlns:xlink="http://www.w3.org/1999/xlink" width="24" height="24" viewBox="0 0 24 24">
  <defs>
    <clipPath id="clip-path">
      <rect id="사각형_307" data-name="사각형 307" width="24" height="24" transform="translate(102 1038)" fill="#9aa2b1"/>
    </clipPath>
  </defs>
  <g id="feed" transform="translate(-102 -1038)" clip-path="url(#clip-path)">
    <path id="rss_feed_24dp_FFFFFF_FILL0_wght200_GRAD0_opsz24" d="M8.369-6.4a1.9,1.9,0,0,1-1.391-.578A1.9,1.9,0,0,1,6.4-8.369,1.9,1.9,0,0,1,6.978-9.76a1.9,1.9,0,0,1,1.391-.578A1.9,1.9,0,0,1,9.76-9.76a1.9,1.9,0,0,1,.578,1.391A1.9,1.9,0,0,1,9.76-6.978,1.9,1.9,0,0,1,8.369-6.4Zm19.692,0a21.018,21.018,0,0,0-1.7-8.452,21.957,21.957,0,0,0-4.642-6.866,21.962,21.962,0,0,0-6.866-4.642,21.02,21.02,0,0,0-8.452-1.7V-30.4a23.229,23.229,0,0,1,9.354,1.889,24.383,24.383,0,0,1,7.609,5.148,24.4,24.4,0,0,1,5.148,7.6A23.214,23.214,0,0,1,30.4-6.4ZM19.2-6.4a12.353,12.353,0,0,0-1-4.98,13.045,13.045,0,0,0-2.76-4.06,13.045,13.045,0,0,0-4.06-2.76,12.353,12.353,0,0,0-4.98-1v-2.338a14.753,14.753,0,0,1,5.9,1.182,15.43,15.43,0,0,1,4.816,3.239,15.4,15.4,0,0,1,3.239,4.807A14.753,14.753,0,0,1,21.538-6.4Z" transform="translate(95.6 1068.4)" fill="#9aa2b1"/>
  </g>
</svg>
