<svg xmlns="http://www.w3.org/2000/svg" xmlns:xlink="http://www.w3.org/1999/xlink" width="12" height="11" viewBox="0 0 12 11">
  <defs>
    <clipPath id="clip-path">
      <rect id="사각형_161" data-name="사각형 161" width="12" height="11" transform="translate(1535 601.5)" fill="#616e85"/>
    </clipPath>
  </defs>
  <g id="filter" transform="translate(-1535 -601.5)" clip-path="url(#clip-path)">
    <path id="equalizer-line" d="M3.894,10.4a1.651,1.651,0,0,1,3.112,0H12.6v1.1H7.006a1.651,1.651,0,0,1-3.112,0H1.6V10.4Zm3.3-3.85a1.651,1.651,0,0,1,3.112,0H12.6v1.1H10.306a1.651,1.651,0,0,1-3.112,0H1.6V6.55ZM3.894,2.7a1.651,1.651,0,0,1,3.112,0H12.6V3.8H7.006a1.651,1.651,0,0,1-3.112,0H1.6V2.7ZM5.45,3.8a.55.55,0,1,0-.55-.55A.55.55,0,0,0,5.45,3.8Zm3.3,3.85A.55.55,0,1,0,8.2,7.1.55.55,0,0,0,8.75,7.65ZM5.45,11.5a.55.55,0,1,0-.55-.55A.55.55,0,0,0,5.45,11.5Z" transform="translate(1534.043 599.9)" fill="#616e85"/>
  </g>
</svg>
