<svg xmlns="http://www.w3.org/2000/svg" xmlns:xlink="http://www.w3.org/1999/xlink" width="16" height="16" viewBox="0 0 16 16">
  <defs>
    <clipPath id="clip-path">
      <rect id="사각형_34" data-name="사각형 34" width="16" height="16" transform="translate(498 247)" fill="#9d9d9d"/>
    </clipPath>
  </defs>
  <g id="fire_on" transform="translate(-498 -247)" clip-path="url(#clip-path)">
    <path id="fire-line" d="M8.93,17.116a5.581,5.581,0,0,0,5.581-5.581A5.616,5.616,0,0,0,14.14,9.7q-1.861,1.838-2.828,1.838c2.973-5.209,1.34-7.442-3.126-10.419.372,3.721-2.081,5.413-3.08,6.353A5.581,5.581,0,0,0,8.93,17.116ZM9.458,3.9c2.412,2.047,2.424,3.637.561,6.9a1.488,1.488,0,0,0,1.293,2.226,3.318,3.318,0,0,0,1.577-.443A4.094,4.094,0,1,1,6.126,8.553c.094-.088.569-.51.59-.528.315-.284.575-.534.832-.809A7.8,7.8,0,0,0,9.458,3.9Z" transform="translate(497.07 245.884)"/>
  </g>
</svg>
