<svg xmlns="http://www.w3.org/2000/svg" width="32" height="23.208" viewBox="0 0 32 23.208">
  <path id="folder_open" d="M6.576-6.962a2.612,2.612,0,0,1-1.918-.79,2.612,2.612,0,0,1-.79-1.918v-17.7A2.686,2.686,0,0,1,4.7-29.335a2.686,2.686,0,0,1,1.962-.835h8.494l3.094,3.094H30.468a2.6,2.6,0,0,1,1.791.671,2.56,2.56,0,0,1,.872,1.65H6.189v15a.419.419,0,0,0,.082.268.7.7,0,0,0,.215.179L10.1-21.363H35.868L32.122-8.884a2.614,2.614,0,0,1-.992,1.4,2.694,2.694,0,0,1-1.614.525Z" transform="translate(-3.868 30.17)" fill="#fff"/>
</svg>
