<svg xmlns="http://www.w3.org/2000/svg" width="13" height="12.679" viewBox="0 0 13 12.679">
  <g id="github" transform="translate(-310 -493.16)">
    <path id="github-fill" d="M8.1,1.6A6.5,6.5,0,0,0,6.045,14.267c.325.057.447-.138.447-.309,0-.154-.008-.666-.008-1.211-1.633.3-2.056-.4-2.186-.764a2.364,2.364,0,0,0-.666-.918c-.227-.122-.552-.423-.008-.431a1.3,1.3,0,0,1,1,.666,1.389,1.389,0,0,0,1.893.536,1.367,1.367,0,0,1,.414-.869c-1.446-.163-2.958-.723-2.958-3.209A2.53,2.53,0,0,1,4.64,6.012,2.336,2.336,0,0,1,4.7,4.289s.544-.171,1.787.666a6.128,6.128,0,0,1,3.25,0c1.243-.845,1.787-.666,1.787-.666a2.336,2.336,0,0,1,.065,1.722,2.515,2.515,0,0,1,.666,1.747c0,2.494-1.519,3.047-2.966,3.209a1.539,1.539,0,0,1,.439,1.2c0,.869-.008,1.568-.008,1.787,0,.171.122.374.447.309A6.5,6.5,0,0,0,8.1,1.6Z" transform="translate(308.399 491.56)"/>
  </g>
</svg>
