<svg xmlns="http://www.w3.org/2000/svg" width="13" height="11.724" viewBox="0 0 13 11.724">
  <path id="good_off" d="M1.227,5.371H3v7.091H1.227a.591.591,0,0,1-.591-.591V5.962A.591.591,0,0,1,1.227,5.371Zm3.128-.764L8.137.825A.3.3,0,0,1,8.523.8l.5.378a.886.886,0,0,1,.327.928L8.673,4.78h3.782a1.182,1.182,0,0,1,1.182,1.182V7.205a1.182,1.182,0,0,1-.089.45L11.719,12.1a.591.591,0,0,1-.546.366h-6.4a.591.591,0,0,1-.591-.591V5.025A.591.591,0,0,1,4.355,4.607Z" transform="translate(-0.636 -0.738)" fill="#a6b0c3"/>
</svg>
