<svg xmlns="http://www.w3.org/2000/svg" width="20" height="20" viewBox="0 0 20 20">
  <g id="Google__G__logo" transform="translate(-0.909 -0.909)">
    <path id="패스_220" data-name="패스 220" d="M20.509,11.136a11.49,11.49,0,0,0-.182-2.045H10.909v3.873h5.382a4.611,4.611,0,0,1-2.009,3.009v2.518h3.245a9.77,9.77,0,0,0,2.982-7.355Z" fill="#4285f4"/>
    <path id="패스_221" data-name="패스 221" d="M10.909,20.909a9.544,9.544,0,0,0,6.618-2.418l-3.245-2.518a6.012,6.012,0,0,1-8.973-3.155H1.982V15.4A9.991,9.991,0,0,0,10.909,20.909Z" fill="#34a853"/>
    <path id="패스_222" data-name="패스 222" d="M5.309,12.809a5.832,5.832,0,0,1,0-3.8V6.427H1.982a9.9,9.9,0,0,0,0,8.964l2.591-2.018.736-.564Z" fill="#fbbc05"/>
    <path id="패스_223" data-name="패스 223" d="M10.909,4.891a5.456,5.456,0,0,1,3.827,1.491L17.6,3.518A9.594,9.594,0,0,0,10.909.909,9.982,9.982,0,0,0,1.982,6.427L5.309,9.009a5.97,5.97,0,0,1,5.6-4.118Z" fill="#ea4335"/>
    <path id="패스_224" data-name="패스 224" d="M.909.909h20v20h-20Z" fill="none"/>
  </g>
</svg>
