<svg xmlns="http://www.w3.org/2000/svg" width="14" height="14" viewBox="0 0 14 14">
  <path id="help" d="M8.834-4.7a.725.725,0,0,0,.533-.218.726.726,0,0,0,.218-.534.724.724,0,0,0-.218-.533.726.726,0,0,0-.533-.217.724.724,0,0,0-.533.218.726.726,0,0,0-.218.533.724.724,0,0,0,.218.533A.726.726,0,0,0,8.834-4.7ZM8.312-7.343H9.349a2.315,2.315,0,0,1,.159-.869,3.226,3.226,0,0,1,.7-.862,5.3,5.3,0,0,0,.745-.9,1.789,1.789,0,0,0,.259-.972,1.781,1.781,0,0,0-.684-1.486,2.548,2.548,0,0,0-1.618-.535,2.338,2.338,0,0,0-1.527.492,2.777,2.777,0,0,0-.862,1.16l.946.38a2.13,2.13,0,0,1,.461-.715A1.264,1.264,0,0,1,8.9-12a1.215,1.215,0,0,1,.966.358,1.171,1.171,0,0,1,.313.787,1.188,1.188,0,0,1-.214.687,3.261,3.261,0,0,1-.545.6A4.12,4.12,0,0,0,8.5-8.518a2.774,2.774,0,0,0-.191,1.175Zm.531,5.5a6.819,6.819,0,0,1-2.73-.551,7.07,7.07,0,0,1-2.223-1.5,7.07,7.07,0,0,1-1.5-2.222,6.813,6.813,0,0,1-.551-2.729,6.819,6.819,0,0,1,.551-2.73,7.07,7.07,0,0,1,1.5-2.223,7.07,7.07,0,0,1,2.222-1.5,6.813,6.813,0,0,1,2.729-.551,6.819,6.819,0,0,1,2.73.551,7.07,7.07,0,0,1,2.223,1.5,7.07,7.07,0,0,1,1.5,2.222,6.813,6.813,0,0,1,.551,2.729,6.819,6.819,0,0,1-.551,2.73,7.07,7.07,0,0,1-1.5,2.223,7.07,7.07,0,0,1-2.222,1.5A6.813,6.813,0,0,1,8.843-1.842Zm0-1.105a5.689,5.689,0,0,0,4.182-1.713,5.689,5.689,0,0,0,1.713-4.182,5.689,5.689,0,0,0-1.713-4.182,5.689,5.689,0,0,0-4.182-1.713,5.689,5.689,0,0,0-4.182,1.713A5.689,5.689,0,0,0,2.947-8.842,5.689,5.689,0,0,0,4.661-4.661,5.689,5.689,0,0,0,8.842-2.947ZM8.842-8.842Z" transform="translate(-1.842 15.842)" fill="#929aab"/>
</svg>
