<svg xmlns="http://www.w3.org/2000/svg" xmlns:xlink="http://www.w3.org/1999/xlink" width="15" height="15" viewBox="0 0 15 15">
  <defs>
    <clipPath id="clip-path">
      <rect id="사각형_1041" data-name="사각형 1041" width="15" height="15" fill="#828991" stroke="#707070" stroke-width="1"/>
    </clipPath>
  </defs>
  <g id="icon2" clip-path="url(#clip-path)">
    <path id="description_24dp_434343_FILL0_wght300_GRAD0_opsz24" d="M13.968-1.974a1.378,1.378,0,0,0,1.013-.414A1.378,1.378,0,0,0,15.395-3.4V-15.547a1.378,1.378,0,0,0-.414-1.013,1.378,1.378,0,0,0-1.013-.414H7.7L3.553-12.829V-3.4a1.378,1.378,0,0,0,.414,1.013,1.378,1.378,0,0,0,1.013.414ZM8.289-12.237v-3.553h5.678a.232.232,0,0,1,.167.076.232.232,0,0,1,.076.167V-3.4a.232.232,0,0,1-.076.167.232.232,0,0,1-.167.076H4.98a.232.232,0,0,1-.167-.076A.232.232,0,0,1,4.737-3.4v-8.836Zm5.921-3.553v0Z" transform="translate(-1.974 16.974)" fill="#828991"/>
  </g>
</svg>
