<svg xmlns="http://www.w3.org/2000/svg" xmlns:xlink="http://www.w3.org/1999/xlink" width="15" height="15" viewBox="0 0 15 15">
  <defs>
    <clipPath id="clip-path">
      <rect id="사각형_1042" data-name="사각형 1042" width="15" height="15" transform="translate(6244 -214)" fill="#828991" stroke="#707070" stroke-width="1"/>
    </clipPath>
  </defs>
  <g id="icon3" transform="translate(-6244 214)" clip-path="url(#clip-path)">
    <path id="info_24dp_434343_FILL0_wght400_GRAD0_opsz24" d="M8.25-5.25h1.5v-4.5H8.25Zm.75-6a.726.726,0,0,0,.534-.216A.726.726,0,0,0,9.75-12a.726.726,0,0,0-.216-.534A.726.726,0,0,0,9-12.75a.726.726,0,0,0-.534.216A.726.726,0,0,0,8.25-12a.726.726,0,0,0,.216.534A.726.726,0,0,0,9-11.25ZM9-1.5a7.3,7.3,0,0,1-2.925-.591,7.574,7.574,0,0,1-2.381-1.6,7.574,7.574,0,0,1-1.6-2.381A7.3,7.3,0,0,1,1.5-9a7.3,7.3,0,0,1,.591-2.925,7.574,7.574,0,0,1,1.6-2.381,7.574,7.574,0,0,1,2.381-1.6A7.3,7.3,0,0,1,9-16.5a7.3,7.3,0,0,1,2.925.591,7.574,7.574,0,0,1,2.381,1.6,7.574,7.574,0,0,1,1.6,2.381A7.3,7.3,0,0,1,16.5-9a7.3,7.3,0,0,1-.591,2.925,7.574,7.574,0,0,1-1.6,2.381,7.574,7.574,0,0,1-2.381,1.6A7.3,7.3,0,0,1,9-1.5ZM9-3a5.791,5.791,0,0,0,4.256-1.744A5.791,5.791,0,0,0,15-9a5.791,5.791,0,0,0-1.744-4.256A5.791,5.791,0,0,0,9-15a5.791,5.791,0,0,0-4.256,1.744A5.791,5.791,0,0,0,3-9,5.791,5.791,0,0,0,4.744-4.744,5.791,5.791,0,0,0,9-3ZM9-9Z" transform="translate(6242.5 -197.5)" fill="#828991"/>
  </g>
</svg>
