<svg xmlns="http://www.w3.org/2000/svg" xmlns:xlink="http://www.w3.org/1999/xlink" width="16" height="16" viewBox="0 0 16 16">
  <defs>
    <clipPath id="clip-path">
      <rect id="사각형_1121" data-name="사각형 1121" width="16" height="16" transform="translate(115 205)" fill="#808a9d" stroke="#707070" stroke-width="1"/>
    </clipPath>
  </defs>
  <g id="icon3" transform="translate(-115 -205)" clip-path="url(#clip-path)">
    <path id="twitter-fill" d="M17.435,4.44a6.581,6.581,0,0,1-1.885.517A3.293,3.293,0,0,0,16.993,3.14a6.55,6.55,0,0,1-2.084.8A3.284,3.284,0,0,0,9.23,6.183a3.337,3.337,0,0,0,.085.747A9.32,9.32,0,0,1,2.548,3.5,3.287,3.287,0,0,0,3.565,7.883a3.272,3.272,0,0,1-1.487-.411c0,.014,0,.028,0,.041a3.285,3.285,0,0,0,2.634,3.219,3.323,3.323,0,0,1-1.483.057,3.285,3.285,0,0,0,3.067,2.279,6.622,6.622,0,0,1-4.86,1.359A9.286,9.286,0,0,0,6.466,15.9a9.276,9.276,0,0,0,9.34-9.34c0-.142,0-.284-.01-.425A6.67,6.67,0,0,0,17.435,4.44Z" transform="translate(113.565 203.599)" fill="#808a9d"/>
  </g>
</svg>
