<svg xmlns="http://www.w3.org/2000/svg" width="15.931" height="16" viewBox="0 0 15.931 16">
  <g id="icon2" transform="translate(-0.035)">
    <path id="settings_backup_restore_24dp_FFFFFF_FILL1_wght200_GRAD0_opsz24" d="M12.031-4a7.766,7.766,0,0,0,5.314-2,7.666,7.666,0,0,0,2.617-5H18.95a6.986,6.986,0,0,1-2.359,4.29A6.7,6.7,0,0,1,12.031-5,6.754,6.754,0,0,1,7.068-7.037,6.754,6.754,0,0,1,5.031-12a6.754,6.754,0,0,1,2.038-4.962A6.754,6.754,0,0,1,12.031-19a6.651,6.651,0,0,1,2.917.656,7.782,7.782,0,0,1,2.41,1.806H14.877v1h4.154v-4.154h-1V-17.3a8.309,8.309,0,0,0-2.718-1.985A7.813,7.813,0,0,0,12.031-20a7.8,7.8,0,0,0-3.119.626A8.068,8.068,0,0,0,6.37-17.661a8.069,8.069,0,0,0-1.714,2.541A7.8,7.8,0,0,0,4.031-12a7.807,7.807,0,0,0,.626,3.119A8.066,8.066,0,0,0,6.37-6.34,8.069,8.069,0,0,0,8.912-4.626,7.8,7.8,0,0,0,12.031-4Z" transform="translate(-3.996 20)" fill="#828991"/>
  </g>
</svg>
