<svg xmlns="http://www.w3.org/2000/svg" width="10.533" height="10.533" viewBox="0 0 10.533 10.533">
  <g id="icon_off" transform="translate(-257.333 -199.667)">
    <path id="all" d="M6.511-14.957h-2.1a1.081,1.081,0,0,1-.795-.325,1.081,1.081,0,0,1-.325-.795v-2.1a1.081,1.081,0,0,1,.325-.795,1.081,1.081,0,0,1,.795-.325h2.1a1.081,1.081,0,0,1,.795.325,1.081,1.081,0,0,1,.325.795v2.1a1.081,1.081,0,0,1-.325.795A1.081,1.081,0,0,1,6.511-14.957Zm-2.1-.929h2.1a.186.186,0,0,0,.137-.054.186.186,0,0,0,.054-.137v-2.1a.186.186,0,0,0-.054-.137.186.186,0,0,0-.137-.054h-2.1a.186.186,0,0,0-.137.054.186.186,0,0,0-.054.137v2.1a.186.186,0,0,0,.054.137A.186.186,0,0,0,4.414-15.886Zm2.1,7.125h-2.1a1.081,1.081,0,0,1-.795-.325,1.081,1.081,0,0,1-.325-.795v-2.1a1.081,1.081,0,0,1,.325-.795,1.081,1.081,0,0,1,.795-.325h2.1a1.081,1.081,0,0,1,.795.325,1.081,1.081,0,0,1,.325.795v2.1a1.081,1.081,0,0,1-.325.795A1.081,1.081,0,0,1,6.511-8.761Zm-2.1-.929h2.1a.186.186,0,0,0,.137-.054A.186.186,0,0,0,6.7-9.881v-2.1a.186.186,0,0,0-.054-.137.186.186,0,0,0-.137-.054h-2.1a.186.186,0,0,0-.137.054.186.186,0,0,0-.054.137v2.1a.186.186,0,0,0,.054.137.186.186,0,0,0,.137.054Zm8.293-5.267h-2.1a1.081,1.081,0,0,1-.795-.325,1.081,1.081,0,0,1-.325-.795v-2.1a1.081,1.081,0,0,1,.325-.795,1.081,1.081,0,0,1,.795-.325h2.1a1.081,1.081,0,0,1,.795.325,1.081,1.081,0,0,1,.325.795v2.1a1.081,1.081,0,0,1-.325.795A1.081,1.081,0,0,1,12.707-14.957Zm-2.1-.929h2.1a.186.186,0,0,0,.137-.054.186.186,0,0,0,.054-.137v-2.1a.186.186,0,0,0-.054-.137.186.186,0,0,0-.137-.054h-2.1a.186.186,0,0,0-.137.054.186.186,0,0,0-.054.137v2.1a.186.186,0,0,0,.054.137A.186.186,0,0,0,10.61-15.886Zm2.1,7.125h-2.1a1.081,1.081,0,0,1-.795-.325,1.081,1.081,0,0,1-.325-.795v-2.1a1.081,1.081,0,0,1,.325-.795,1.081,1.081,0,0,1,.795-.325h2.1a1.081,1.081,0,0,1,.795.325,1.081,1.081,0,0,1,.325.795v2.1a1.081,1.081,0,0,1-.325.795A1.081,1.081,0,0,1,12.707-8.761Zm-2.1-.929h2.1a.186.186,0,0,0,.137-.054.186.186,0,0,0,.054-.137v-2.1a.186.186,0,0,0-.054-.137.186.186,0,0,0-.137-.054h-2.1a.186.186,0,0,0-.137.054.186.186,0,0,0-.054.137v2.1a.186.186,0,0,0,.054.137.186.186,0,0,0,.137.054ZM6.7-15.886ZM6.7-12.169ZM10.42-15.886ZM10.42-12.169Z" transform="translate(254.039 218.961)" fill="#96a0af"/>
  </g>
</svg>
