<svg xmlns="http://www.w3.org/2000/svg" xmlns:xlink="http://www.w3.org/1999/xlink" width="12" height="12" viewBox="0 0 12 12">
  <defs>
    <clipPath id="clip-path">
      <rect id="사각형_1108" data-name="사각형 1108" width="12" height="12" transform="translate(17 81)" fill="#b7bbba"/>
    </clipPath>
  </defs>
  <g id="icon1" transform="translate(-17 -81)" clip-path="url(#clip-path)">
    <path id="apps_24dp_FFFFFF_FILL1_wght200_GRAD0_opsz24" d="M4.979-3.957a.983.983,0,0,1-.721-.3.983.983,0,0,1-.3-.721.983.983,0,0,1,.3-.721A.983.983,0,0,1,4.979-6a.983.983,0,0,1,.721.3.983.983,0,0,1,.3.721.983.983,0,0,1-.3.721A.983.983,0,0,1,4.979-3.957Zm4.979,0a.983.983,0,0,1-.721-.3.983.983,0,0,1-.3-.721.983.983,0,0,1,.3-.721A.983.983,0,0,1,9.957-6a.983.983,0,0,1,.721.3.983.983,0,0,1,.3.721.983.983,0,0,1-.3.721.983.983,0,0,1-.721.3Zm4.979,0a.983.983,0,0,1-.721-.3.983.983,0,0,1-.3-.721.983.983,0,0,1,.3-.721.983.983,0,0,1,.721-.3.983.983,0,0,1,.721.3.983.983,0,0,1,.3.721.983.983,0,0,1-.3.721A.983.983,0,0,1,14.936-3.957ZM4.979-8.936a.983.983,0,0,1-.721-.3.983.983,0,0,1-.3-.721.983.983,0,0,1,.3-.721.983.983,0,0,1,.721-.3.983.983,0,0,1,.721.3.983.983,0,0,1,.3.721.983.983,0,0,1-.3.721A.983.983,0,0,1,4.979-8.936Zm4.979,0a.983.983,0,0,1-.721-.3.983.983,0,0,1-.3-.721.983.983,0,0,1,.3-.721.983.983,0,0,1,.721-.3.983.983,0,0,1,.721.3.983.983,0,0,1,.3.721.983.983,0,0,1-.3.721.983.983,0,0,1-.721.3Zm4.979,0a.983.983,0,0,1-.721-.3.983.983,0,0,1-.3-.721.983.983,0,0,1,.3-.721.983.983,0,0,1,.721-.3.983.983,0,0,1,.721.3.983.983,0,0,1,.3.721.983.983,0,0,1-.3.721A.983.983,0,0,1,14.936-8.936ZM4.979-13.915a.983.983,0,0,1-.721-.3.983.983,0,0,1-.3-.721.983.983,0,0,1,.3-.721.983.983,0,0,1,.721-.3.983.983,0,0,1,.721.3.983.983,0,0,1,.3.721.983.983,0,0,1-.3.721A.983.983,0,0,1,4.979-13.915Zm4.979,0a.983.983,0,0,1-.721-.3.983.983,0,0,1-.3-.721.983.983,0,0,1,.3-.721.983.983,0,0,1,.721-.3.983.983,0,0,1,.721.3.983.983,0,0,1,.3.721.983.983,0,0,1-.3.721.983.983,0,0,1-.721.3Zm4.979,0a.983.983,0,0,1-.721-.3.983.983,0,0,1-.3-.721.983.983,0,0,1,.3-.721.983.983,0,0,1,.721-.3.983.983,0,0,1,.721.3.983.983,0,0,1,.3.721.983.983,0,0,1-.3.721A.983.983,0,0,1,14.936-13.915Z" transform="translate(13.042 96.957)" fill="#b7bbba"/>
  </g>
</svg>
