<svg xmlns="http://www.w3.org/2000/svg" width="20" height="20" viewBox="0 0 20 20">
  <path id="instagram" d="M13.029,2c1.125,0,1.7.008,2.189.022l.194.006c.224.008.445.018.712.03a7.358,7.358,0,0,1,2.428.465,4.872,4.872,0,0,1,1.772,1.153A4.908,4.908,0,0,1,21.476,5.45a7.4,7.4,0,0,1,.465,2.428c.012.267.022.488.029.712l.006.194c.015.493.021,1.063.023,2.189v.746q0,.137,0,.282v1.028c0,1.125-.008,1.7-.022,2.189l-.006.194c-.008.224-.018.446-.03.712a7.381,7.381,0,0,1-.465,2.428,5.111,5.111,0,0,1-2.925,2.925,7.4,7.4,0,0,1-2.428.465c-.267.012-.488.022-.712.029l-.194.006c-.493.015-1.063.021-2.189.024H10.973c-1.125,0-1.7-.008-2.189-.022l-.194-.006c-.224-.008-.445-.018-.712-.031a7.381,7.381,0,0,1-2.428-.465,5.11,5.11,0,0,1-2.925-2.925,7.378,7.378,0,0,1-.465-2.428c-.012-.267-.022-.488-.029-.712l-.006-.194C2.01,14.724,2,14.154,2,13.028V10.973c0-1.125.008-1.7.022-2.189L2.03,8.59c.008-.224.018-.445.03-.712A7.352,7.352,0,0,1,2.525,5.45,4.879,4.879,0,0,1,3.679,3.678,4.9,4.9,0,0,1,5.45,2.525,7.374,7.374,0,0,1,7.878,2.06c.267-.012.488-.022.712-.029l.194-.006C9.277,2.01,9.847,2,10.973,2ZM12,7a5,5,0,1,0,5,5A5,5,0,0,0,12,7Zm0,2a3,3,0,1,1-3,3A3,3,0,0,1,12,9Zm5.25-3.5A1.25,1.25,0,1,0,18.5,6.749,1.251,1.251,0,0,0,17.251,5.5Z" transform="translate(-2.001 -2.001)"/>
</svg>
