<svg xmlns="http://www.w3.org/2000/svg" width="25.404" height="17" viewBox="0 0 25.404 17">
  <g id="korean_icon" transform="translate(0 0)">
    <rect id="사각형_216" data-name="사각형 216" width="25.404" height="17" transform="translate(0 0)" fill="#fff"/>
    <path id="패스_119" data-name="패스 119" d="M94.523,54.124l.563.357L94,55.988l-.558-.354Z" transform="translate(-73.594 -42.626)" fill-rule="evenodd"/>
    <path id="패스_120" data-name="패스 120" d="M88.5,62.593l.563.357L87.98,64.456l-.557-.354Z" transform="translate(-68.85 -49.296)" fill-rule="evenodd"/>
    <path id="패스_121" data-name="패스 121" d="M90.388,51.481l.561.356-1.08,1.506-.558-.351Z" transform="translate(-70.336 -40.544)" fill-rule="evenodd"/>
    <path id="패스_122" data-name="패스 122" d="M84.367,59.944l.561.357-1.081,1.506-.559-.353Z" transform="translate(-65.595 -47.21)" fill-rule="evenodd"/>
    <path id="패스_123" data-name="패스 123" d="M20.761,10.922l.563.357-2.329,3.3-.581-.366Z" transform="translate(-14.502 -8.602)" fill-rule="evenodd"/>
    <path id="패스_124" data-name="패스 124" d="M24.894,13.505l.561.357-2.329,3.3-.581-.365Z" transform="translate(-17.755 -10.636)" fill-rule="evenodd"/>
    <path id="패스_125" data-name="패스 125" d="M29.049,16.084l.561.357-2.328,3.3-.582-.366Z" transform="translate(-21.028 -12.667)" fill-rule="evenodd"/>
    <path id="패스_126" data-name="패스 126" d="M83.841,13.505l-.563.357,2.33,3.3.581-.365Z" transform="translate(-65.586 -10.636)" fill-rule="evenodd"/>
    <path id="패스_127" data-name="패스 127" d="M79.687,16.084l-.562.357,1.082,1.506.557-.355Z" transform="translate(-62.315 -12.667)" fill-rule="evenodd"/>
    <path id="패스_128" data-name="패스 128" d="M85.713,24.552l-.561.357,1.08,1.506.558-.352Z" transform="translate(-67.062 -19.336)" fill-rule="evenodd"/>
    <path id="패스_129" data-name="패스 129" d="M88.041,10.91l-.559.358,1.077,1.5.554-.351Z" transform="translate(-68.897 -8.593)" fill-rule="evenodd"/>
    <path id="패스_130" data-name="패스 130" d="M94.035,19.352l-.561.356,1.077,1.5.556-.352Z" transform="translate(-73.616 -15.241)" fill-rule="evenodd"/>
    <path id="패스_131" data-name="패스 131" d="M86.2,48.963l.559.356-1.076,1.5-.556-.35Z" transform="translate(-67.04 -38.561)" fill-rule="evenodd"/>
    <path id="패스_132" data-name="패스 132" d="M80.2,57.393l.561.354-1.078,1.5-.555-.349Z" transform="translate(-62.315 -45.2)" fill-rule="evenodd"/>
    <path id="패스_133" data-name="패스 133" d="M23.107,51.541l-.561.355L23.627,53.4l.557-.354Z" transform="translate(-17.755 -40.592)" fill-rule="evenodd"/>
    <path id="패스_134" data-name="패스 134" d="M29.128,60.01l-.562.356,1.082,1.506.559-.352Z" transform="translate(-22.498 -47.261)" fill-rule="evenodd"/>
    <path id="패스_135" data-name="패스 135" d="M27.3,48.919l-.563.355,2.331,3.3.581-.365Z" transform="translate(-21.06 -38.527)" fill-rule="evenodd"/>
    <path id="패스_136" data-name="패스 136" d="M19.022,54.108l-.562.356,2.329,3.3.583-.366Z" transform="translate(-14.538 -42.613)" fill-rule="evenodd"/>
    <g id="그룹_47" data-name="그룹 47" transform="translate(0 0)">
      <g id="그룹_222" data-name="그룹 222" transform="translate(0 0)">
        <path id="패스_137" data-name="패스 137" d="M48.965,38.323a3.976,3.976,0,0,1-7.878-.768,4.188,4.188,0,0,1,.05-.638,1.986,1.986,0,0,0,.679,1.054,2.22,2.22,0,0,0,.822.423,2.243,2.243,0,0,0,.948.065,2.414,2.414,0,0,0,1.536-.9,2.364,2.364,0,0,1,1.551-.9,2.016,2.016,0,0,1,.825.069,2.058,2.058,0,0,1,.727.385,2.189,2.189,0,0,1,.742,1.211" transform="translate(-32.358 -28.858)" fill="#0161ad" fill-rule="evenodd"/>
        <path id="패스_138" data-name="패스 138" d="M45.239,22.409a3.977,3.977,0,0,1,3.976,3.978,4.053,4.053,0,0,1-.066.726,2.178,2.178,0,0,0-.738-1.182,2.089,2.089,0,0,0-1.566-.46,2.383,2.383,0,0,0-1.559.907,2.408,2.408,0,0,1-1.526.894,2.245,2.245,0,0,1-.939-.064,2.085,2.085,0,0,1-1.5-1.5,3.983,3.983,0,0,1,3.919-3.3" transform="translate(-32.542 -17.648)" fill="#e72300" fill-rule="evenodd"/>
      </g>
    </g>
  </g>
</svg>
