<svg xmlns="http://www.w3.org/2000/svg" width="15" height="10.038" viewBox="0 0 15 10.038">
  <g id="korean_icon_M" transform="translate(0 0)">
    <rect id="사각형_216" data-name="사각형 216" width="15" height="10.038" transform="translate(0 0)" fill="#fff"/>
    <path id="패스_119" data-name="패스 119" d="M94.082,54.124l.332.211-.638.89-.33-.209Z" transform="translate(-81.724 -47.335)" fill-rule="evenodd"/>
    <path id="패스_120" data-name="패스 120" d="M88.059,62.593l.332.211-.639.889-.329-.209Z" transform="translate(-76.456 -54.742)" fill-rule="evenodd"/>
    <path id="패스_121" data-name="패스 121" d="M89.946,51.481l.331.21-.638.889-.33-.207Z" transform="translate(-78.107 -45.023)" fill-rule="evenodd"/>
    <path id="패스_122" data-name="패스 122" d="M83.926,59.944l.332.211-.638.889-.33-.208Z" transform="translate(-72.842 -52.425)" fill-rule="evenodd"/>
    <path id="패스_123" data-name="패스 123" d="M19.8,10.922l.332.211-1.375,1.949-.343-.216Z" transform="translate(-16.104 -9.552)" fill-rule="evenodd"/>
    <path id="패스_124" data-name="패스 124" d="M23.932,13.505l.332.211-1.375,1.949-.343-.216Z" transform="translate(-19.717 -11.812)" fill-rule="evenodd"/>
    <path id="패스_125" data-name="패스 125" d="M28.087,16.084l.332.211-1.375,1.949-.343-.216Z" transform="translate(-23.351 -14.066)" fill-rule="evenodd"/>
    <path id="패스_126" data-name="패스 126" d="M83.61,13.505l-.333.211,1.376,1.949L85,15.449Z" transform="translate(-72.831 -11.812)" fill-rule="evenodd"/>
    <path id="패스_127" data-name="패스 127" d="M79.457,16.084l-.332.211.639.889.329-.209Z" transform="translate(-69.2 -14.066)" fill-rule="evenodd"/>
    <path id="패스_128" data-name="패스 128" d="M85.483,24.552l-.331.211.638.889.33-.208Z" transform="translate(-74.47 -21.473)" fill-rule="evenodd"/>
    <path id="패스_129" data-name="패스 129" d="M87.812,10.91l-.33.212.636.884.327-.207Z" transform="translate(-76.508 -9.542)" fill-rule="evenodd"/>
    <path id="패스_130" data-name="패스 130" d="M93.805,19.352l-.332.21.636.885.329-.208Z" transform="translate(-81.749 -16.925)" fill-rule="evenodd"/>
    <path id="패스_131" data-name="패스 131" d="M85.758,48.963l.33.21-.636.884-.328-.207Z" transform="translate(-74.447 -42.821)" fill-rule="evenodd"/>
    <path id="패스_132" data-name="패스 132" d="M79.758,57.393l.331.209-.637.886-.328-.206Z" transform="translate(-69.199 -50.194)" fill-rule="evenodd"/>
    <path id="패스_133" data-name="패스 133" d="M22.877,51.541l-.332.209.639.89.329-.209Z" transform="translate(-19.717 -45.076)" fill-rule="evenodd"/>
    <path id="패스_134" data-name="패스 134" d="M28.9,60.01l-.332.21.639.889.33-.208Z" transform="translate(-24.983 -52.482)" fill-rule="evenodd"/>
    <path id="패스_135" data-name="패스 135" d="M27.073,48.919l-.333.209,1.376,1.949.343-.216Z" transform="translate(-23.386 -42.783)" fill-rule="evenodd"/>
    <path id="패스_136" data-name="패스 136" d="M18.792,54.108l-.332.21,1.375,1.949.344-.216Z" transform="translate(-16.144 -47.321)" fill-rule="evenodd"/>
    <g id="그룹_47" data-name="그룹 47" transform="translate(5.154 2.811)">
      <g id="그룹_222" data-name="그룹 222">
        <path id="패스_137" data-name="패스 137" d="M45.739,37.635a2.348,2.348,0,0,1-4.652-.454,2.473,2.473,0,0,1,.029-.377,1.173,1.173,0,0,0,.4.622,1.311,1.311,0,0,0,.485.25,1.325,1.325,0,0,0,.559.038,1.426,1.426,0,0,0,.907-.532,1.4,1.4,0,0,1,.916-.531,1.19,1.19,0,0,1,.487.041,1.215,1.215,0,0,1,.429.227,1.293,1.293,0,0,1,.438.715" transform="translate(-41.087 -34.857)" fill="#0161ad" fill-rule="evenodd"/>
        <path id="패스_138" data-name="패스 138" d="M43.634,22.409a2.348,2.348,0,0,1,2.347,2.349,2.393,2.393,0,0,1-.039.429,1.286,1.286,0,0,0-.436-.7,1.234,1.234,0,0,0-.925-.272,1.407,1.407,0,0,0-.921.536,1.422,1.422,0,0,1-.9.528,1.326,1.326,0,0,1-.554-.038,1.231,1.231,0,0,1-.885-.887,2.352,2.352,0,0,1,2.314-1.947" transform="translate(-41.291 -22.409)" fill="#e72300" fill-rule="evenodd"/>
      </g>
    </g>
  </g>
</svg>
