<svg xmlns="http://www.w3.org/2000/svg" width="12.8" height="12.8" viewBox="0 0 12.8 12.8">
  <g id="language" transform="translate(-213 -483)">
    <path id="language_24dp_434343_FILL0_wght300_GRAD0_opsz24" d="M8.505-5.305a6.2,6.2,0,0,1-2.484-.5A6.488,6.488,0,0,1,3.984-7.184,6.488,6.488,0,0,1,2.61-9.221a6.2,6.2,0,0,1-.5-2.484,6.185,6.185,0,0,1,.5-2.489,6.5,6.5,0,0,1,1.374-2.032A6.488,6.488,0,0,1,6.021-17.6a6.2,6.2,0,0,1,2.484-.5,6.185,6.185,0,0,1,2.489.5,6.5,6.5,0,0,1,2.032,1.374A6.5,6.5,0,0,1,14.4-14.195a6.185,6.185,0,0,1,.5,2.489,6.2,6.2,0,0,1-.5,2.484,6.488,6.488,0,0,1-1.374,2.037A6.5,6.5,0,0,1,10.995-5.81,6.185,6.185,0,0,1,8.505-5.305Zm0-1.025a9.2,9.2,0,0,0,.868-1.38,7.882,7.882,0,0,0,.574-1.521H7.063a8.6,8.6,0,0,0,.581,1.547A7.886,7.886,0,0,0,8.505-6.33ZM7.2-6.516a7.309,7.309,0,0,1-.7-1.264,8.266,8.266,0,0,1-.479-1.452H3.74A5.281,5.281,0,0,0,5.172-7.468,4.809,4.809,0,0,0,7.2-6.516Zm2.609,0a4.809,4.809,0,0,0,2.029-.952A5.281,5.281,0,0,0,13.27-9.231H10.985a10.586,10.586,0,0,1-.512,1.458A8.745,8.745,0,0,1,9.81-6.516ZM3.317-10.241h2.5q-.063-.376-.092-.736T5.7-11.705q0-.367.028-.727t.092-.736h-2.5a5.312,5.312,0,0,0-.149.714,5.4,5.4,0,0,0-.052.75,5.4,5.4,0,0,0,.052.75,5.313,5.313,0,0,0,.149.714Zm3.515,0h3.348q.063-.376.092-.73t.028-.734q0-.38-.028-.734t-.092-.73H6.831q-.063.376-.092.73t-.028.734q0,.38.028.734T6.831-10.241Zm4.358,0h2.5a5.313,5.313,0,0,0,.149-.714,5.4,5.4,0,0,0,.052-.75,5.4,5.4,0,0,0-.052-.75,5.313,5.313,0,0,0-.149-.714h-2.5q.063.376.092.736t.028.727q0,.367-.028.727T11.189-10.241Zm-.2-3.938H13.27a5.267,5.267,0,0,0-1.422-1.763A4.963,4.963,0,0,0,9.81-16.9a8.366,8.366,0,0,1,.689,1.287A9.253,9.253,0,0,1,10.985-14.18Zm-3.922,0H9.947a8.666,8.666,0,0,0-.59-1.557,7.865,7.865,0,0,0-.852-1.344,7.865,7.865,0,0,0-.852,1.344A8.667,8.667,0,0,0,7.063-14.18Zm-3.323,0H6.026a9.253,9.253,0,0,1,.486-1.435A8.366,8.366,0,0,1,7.2-16.9a4.914,4.914,0,0,0-2.042.962A5.335,5.335,0,0,0,3.74-14.18Z" transform="translate(210.895 501.105)" fill="#b8bec9"/>
  </g>
</svg>
