<svg xmlns="http://www.w3.org/2000/svg" width="20" height="20" viewBox="0 0 20 20">
  <g id="linkedin" transform="translate(-976 -5736.999)">
    <path id="linkedin-box-fill" d="M20.374,20.377H17.412V15.736c0-1.107-.022-2.531-1.543-2.531-1.544,0-1.78,1.2-1.78,2.449v4.723H11.127V10.833h2.845v1.3h.038a3.121,3.121,0,0,1,2.808-1.542c3,0,3.556,1.975,3.556,4.546v5.238ZM7.782,9.527A1.72,1.72,0,1,1,9.5,7.807,1.718,1.718,0,0,1,7.782,9.527ZM9.267,20.377H6.3V10.833h2.97ZM21.855,3.333H4.81A1.458,1.458,0,0,0,3.334,4.774V21.893A1.458,1.458,0,0,0,4.81,23.333H21.853a1.463,1.463,0,0,0,1.482-1.441V4.774a1.464,1.464,0,0,0-1.482-1.441Z" transform="translate(972.666 5733.666)"/>
  </g>
</svg>
