<svg xmlns="http://www.w3.org/2000/svg" xmlns:xlink="http://www.w3.org/1999/xlink" width="8" height="8" viewBox="0 0 8 8">
  <defs>
    <clipPath id="clip-path">
      <rect id="사각형_1106" data-name="사각형 1106" width="8" height="8" fill="#818a9b" stroke="#707070" stroke-width="1"/>
    </clipPath>
  </defs>
  <g id="masked" clip-path="url(#clip-path)">
    <path id="masked_transitions_24dp_434343_FILL0_wght300_GRAD0_opsz24" d="M6.8-4.591a2.692,2.692,0,0,0,1.976-.817,2.692,2.692,0,0,0,.817-1.976,2.692,2.692,0,0,0-.817-1.976A2.692,2.692,0,0,0,6.8-10.178a2.692,2.692,0,0,0-1.976.817A2.692,2.692,0,0,0,4-7.384a2.692,2.692,0,0,0,.817,1.976A2.692,2.692,0,0,0,6.8-4.591Zm0-.645a2.071,2.071,0,0,1-1.52-.629,2.071,2.071,0,0,1-.629-1.52A2.071,2.071,0,0,1,5.277-8.9,2.071,2.071,0,0,1,6.8-9.533a2.071,2.071,0,0,1,1.52.629,2.071,2.071,0,0,1,.629,1.52,2.071,2.071,0,0,1-.629,1.52A2.071,2.071,0,0,1,6.8-5.235ZM3.5-7.158a.435.435,0,0,1-.013-.108v-.119a3.186,3.186,0,0,1,.967-2.338A3.186,3.186,0,0,1,6.8-10.69h.119a.435.435,0,0,1,.108.013,2.757,2.757,0,0,0-.955-1.351,2.626,2.626,0,0,0-1.685-.563,2.692,2.692,0,0,0-1.976.817A2.692,2.692,0,0,0,1.591-9.8a2.626,2.626,0,0,0,.563,1.685A2.757,2.757,0,0,0,3.5-7.158Z" transform="translate(-1.591 12.591)" fill="#818a9b"/>
  </g>
</svg>
