<svg xmlns="http://www.w3.org/2000/svg" width="151.852" height="23" viewBox="0 0 151.852 23">
  <g id="message" transform="translate(-192 -96)">
    <path id="패스_754" data-name="패스 754" d="M9.882-7.488a1.235,1.235,0,0,0,1.4-1.386c0-1.908-2.124-3.4-5.022-3.4-2.7,0-4.95,1.26-5.04,4.266-.054,1.71-.054,3.474,0,5.31.09,3.168,2.3,4.266,5.112,4.266,3.006,0,4.932-1.6,4.932-3.564a1.247,1.247,0,0,0-1.4-1.422A1.373,1.373,0,0,0,8.442-2.358C8.316-1.206,7.758-.666,6.336-.666A1.839,1.839,0,0,1,4.23-2.7c-.054-1.728-.072-3.4,0-5.256a1.9,1.9,0,0,1,2.106-2.088c1.368,0,2.052.576,2.142,1.494A1.273,1.273,0,0,0,9.882-7.488Zm8.712,9.054c3.042,0,5.418-1.26,5.472-4.266.054-1.638.072-3.492,0-5.22-.144-2.988-2.466-4.248-5.472-4.248-3.1,0-5.436,1.134-5.49,4.248-.018.9-.036,1.782-.036,2.628,0,.864.018,1.728.036,2.592C13.158.414,15.426,1.566,18.594,1.566ZM21.078-7.92a50.134,50.134,0,0,1,0,5.2c-.09,1.368-1.026,2.052-2.484,2.052-1.566,0-2.43-.612-2.484-2.034-.036-1.728-.036-3.456,0-5.2.054-1.386.918-2.052,2.484-2.052C20.088-9.954,21.024-9.306,21.078-7.92ZM36.972.09a1.557,1.557,0,0,0,3.1,0V-10.818a1.371,1.371,0,0,0-1.548-1.35,2.216,2.216,0,0,0-2.16,1.188L33.336-6.408,30.42-10.98a2.172,2.172,0,0,0-2.2-1.188,1.415,1.415,0,0,0-1.566,1.35V.09a1.39,1.39,0,0,0,1.566,1.386A1.374,1.374,0,0,0,29.772.09V-7.38L32.2-3.474a1.3,1.3,0,0,0,1.134.594,1.337,1.337,0,0,0,1.17-.576c.378-.576.792-1.206,1.224-1.908.414-.7.828-1.332,1.242-1.926Zm16.146,0a1.557,1.557,0,0,0,3.1,0V-10.818a1.371,1.371,0,0,0-1.548-1.35,2.216,2.216,0,0,0-2.16,1.188L49.482-6.408,46.566-10.98a2.172,2.172,0,0,0-2.2-1.188,1.415,1.415,0,0,0-1.566,1.35V.09A1.39,1.39,0,0,0,44.37,1.476,1.374,1.374,0,0,0,45.918.09V-7.38l2.43,3.906a1.3,1.3,0,0,0,1.134.594,1.337,1.337,0,0,0,1.17-.576c.378-.576.792-1.206,1.224-1.908.414-.7.828-1.332,1.242-1.926ZM58.95-2.7c0,3.132,2.52,4.266,5.688,4.266,3.042,0,5.58-1.134,5.58-4.266v-8.136a1.388,1.388,0,0,0-1.53-1.332c-.81,0-1.584.414-1.584,1.332V-2.7c0,1.422-.936,2.034-2.466,2.034-1.584,0-2.574-.612-2.574-2.034v-8.136c0-.9-.684-1.332-1.53-1.332-.81,0-1.584.414-1.584,1.332Zm25.236-8.136a1.346,1.346,0,0,0-1.512-1.332c-.81,0-1.6.414-1.6,1.332v6.768L76.59-10.962A2.111,2.111,0,0,0,74.5-12.168a1.429,1.429,0,0,0-1.6,1.26v11a1.412,1.412,0,0,0,1.6,1.386A1.353,1.353,0,0,0,76.014.09V-6.678L80.874.684a2,2,0,0,0,1.8.792A1.379,1.379,0,0,0,84.186-.036Zm2.736,0c0-.918.792-1.332,1.6-1.332a1.369,1.369,0,0,1,1.53,1.332V.09a1.363,1.363,0,0,1-1.53,1.386A1.42,1.42,0,0,1,86.922.09Zm7.83.864V.09a1.416,1.416,0,0,0,1.584,1.386A1.4,1.4,0,0,0,97.884.09V-9.972h2.952c1.044,0,1.368-.522,1.368-1.062,0-.63-.36-1.134-1.368-1.134H91.764c-1.044,0-1.368.54-1.368,1.08,0,.594.36,1.116,1.368,1.116Zm20.9-.324a1.179,1.179,0,0,0-.558-1.728,1.376,1.376,0,0,0-1.89.27l-3.582,5.4-3.654-5.49a1.406,1.406,0,0,0-1.908-.18,1.221,1.221,0,0,0-.432,1.728l4.446,6.39v4a1.392,1.392,0,0,0,1.548,1.386A1.407,1.407,0,0,0,111.186.09v-4Z" transform="translate(228 113)" fill="#0d1421"/>
    <path id="message-3-line" d="M2,10.659A7.655,7.655,0,0,1,9.668,3H19.888a7.672,7.672,0,0,1,7.668,7.659V26H9.668A7.672,7.672,0,0,1,2,18.341ZM25,23.445V10.659a5.117,5.117,0,0,0-5.112-5.1H9.668a5.1,5.1,0,0,0-5.112,5.1v7.683a5.117,5.117,0,0,0,5.112,5.1ZM17.333,13.222h2.556v2.556H17.333Zm-7.667,0h2.556v2.556H9.667Z" transform="translate(190 93)"/>
  </g>
</svg>
