<svg xmlns="http://www.w3.org/2000/svg" width="17.667" height="3.646" viewBox="0 0 17.667 3.646">
  <path id="more_on" d="M9.632-18.64a1.754,1.754,0,0,1-1.287-.536,1.754,1.754,0,0,1-.536-1.287,1.754,1.754,0,0,1,.536-1.287,1.754,1.754,0,0,1,1.287-.536,1.755,1.755,0,0,1,1.287.536,1.755,1.755,0,0,1,.535,1.287,1.755,1.755,0,0,1-.535,1.287A1.755,1.755,0,0,1,9.632-18.64Zm7.011,0a1.754,1.754,0,0,1-1.287-.536,1.754,1.754,0,0,1-.536-1.287,1.754,1.754,0,0,1,.536-1.287,1.754,1.754,0,0,1,1.287-.536,1.754,1.754,0,0,1,1.287.536,1.754,1.754,0,0,1,.536,1.287,1.754,1.754,0,0,1-.536,1.287A1.754,1.754,0,0,1,16.643-18.64Zm7.011,0a1.755,1.755,0,0,1-1.287-.536,1.755,1.755,0,0,1-.535-1.287,1.755,1.755,0,0,1,.535-1.287,1.755,1.755,0,0,1,1.287-.536,1.754,1.754,0,0,1,1.287.536,1.754,1.754,0,0,1,.536,1.287,1.754,1.754,0,0,1-.536,1.287A1.754,1.754,0,0,1,23.653-18.64Z" transform="translate(-7.809 22.286)" fill="#0d1421"/>
</svg>
