<svg xmlns="http://www.w3.org/2000/svg" width="10" height="2.063" viewBox="0 0 10 2.063">
  <path id="more" d="M6.238-12.794a.993.993,0,0,1-.729-.3.993.993,0,0,1-.3-.729.993.993,0,0,1,.3-.729.993.993,0,0,1,.729-.3.994.994,0,0,1,.729.3.993.993,0,0,1,.3.729.993.993,0,0,1-.3.729A.994.994,0,0,1,6.238-12.794Zm3.968,0a.993.993,0,0,1-.729-.3.993.993,0,0,1-.3-.729.993.993,0,0,1,.3-.729.993.993,0,0,1,.729-.3.993.993,0,0,1,.729.3.993.993,0,0,1,.3.729.993.993,0,0,1-.3.729A.993.993,0,0,1,10.206-12.794Zm3.968,0a.994.994,0,0,1-.729-.3.993.993,0,0,1-.3-.729.993.993,0,0,1,.3-.729.994.994,0,0,1,.729-.3.993.993,0,0,1,.729.3.993.993,0,0,1,.3.729.993.993,0,0,1-.3.729A.993.993,0,0,1,14.175-12.794Z" transform="translate(-5.206 14.857)" fill="#8891a3"/>
</svg>
