<svg xmlns="http://www.w3.org/2000/svg" width="16.152" height="20.667" viewBox="0 0 16.152 20.667">
  <path id="notifications_off" d="M5.627-9.243v-1.615H7.574v-8.035a5.96,5.96,0,0,1,1.341-3.841,5.941,5.941,0,0,1,3.443-2.135v-.671a1.3,1.3,0,0,1,.392-.954,1.3,1.3,0,0,1,.952-.393,1.3,1.3,0,0,1,.954.393,1.3,1.3,0,0,1,.394.954v.671a5.941,5.941,0,0,1,3.443,2.135,5.96,5.96,0,0,1,1.341,3.841v8.035H21.78v1.615ZM13.7-17.132Zm0,10.913a1.871,1.871,0,0,1-1.374-.572,1.876,1.876,0,0,1-.571-1.375H15.65a1.872,1.872,0,0,1-.572,1.376,1.879,1.879,0,0,1-1.376.57ZM9.189-10.858h9.029v-8.035A4.349,4.349,0,0,0,16.9-22.085,4.35,4.35,0,0,0,13.7-23.407a4.35,4.35,0,0,0-3.192,1.322,4.349,4.349,0,0,0-1.322,3.192v8.035Z" transform="translate(-5.627 26.886)" fill="#808a9d"/>
</svg>
