<svg xmlns="http://www.w3.org/2000/svg" width="25.01" height="32" viewBox="0 0 25.01 32">
  <path id="notifications" d="M7.5-8.529v-2.5h3.014V-23.471a9.228,9.228,0,0,1,2.076-5.948,9.2,9.2,0,0,1,5.33-3.306v-1.039a2.012,2.012,0,0,1,.607-1.476,2.007,2.007,0,0,1,1.475-.608,2.013,2.013,0,0,1,1.477.608,2.008,2.008,0,0,1,.609,1.476v1.039a9.2,9.2,0,0,1,5.33,3.306A9.228,9.228,0,0,1,29.5-23.471V-11.03h3.014v2.5H7.5Zm12.5,4.681a2.9,2.9,0,0,1-2.128-.885,2.905,2.905,0,0,1-.884-2.129h6.028a2.9,2.9,0,0,1-.886,2.131,2.91,2.91,0,0,1-2.131.883Z" transform="translate(-7.503 35.848)" fill="#fff"/>
</svg>
