<svg xmlns="http://www.w3.org/2000/svg" width="32" height="32" viewBox="0 0 32 32">
  <path id="paid" d="M17.966.308h2.3v-2.04a7.422,7.422,0,0,0,3.548-1.472A4.3,4.3,0,0,0,25.4-6.863,5,5,0,0,0,24.36-9.992a8.947,8.947,0,0,0-4.075-2.455,14.112,14.112,0,0,1-3.527-1.571,2.2,2.2,0,0,1-.871-1.856,2.4,2.4,0,0,1,.892-1.937,3.73,3.73,0,0,1,2.463-.745,3.386,3.386,0,0,1,2.121.62A4.118,4.118,0,0,1,22.6-16.379l2.079-.836a5.5,5.5,0,0,0-1.721-2.3,4.689,4.689,0,0,0-2.612-1.067v-2.04h-2.3v2.04a5.616,5.616,0,0,0-3.308,1.747,4.416,4.416,0,0,0-1.155,2.962,4.142,4.142,0,0,0,1.15,3.054,10.156,10.156,0,0,0,3.747,2.089,14.389,14.389,0,0,1,3.668,1.767,2.545,2.545,0,0,1,.983,2.1,2.513,2.513,0,0,1-1.143,2.3,4.756,4.756,0,0,1-2.581.717A4.089,4.089,0,0,1,16.867-4.7a5.355,5.355,0,0,1-1.725-2.5l-2.131.868a7.034,7.034,0,0,0,1.88,2.979,6.809,6.809,0,0,0,3.075,1.536Zm1.192,4.534a15.553,15.553,0,0,1-6.236-1.261A16.18,16.18,0,0,1,7.841.159a16.18,16.18,0,0,1-3.422-5.08,15.553,15.553,0,0,1-1.261-6.236,15.553,15.553,0,0,1,1.261-6.236,16.18,16.18,0,0,1,3.422-5.08,16.18,16.18,0,0,1,5.08-3.422,15.553,15.553,0,0,1,6.236-1.261A15.553,15.553,0,0,1,25.394-25.9a16.18,16.18,0,0,1,5.08,3.422,16.18,16.18,0,0,1,3.422,5.08,15.553,15.553,0,0,1,1.261,6.236A15.553,15.553,0,0,1,33.9-4.922,16.18,16.18,0,0,1,30.475.159a16.18,16.18,0,0,1-5.08,3.422A15.553,15.553,0,0,1,19.158,4.842Zm0-2.526A13,13,0,0,0,28.716-1.6a13,13,0,0,0,3.916-9.558,13,13,0,0,0-3.916-9.558,13,13,0,0,0-9.558-3.916A13,13,0,0,0,9.6-20.716a13,13,0,0,0-3.916,9.558A13,13,0,0,0,9.6-1.6,13,13,0,0,0,19.158,2.316ZM19.158-11.158Z" transform="translate(-3.158 27.158)" fill="#fff"/>
</svg>
