<svg xmlns="http://www.w3.org/2000/svg" width="32" height="27.253" viewBox="0 0 32 27.253">
  <path id="perm" d="M4.469,2.681a2.655,2.655,0,0,1-1.947-.807A2.653,2.653,0,0,1,1.714-.073V-18.418H4V-.073a.456.456,0,0,0,.132.337A.457.457,0,0,0,4.469.4H29.143V2.681H4.469ZM9.8-2.652a2.654,2.654,0,0,1-1.947-.807,2.653,2.653,0,0,1-.807-1.947v-16.41a2.655,2.655,0,0,1,.807-1.947A2.654,2.654,0,0,1,9.8-24.571h7.59l3.048,3.048H30.96a2.655,2.655,0,0,1,1.947.807,2.655,2.655,0,0,1,.807,1.947V-5.406a2.653,2.653,0,0,1-.807,1.947,2.655,2.655,0,0,1-1.947.807Zm3.692-5.919H27.736l-4.73-6.213-3.622,4.63-2.391-2.96Z" transform="translate(-1.714 24.571)" fill="#fff"/>
</svg>
