<svg xmlns="http://www.w3.org/2000/svg" width="18.333" height="17.863" viewBox="0 0 18.333 17.863">
  <path id="person_on" d="M16.367-22.337a4.119,4.119,0,0,1-3.021-1.256,4.119,4.119,0,0,1-1.257-3.021,4.118,4.118,0,0,1,1.257-3.021,4.118,4.118,0,0,1,3.021-1.257,4.118,4.118,0,0,1,3.021,1.257,4.118,4.118,0,0,1,1.257,3.021,4.119,4.119,0,0,1-1.257,3.021A4.119,4.119,0,0,1,16.367-22.337ZM7.2-13.029v-2.717a3.035,3.035,0,0,1,.488-1.663,3.255,3.255,0,0,1,1.3-1.176,17.733,17.733,0,0,1,3.656-1.333,15.827,15.827,0,0,1,3.72-.444,15.827,15.827,0,0,1,3.72.444,17.734,17.734,0,0,1,3.656,1.333,3.255,3.255,0,0,1,1.3,1.176,3.035,3.035,0,0,1,.488,1.663v2.717Zm1.833-1.833H23.7v-.884a1.2,1.2,0,0,0-.215-.687,1.63,1.63,0,0,0-.584-.516,15.72,15.72,0,0,0-3.221-1.179,13.928,13.928,0,0,0-3.313-.4,13.928,13.928,0,0,0-3.313.4A15.72,15.72,0,0,0,9.832-16.95a1.63,1.63,0,0,0-.584.516,1.2,1.2,0,0,0-.215.687v.884Zm7.333-9.308a2.354,2.354,0,0,0,1.726-.718,2.354,2.354,0,0,0,.718-1.726,2.354,2.354,0,0,0-.718-1.726,2.354,2.354,0,0,0-1.726-.718,2.354,2.354,0,0,0-1.726.718,2.354,2.354,0,0,0-.718,1.726,2.354,2.354,0,0,0,.718,1.726A2.354,2.354,0,0,0,16.367-24.17ZM16.367-26.615ZM16.367-14.862Z" transform="translate(-7.2 30.892)" fill="#0d1421"/>
</svg>
