<svg xmlns="http://www.w3.org/2000/svg" width="30.301" height="27.111" viewBox="0 0 30.301 27.111">
  <path id="photo" d="M115.15-798.287A6.333,6.333,0,0,0,119.8-800.2a6.333,6.333,0,0,0,1.909-4.654A6.333,6.333,0,0,0,119.8-809.5a6.333,6.333,0,0,0-4.654-1.909A6.333,6.333,0,0,0,110.5-809.5a6.333,6.333,0,0,0-1.909,4.654A6.333,6.333,0,0,0,110.5-800.2a6.333,6.333,0,0,0,4.654,1.909Zm0-2.392a4.032,4.032,0,0,1-2.969-1.2,4.032,4.032,0,0,1-1.2-2.969,4.032,4.032,0,0,1,1.2-2.969,4.033,4.033,0,0,1,2.969-1.2,4.033,4.033,0,0,1,2.969,1.2,4.032,4.032,0,0,1,1.2,2.969,4.033,4.033,0,0,1-1.2,2.969,4.032,4.032,0,0,1-2.969,1.2Zm-12.267,7.79a2.783,2.783,0,0,1-2.046-.837,2.783,2.783,0,0,1-.837-2.046v-18.156a2.783,2.783,0,0,1,.837-2.046,2.783,2.783,0,0,1,2.046-.837h4.87L110.7-820H119.6l2.95,3.19h4.87a2.783,2.783,0,0,1,2.046.837,2.783,2.783,0,0,1,.837,2.046v18.156a2.783,2.783,0,0,1-.837,2.046,2.783,2.783,0,0,1-2.046.837Zm0-2.392h24.535a.478.478,0,0,0,.353-.138.478.478,0,0,0,.138-.353v-18.156a.478.478,0,0,0-.138-.353.478.478,0,0,0-.353-.138h-5.937l-2.926-3.19h-6.808l-2.926,3.19h-5.937a.478.478,0,0,0-.353.138.478.478,0,0,0-.138.353v18.156a.478.478,0,0,0,.138.353A.478.478,0,0,0,102.883-795.281ZM115.15-804.85Z" transform="translate(-100 820)" fill="#808a9d"/>
</svg>
