<svg width="24" height="24" viewBox="0 0 24 24" fill="none" xmlns="http://www.w3.org/2000/svg">
<path d="M12 24C18.6274 24 24 18.6274 24 12C24 5.37258 18.6274 0 12 0C5.37258 0 0 5.37258 0 12C0 18.6274 5.37258 24 12 24Z" fill="white"/>
<path d="M0 12C0 16.5485 2.53073 20.5057 6.26086 22.541V1.45911C2.53073 3.49437 0 7.45151 0 12Z" fill="white"/>
<path d="M11.9996 0C9.92073 0 7.96539 0.528891 6.2605 1.45908V22.5409C7.96539 23.4711 9.92073 24 11.9996 24C18.627 24 23.9996 18.6274 23.9996 12C23.9996 5.37262 18.627 0 11.9996 0Z" fill="#496E2D"/>
<path d="M17.1307 13.9847C15.6126 15.0816 13.4926 14.7402 12.3957 13.2221C11.2987 11.7039 11.6402 9.58399 13.1584 8.48711C13.6317 8.14511 14.1636 7.94294 14.7046 7.87268C13.6637 7.717 12.5633 7.95157 11.6428 8.61668C9.77437 9.96677 9.35404 12.5759 10.7041 14.4444C12.0541 16.3128 14.6633 16.7332 16.5318 15.383C17.4524 14.7179 18.0206 13.747 18.1995 12.7097C17.963 13.2012 17.6041 13.6427 17.1307 13.9847Z" fill="white"/>
<path d="M17.0659 7.82617L17.9211 8.74778L19.0618 8.21941L18.4495 9.31741L19.3046 10.2391L18.0711 9.99606L17.4588 11.0942L17.3088 9.84588L16.0752 9.60283L17.216 9.07445L17.0659 7.82617Z" fill="white"/>
</svg>
