<svg xmlns="http://www.w3.org/2000/svg" xmlns:xlink="http://www.w3.org/1999/xlink" width="16" height="16" viewBox="0 0 16 16">
  <defs>
    <clipPath id="clip-path">
      <rect id="사각형_791" data-name="사각형 791" width="16" height="16" transform="translate(876 247)"/>
    </clipPath>
  </defs>
  <g id="plant_on" transform="translate(-876 -247)" clip-path="url(#clip-path)">
    <path id="plant-line" d="M4.8,1.6A5.6,5.6,0,0,1,9.756,4.593,5.193,5.193,0,0,1,14,2.4h2.8v2a5.2,5.2,0,0,1-5.2,5.2H10.4v.8h4V16a1.6,1.6,0,0,1-1.6,1.6H6.4A1.6,1.6,0,0,1,4.8,16V10.4h4V8.8H7.2A5.6,5.6,0,0,1,1.6,3.2V1.6Zm8,10.4H6.4v4h6.4Zm2.4-8H14a3.6,3.6,0,0,0-3.6,3.6V8h1.2a3.6,3.6,0,0,0,3.6-3.6ZM4.8,3.2H3.2a4,4,0,0,0,4,4H8.8A4,4,0,0,0,4.8,3.2Z" transform="translate(874.802 245.4)"/>
  </g>
</svg>
