<svg xmlns="http://www.w3.org/2000/svg" width="13" height="13" viewBox="0 0 13 13">
  <g id="reddit" transform="translate(-290 -493)">
    <path id="reddit-fill_1_" data-name="reddit-fill (1)" d="M8.1,14.6a6.5,6.5,0,1,1,6.5-6.5A6.5,6.5,0,0,1,8.1,14.6Zm4.335-6.5a.949.949,0,0,0-1.605-.65,4.628,4.628,0,0,0-2.5-.8l.422-2.028,1.391.292a.65.65,0,1,0,.085-.4L8.634,4.2a.2.2,0,0,0-.24.156L7.912,6.611a4.641,4.641,0,0,0-2.535.8A.949.949,0,1,0,4.331,8.964a1.865,1.865,0,0,0,0,.286c0,1.456,1.7,2.639,3.79,2.639S11.91,10.706,11.91,9.25a1.875,1.875,0,0,0,0-.286A.949.949,0,0,0,12.436,8.1Zm-6.5.65a.65.65,0,1,1,.19.46A.65.65,0,0,1,5.936,8.75Zm3.777,1.787a2.5,2.5,0,0,1-1.605.5,2.5,2.5,0,0,1-1.606-.5.176.176,0,0,1,.247-.247A2.125,2.125,0,0,0,8.1,10.7a2.132,2.132,0,0,0,1.358-.4.182.182,0,0,1,.253.26ZM9.6,9.426a.31.31,0,1,1-.006.026Z" transform="translate(288.399 491.4)" fill="#ff4500"/>
  </g>
</svg>
