<svg xmlns="http://www.w3.org/2000/svg" xmlns:xlink="http://www.w3.org/1999/xlink" width="20" height="20" viewBox="0 0 20 20">
  <defs>
    <clipPath id="clip-path">
      <rect id="사각형_294" data-name="사각형 294" width="20" height="20" transform="translate(24 330)" fill="#838c9f"/>
    </clipPath>
  </defs>
  <g id="Reward" transform="translate(-24 -330)" clip-path="url(#clip-path)">
    <path id="medal-line" d="M12.19,7.047a7.619,7.619,0,1,1-7.619,7.619A7.619,7.619,0,0,1,12.19,7.047Zm0,1.9A5.714,5.714,0,1,0,17.9,14.666,5.714,5.714,0,0,0,12.19,8.952Zm0,1.429,1.259,2.552,2.816.409-2.038,1.986.481,2.8L12.19,16.809,9.671,18.133l.481-2.8L8.114,13.341l2.816-.409ZM17.9,2.285V5.142l-1.3,1.083A9.462,9.462,0,0,0,13.143,5.19V2.284Zm-6.666,0V5.189A9.461,9.461,0,0,0,7.775,6.225l-1.3-1.083V2.285Z" transform="translate(21.81 327.716)" fill="#838c9f"/>
  </g>
</svg>
