<svg xmlns="http://www.w3.org/2000/svg" width="24" height="24" viewBox="0 0 24 24">
  <path id="sentiment" d="M19.46-16.664a1.586,1.586,0,0,0,1.169-.483,1.6,1.6,0,0,0,.48-1.172,1.586,1.586,0,0,0-.483-1.169,1.6,1.6,0,0,0-1.172-.48,1.586,1.586,0,0,0-1.169.483,1.6,1.6,0,0,0-.48,1.172,1.586,1.586,0,0,0,.483,1.169A1.6,1.6,0,0,0,19.46-16.664Zm-8.6,0a1.586,1.586,0,0,0,1.169-.483,1.6,1.6,0,0,0,.48-1.172,1.586,1.586,0,0,0-.483-1.169,1.6,1.6,0,0,0-1.172-.48,1.586,1.586,0,0,0-1.169.483,1.6,1.6,0,0,0-.48,1.172,1.586,1.586,0,0,0,.483,1.169A1.6,1.6,0,0,0,10.861-16.664Zm4.3,8.065a6.317,6.317,0,0,0,3.615-1.107,6.58,6.58,0,0,0,2.415-2.926H19.516a5.178,5.178,0,0,1-1.847,1.847,4.859,4.859,0,0,1-2.511.679,4.859,4.859,0,0,1-2.511-.679A5.178,5.178,0,0,1,10.8-12.632H9.129a6.58,6.58,0,0,0,2.415,2.926A6.317,6.317,0,0,0,15.158-8.6Zm0,5.441A11.69,11.69,0,0,1,10.48-4.1,12.121,12.121,0,0,1,6.669-6.667,12.119,12.119,0,0,1,4.1-10.477a11.68,11.68,0,0,1-.945-4.679,11.69,11.69,0,0,1,.945-4.68,12.121,12.121,0,0,1,2.565-3.811,12.119,12.119,0,0,1,3.809-2.566,11.68,11.68,0,0,1,4.679-.945,11.69,11.69,0,0,1,4.68.945,12.121,12.121,0,0,1,3.811,2.565,12.119,12.119,0,0,1,2.566,3.809,11.68,11.68,0,0,1,.945,4.679,11.69,11.69,0,0,1-.945,4.68,12.121,12.121,0,0,1-2.565,3.811A12.119,12.119,0,0,1,19.839-4.1,11.68,11.68,0,0,1,15.16-3.158ZM15.158-15.158Zm0,10.105a9.753,9.753,0,0,0,7.168-2.937,9.753,9.753,0,0,0,2.937-7.168,9.753,9.753,0,0,0-2.937-7.168,9.753,9.753,0,0,0-7.168-2.937,9.753,9.753,0,0,0-7.168,2.937,9.753,9.753,0,0,0-2.937,7.168A9.753,9.753,0,0,0,7.989-7.989,9.753,9.753,0,0,0,15.158-5.053Z" transform="translate(-3.158 27.158)" fill="#808a9d"/>
</svg>
