<svg xmlns="http://www.w3.org/2000/svg" width="18.456" height="19" viewBox="0 0 18.456 19">
  <g id="setting" transform="translate(-1333.272 -105)">
    <path id="settings_24dp_FFFFFF_FILL1_wght200_GRAD0_opsz24" d="M11.6-9l-.382-3.053a5.606,5.606,0,0,1-1.093-.479,5.359,5.359,0,0,1-1-.7l-2.816,1.2L4.344-15.465,6.778-17.3q-.047-.286-.077-.59a5.878,5.878,0,0,1-.031-.59,5.393,5.393,0,0,1,.031-.559q.03-.293.077-.661L4.344-21.535l1.969-3.39,2.8,1.177a7.236,7.236,0,0,1,1.023-.71,5.848,5.848,0,0,1,1.07-.489L11.6-28h3.938l.382,3.073A6.009,6.009,0,0,1,17-24.438a7.282,7.282,0,0,1,.959.69l2.876-1.177,1.969,3.39-2.515,1.9a2.738,2.738,0,0,1,.1.6q.01.273.01.539,0,.246-.02.519a6.1,6.1,0,0,1-.093.661l2.474,1.855-1.969,3.431-2.83-1.218a7.527,7.527,0,0,1-.993.71,5.034,5.034,0,0,1-1.039.469L15.541-9Zm1.941-6.861a2.547,2.547,0,0,0,1.872-.767,2.546,2.546,0,0,0,.767-1.871,2.546,2.546,0,0,0-.767-1.872,2.547,2.547,0,0,0-1.872-.767,2.544,2.544,0,0,0-1.875.767A2.551,2.551,0,0,0,10.9-18.5a2.551,2.551,0,0,0,.764,1.871A2.544,2.544,0,0,0,13.543-15.861Z" transform="translate(1328.928 133)" fill="#8891a3"/>
  </g>
</svg>
