<svg xmlns="http://www.w3.org/2000/svg" width="12.242" height="13.682" viewBox="0 0 12.242 13.682">
  <g id="share" transform="translate(-394.72 -49)">
    <path id="share_24dp_434343_FILL0_wght300_GRAD0_opsz24_1_" data-name="share_24dp_434343_FILL0_wght300_GRAD0_opsz24 (1)" d="M12.407-4.423a1.867,1.867,0,0,1-1.373-.565,1.872,1.872,0,0,1-.564-1.373,4.212,4.212,0,0,1,.075-.525L5.423-9.9a1.868,1.868,0,0,1-.619.423,1.934,1.934,0,0,1-.768.153,1.856,1.856,0,0,1-1.368-.568,1.875,1.875,0,0,1-.563-1.371,1.875,1.875,0,0,1,.563-1.371A1.856,1.856,0,0,1,4.037-13.2a1.934,1.934,0,0,1,.768.153,1.868,1.868,0,0,1,.619.423l5.121-3.008a1.429,1.429,0,0,1-.059-.26,2.2,2.2,0,0,1-.016-.271,1.869,1.869,0,0,1,.566-1.373,1.872,1.872,0,0,1,1.375-.565,1.865,1.865,0,0,1,1.373.566,1.873,1.873,0,0,1,.564,1.374,1.867,1.867,0,0,1-.565,1.373,1.872,1.872,0,0,1-1.373.564,1.87,1.87,0,0,1-.765-.156,1.924,1.924,0,0,1-.614-.426L5.908-11.8a1.433,1.433,0,0,1,.059.26,2.2,2.2,0,0,1,.016.271,2.2,2.2,0,0,1-.016.271,1.433,1.433,0,0,1-.059.26l5.121,3.015a1.924,1.924,0,0,1,.614-.426,1.87,1.87,0,0,1,.765-.156,1.869,1.869,0,0,1,1.373.566,1.872,1.872,0,0,1,.565,1.375,1.865,1.865,0,0,1-.566,1.373A1.873,1.873,0,0,1,12.407-4.423Zm0-1.08a.831.831,0,0,0,.612-.247.831.831,0,0,0,.247-.612.831.831,0,0,0-.247-.612.83.83,0,0,0-.612-.247.83.83,0,0,0-.612.247.83.83,0,0,0-.247.612.83.83,0,0,0,.247.612A.831.831,0,0,0,12.408-5.5Zm-8.371-4.9a.841.841,0,0,0,.617-.247.827.827,0,0,0,.249-.612.827.827,0,0,0-.249-.612.841.841,0,0,0-.617-.247.821.821,0,0,0-.607.247.834.834,0,0,0-.245.612.834.834,0,0,0,.245.612A.821.821,0,0,0,4.037-10.406Zm8.371-4.9a.83.83,0,0,0,.612-.247.831.831,0,0,0,.247-.612.831.831,0,0,0-.247-.612.831.831,0,0,0-.612-.247.831.831,0,0,0-.612.247.83.83,0,0,0-.247.612.83.83,0,0,0,.247.612.83.83,0,0,0,.612.247ZM12.408-6.362ZM4.044-11.264ZM12.408-16.167Z" transform="translate(392.615 67.105)" fill="#808a9d"/>
  </g>
</svg>
