<svg xmlns="http://www.w3.org/2000/svg" width="21.474" height="24" viewBox="0 0 21.474 24">
  <g id="share" transform="translate(-42.263 -46)">
    <path id="share-2" data-name="share" d="M21.228-3.158A3.275,3.275,0,0,1,18.82-4.15a3.283,3.283,0,0,1-.99-2.409,7.389,7.389,0,0,1,.131-.921L8.978-12.768a3.276,3.276,0,0,1-1.085.742,3.392,3.392,0,0,1-1.347.268,3.255,3.255,0,0,1-2.4-1,3.289,3.289,0,0,1-.988-2.4,3.289,3.289,0,0,1,.988-2.4,3.255,3.255,0,0,1,2.4-1,3.392,3.392,0,0,1,1.347.268,3.276,3.276,0,0,1,1.085.742l8.983-5.276a2.506,2.506,0,0,1-.1-.457,3.866,3.866,0,0,1-.028-.476,3.278,3.278,0,0,1,.993-2.409,3.284,3.284,0,0,1,2.411-.992,3.272,3.272,0,0,1,2.408.993,3.286,3.286,0,0,1,.99,2.411,3.275,3.275,0,0,1-.992,2.408,3.283,3.283,0,0,1-2.409.99,3.281,3.281,0,0,1-1.342-.274,3.375,3.375,0,0,1-1.077-.748L9.828-16.091a2.514,2.514,0,0,1,.1.457,3.866,3.866,0,0,1,.028.476,3.866,3.866,0,0,1-.028.476,2.514,2.514,0,0,1-.1.457l8.983,5.288a3.375,3.375,0,0,1,1.077-.748,3.281,3.281,0,0,1,1.342-.274,3.278,3.278,0,0,1,2.409.993,3.284,3.284,0,0,1,.992,2.411,3.272,3.272,0,0,1-.993,2.408A3.286,3.286,0,0,1,21.228-3.158Zm0-1.895A1.457,1.457,0,0,0,22.3-5.486a1.457,1.457,0,0,0,.433-1.073A1.457,1.457,0,0,0,22.3-7.632a1.457,1.457,0,0,0-1.073-.433,1.457,1.457,0,0,0-1.073.433,1.457,1.457,0,0,0-.433,1.073,1.457,1.457,0,0,0,.433,1.073A1.457,1.457,0,0,0,21.231-5.053Zm-14.684-8.6a1.475,1.475,0,0,0,1.082-.433,1.451,1.451,0,0,0,.437-1.073,1.451,1.451,0,0,0-.437-1.073,1.475,1.475,0,0,0-1.082-.433,1.44,1.44,0,0,0-1.065.433,1.463,1.463,0,0,0-.429,1.073,1.463,1.463,0,0,0,.429,1.073A1.44,1.44,0,0,0,6.547-13.652Zm14.684-8.6a1.457,1.457,0,0,0,1.073-.433,1.457,1.457,0,0,0,.433-1.073A1.457,1.457,0,0,0,22.3-24.83a1.457,1.457,0,0,0-1.073-.433,1.457,1.457,0,0,0-1.073.433,1.457,1.457,0,0,0-.433,1.073,1.457,1.457,0,0,0,.433,1.073,1.457,1.457,0,0,0,1.073.433ZM21.231-6.559ZM6.559-15.158ZM21.231-23.757Z" transform="translate(39.105 73.158)" fill="#808a9d"/>
  </g>
</svg>
