<svg xmlns="http://www.w3.org/2000/svg" width="28.632" height="32" viewBox="0 0 28.632 32">
  <path id="share" d="M28.3-4.211a4.366,4.366,0,0,1-3.211-1.323,4.378,4.378,0,0,1-1.32-3.212,9.851,9.851,0,0,1,.175-1.228L11.971-17.024a4.368,4.368,0,0,1-1.447.989,4.522,4.522,0,0,1-1.8.358A4.341,4.341,0,0,1,5.528-17a4.386,4.386,0,0,1-1.318-3.206,4.386,4.386,0,0,1,1.318-3.206,4.341,4.341,0,0,1,3.2-1.328,4.522,4.522,0,0,1,1.8.358,4.368,4.368,0,0,1,1.447.989l11.977-7.035a3.342,3.342,0,0,1-.138-.609,5.154,5.154,0,0,1-.037-.635A4.371,4.371,0,0,1,25.1-34.888a4.379,4.379,0,0,1,3.215-1.323,4.363,4.363,0,0,1,3.211,1.324,4.382,4.382,0,0,1,1.32,3.214,4.366,4.366,0,0,1-1.323,3.211,4.378,4.378,0,0,1-3.212,1.32,4.374,4.374,0,0,1-1.789-.366,4.5,4.5,0,0,1-1.437-1L13.1-21.454a3.352,3.352,0,0,1,.138.609,5.154,5.154,0,0,1,.037.635,5.154,5.154,0,0,1-.037.635,3.352,3.352,0,0,1-.138.609l11.977,7.051a4.5,4.5,0,0,1,1.437-1,4.374,4.374,0,0,1,1.789-.366,4.371,4.371,0,0,1,3.212,1.323,4.379,4.379,0,0,1,1.323,3.215,4.363,4.363,0,0,1-1.324,3.211A4.382,4.382,0,0,1,28.3-4.211Z" transform="translate(-4.211 36.211)" fill="#fff"/>
</svg>
