<svg xmlns="http://www.w3.org/2000/svg" xmlns:xlink="http://www.w3.org/1999/xlink" width="16" height="16" viewBox="0 0 16 16">
  <defs>
    <clipPath id="clip-path">
      <rect id="사각형_795" data-name="사각형 795" width="16" height="16" transform="translate(842 247)" fill="#616e85"/>
    </clipPath>
  </defs>
  <g id="shiny_off" transform="translate(-842 -247)" clip-path="url(#clip-path)">
    <path id="bard-line" d="M7.727,12.954a.689.689,0,0,1-1.27,0l-.639-1.463A5.636,5.636,0,0,0,2.95,8.585L1.191,7.8a.721.721,0,0,1,0-1.31l1.7-.756a5.639,5.639,0,0,0,2.91-3l.647-1.559a.689.689,0,0,1,1.28,0l.647,1.559a5.639,5.639,0,0,0,2.91,3l1.7.756a.721.721,0,0,1,0,1.31l-1.758.781a5.636,5.636,0,0,0-2.868,2.905ZM3.3,7.15a7.335,7.335,0,0,1,3.787,3.623A7.335,7.335,0,0,1,10.879,7.15,7.28,7.28,0,0,1,7.092,3.429,7.28,7.28,0,0,1,3.3,7.15Zm10.818,9.367.18-.412a3.178,3.178,0,0,1,1.617-1.639l.554-.246a.386.386,0,0,0,0-.7l-.523-.232a3.18,3.18,0,0,1-1.64-1.693l-.184-.445a.369.369,0,0,0-.686,0l-.184.445a3.18,3.18,0,0,1-1.64,1.693l-.523.232a.386.386,0,0,0,0,.7l.554.246A3.177,3.177,0,0,1,13.263,16.1l.18.412A.369.369,0,0,0,14.123,16.517Zm-.748-2.652.409-.407.4.407-.4.4Z" transform="translate(841.265 246.257)" fill="#616e85"/>
  </g>
</svg>
