<svg xmlns="http://www.w3.org/2000/svg" width="17.6" height="17.173" viewBox="0 0 17.6 17.173">
  <path id="sms" d="M8.253-19.391a.79.79,0,0,0,.58-.239.79.79,0,0,0,.239-.58.79.79,0,0,0-.239-.58.79.79,0,0,0-.58-.239.79.79,0,0,0-.58.239.79.79,0,0,0-.239.58.79.79,0,0,0,.239.58A.79.79,0,0,0,8.253-19.391Zm3.705,0a.79.79,0,0,0,.58-.239.79.79,0,0,0,.239-.58.79.79,0,0,0-.239-.58.79.79,0,0,0-.58-.239.79.79,0,0,0-.58.239.79.79,0,0,0-.239.58.79.79,0,0,0,.239.58A.79.79,0,0,0,11.958-19.391Zm3.705,0a.79.79,0,0,0,.58-.239.79.79,0,0,0,.239-.58.79.79,0,0,0-.239-.58.79.79,0,0,0-.58-.239.79.79,0,0,0-.58.239.79.79,0,0,0-.239.58.79.79,0,0,0,.239.58A.79.79,0,0,0,15.663-19.391ZM3.158-9.985v-15.5a1.616,1.616,0,0,1,.486-1.188,1.616,1.616,0,0,1,1.188-.486H19.083a1.616,1.616,0,0,1,1.188.486,1.616,1.616,0,0,1,.486,1.188v10.546a1.616,1.616,0,0,1-.486,1.188,1.616,1.616,0,0,1-1.188.486H6.436Zm2.686-4.667H19.083a.272.272,0,0,0,.2-.089.272.272,0,0,0,.089-.2V-25.483a.272.272,0,0,0-.089-.2.272.272,0,0,0-.2-.089H4.832a.272.272,0,0,0-.2.089.272.272,0,0,0-.089.2V-13.37Zm-1.3,0v0Z" transform="translate(-3.158 27.158)" fill="#808a9d"/>
</svg>
