<svg xmlns="http://www.w3.org/2000/svg" xmlns:xlink="http://www.w3.org/1999/xlink" width="107.521" height="52.616" viewBox="0 0 107.521 52.616">
  <defs>
    <clipPath id="clip-path">
      <rect id="사각형_160" data-name="사각형 160" width="107.521" height="52.616" fill="none"/>
    </clipPath>
  </defs>
  <g id="speed_tester" transform="translate(0 0)">
    <g id="그룹_4" data-name="그룹 4" transform="translate(0 0)" clip-path="url(#clip-path)">
      <path id="패스_37" data-name="패스 37" d="M2.543,45.811A2.72,2.72,0,0,1,.01,42.882l.008-.1A53.335,53.335,0,0,1,7.795,18.96a2.764,2.764,0,0,1,4.71,2.9A47.871,47.871,0,0,0,5.528,43.229a2.81,2.81,0,0,1-2.984,2.582" transform="translate(0 6.744)" fill="#ea3943"/>
      <path id="패스_38" data-name="패스 38" d="M78.366,45.861a2.767,2.767,0,0,1-2.528-2.539,48.406,48.406,0,0,0-7-21.463,2.765,2.765,0,0,1,4.712-2.895,53.971,53.971,0,0,1,7.8,23.925,2.764,2.764,0,0,1-2.541,2.972,2.642,2.642,0,0,1-.444,0" transform="translate(26.162 6.746)" fill="#16c784"/>
      <path id="패스_39" data-name="패스 39" d="M11.3,22.351A2.765,2.765,0,0,1,9.428,17.8,54.369,54.369,0,0,1,29.787,3.013,2.765,2.765,0,0,1,31.9,8.12,48.819,48.819,0,0,0,13.626,21.394a2.76,2.76,0,0,1-2.326.957" transform="translate(3.35 1.07)" fill="#ea8c00"/>
      <path id="패스_40" data-name="패스 40" d="M72.9,22.358A2.756,2.756,0,0,1,71.02,21.4,48.586,48.586,0,0,0,52.755,8.122a2.765,2.765,0,1,1,2.114-5.11A54.151,54.151,0,0,1,75.223,17.806,2.765,2.765,0,0,1,72.9,22.358" transform="translate(19.515 1.07)" fill="#93d900"/>
      <path id="패스_41" data-name="패스 41" d="M30.8,6.914a2.766,2.766,0,0,1-.42-5.445,54.44,54.44,0,0,1,25.158.007,2.765,2.765,0,1,1-1.286,5.379,48.906,48.906,0,0,0-22.583-.008,2.744,2.744,0,0,1-.869.068" transform="translate(10.803 -0.001)" fill="#f3d42f"/>
    </g>
  </g>
</svg>
