<svg xmlns="http://www.w3.org/2000/svg" xmlns:xlink="http://www.w3.org/1999/xlink" width="11" height="11" viewBox="0 0 11 11">
  <defs>
    <clipPath id="clip-path">
      <rect id="사각형_801" data-name="사각형 801" width="11" height="11" transform="translate(286 724)" fill="#f6b87e"/>
    </clipPath>
  </defs>
  <g id="star_on" transform="translate(-286 -724)" clip-path="url(#clip-path)">
    <path id="star-regular" d="M5.664,0A.48.48,0,0,1,6.1.271L7.476,3.109l3.077.454a.479.479,0,0,1,.388.327.484.484,0,0,1-.118.492L8.59,6.6l.526,3.125a.483.483,0,0,1-.7.506L5.662,8.757,2.915,10.225a.479.479,0,0,1-.508-.034.487.487,0,0,1-.195-.472l.526-3.125L.506,4.382a.482.482,0,0,1,.269-.819l3.077-.454L5.23.271A.483.483,0,0,1,5.664,0Zm0,1.587L4.61,3.76a.487.487,0,0,1-.364.267L1.87,4.376,3.6,6.086a.483.483,0,0,1,.137.422l-.408,2.4L5.437,7.783a.479.479,0,0,1,.454,0L8,8.912,7.6,6.509a.478.478,0,0,1,.137-.422L9.46,4.378,7.084,4.027a.485.485,0,0,1-.364-.267Z" transform="translate(285.636 724.158)" fill="#f6b87e"/>
  </g>
</svg>
