<svg xmlns="http://www.w3.org/2000/svg" xmlns:xlink="http://www.w3.org/1999/xlink" width="24" height="24" viewBox="0 0 24 24">
  <defs>
    <clipPath id="clip-path">
      <rect id="사각형_306" data-name="사각형 306" width="24" height="24" transform="translate(24 1038)" fill="#2aabee"/>
    </clipPath>
  </defs>
  <g id="telegram" transform="translate(-24 -1038)" clip-path="url(#clip-path)">
    <path id="telegram-2-fill_2_" data-name="telegram-2-fill (2)" d="M2.637,14.5q9.664-4.21,12.888-5.551c6.137-2.553,7.413-3,8.244-3.011a1.453,1.453,0,0,1,.856.257.931.931,0,0,1,.315.6,3.9,3.9,0,0,1,.037.87c-.333,3.494-1.772,11.975-2.5,15.888-.31,1.656-.92,2.211-1.51,2.266-1.283.118-2.258-.848-3.5-1.663-1.945-1.275-3.044-2.069-4.932-3.313-2.182-1.438-.767-2.228.476-3.52.325-.338,5.98-5.481,6.089-5.948a.451.451,0,0,0-.1-.391.509.509,0,0,0-.457-.044q-.293.066-9.322,6.161a4.2,4.2,0,0,1-2.4.885,15.776,15.776,0,0,1-3.435-.813C2,16.722.9,16.485.993,15.721Q1.067,15.124,2.637,14.5Z" transform="translate(23.013 1034.118)" fill="#2aabee"/>
  </g>
</svg>
