<svg xmlns="http://www.w3.org/2000/svg" width="20" height="16.575" viewBox="0 0 20 16.575">
  <path id="telegram" d="M2.2,12.083q8.053-3.509,10.74-4.626c5.114-2.127,6.177-2.5,6.87-2.509a1.211,1.211,0,0,1,.714.214.776.776,0,0,1,.262.5,3.249,3.249,0,0,1,.031.725c-.277,2.912-1.476,9.979-2.086,13.24-.258,1.38-.766,1.843-1.259,1.888-1.069.1-1.882-.707-2.917-1.386-1.621-1.063-2.537-1.724-4.11-2.761-1.818-1.2-.64-1.857.4-2.933.271-.282,4.983-4.568,5.074-4.956a.376.376,0,0,0-.086-.326.424.424,0,0,0-.381-.037q-.244.055-7.768,5.134a3.5,3.5,0,0,1-2,.738,13.147,13.147,0,0,1-2.863-.677c-1.153-.375-2.07-.573-1.99-1.21Q.89,12.6,2.2,12.083Z" transform="translate(-0.822 -4.948)"/>
</svg>
