<svg xmlns="http://www.w3.org/2000/svg" width="16" height="13.919" viewBox="0 0 16 13.919">
  <g id="tether2" transform="translate(0 0)">
    <path id="패스_14" data-name="패스 14" d="M2.93.068.012,6.2a.119.119,0,0,0,.025.139l7.879,7.55a.12.12,0,0,0,.166,0l7.879-7.55a.119.119,0,0,0,.025-.139L13.071.069A.118.118,0,0,0,12.963,0H3.038A.118.118,0,0,0,2.93.068h0Z" fill="#50af95" fill-rule="evenodd"/>
    <path id="패스_15" data-name="패스 15" d="M9.013,6.826h0c-.057,0-.349.022-1,.022-.519,0-.887-.016-1.016-.022H7c-2-.088-3.5-.437-3.5-.855s1.5-.766,3.5-.856V6.478c.131.009.506.032,1.025.032.622,0,.934-.026.99-.031V5.117c2,.089,3.492.438,3.492.855s-1.492.766-3.492.854h0Zm0-1.85V3.756H11.8V1.9h-7.6v1.86H7V4.975c-2.268.1-3.973.553-3.973,1.092S4.728,7.054,7,7.159v3.908H9.012V7.157c2.263-.1,3.965-.553,3.965-1.091s-1.7-.987-3.965-1.091h0Zm0,0Z" fill="#fff" fill-rule="evenodd"/>
  </g>
</svg>
