<svg xmlns="http://www.w3.org/2000/svg" width="17" height="15.733" viewBox="0 0 17 15.733">
  <path id="thumb_up" d="M11.373,6.24h4.946a1.545,1.545,0,0,1,1.545,1.545V9.412a1.547,1.547,0,0,1-.116.588l-2.391,5.807a.773.773,0,0,1-.715.478H1.636a.773.773,0,0,1-.773-.773V7.786a.773.773,0,0,1,.773-.773H4.327a.773.773,0,0,0,.631-.327L9.172.716A.386.386,0,0,1,9.661.593l1.4.7a1.932,1.932,0,0,1,1.008,2.2ZM5.5,8.24v6.5h8.624l2.194-5.328V7.786H11.373a1.545,1.545,0,0,1-1.5-1.927l.7-2.742a.386.386,0,0,0-.2-.441L9.86,2.421,6.221,7.577A2.317,2.317,0,0,1,5.5,8.24Zm-1.545.319H2.409V14.74H3.955Z" transform="translate(-0.864 -0.552)" fill="#16c784"/>
</svg>
