<svg xmlns="http://www.w3.org/2000/svg" width="14.989" height="18" viewBox="0 0 14.989 18">
  <path id="touch_double_24dp_FFFFFF_FILL1_wght300_GRAD0_opsz24" d="M12.868-18.551l.688-1.209a3.981,3.981,0,0,1,1.53,1.507,4.091,4.091,0,0,1,.558,2.085,4.1,4.1,0,0,1-.143,1.084,4,4,0,0,1-.415.984L13.9-14.788a2.837,2.837,0,0,0,.275-.654,2.71,2.71,0,0,0,.092-.723,2.666,2.666,0,0,0-.379-1.376A2.751,2.751,0,0,0,12.868-18.551ZM9.93-2.294a3.037,3.037,0,0,1-1.315-.293A2.768,2.768,0,0,1,7.58-3.429L2.9-9.484l.339-.362a1.4,1.4,0,0,1,.823-.441,1.29,1.29,0,0,1,.9.182L7.2-8.9v-7.26a.666.666,0,0,1,.2-.49.666.666,0,0,1,.49-.2.689.689,0,0,1,.5.2.655.655,0,0,1,.2.49v4.482h6.815a2.4,2.4,0,0,1,1.762.726,2.4,2.4,0,0,1,.726,1.763v3.458A3.307,3.307,0,0,1,16.881-3.3a3.332,3.332,0,0,1-2.437,1.008ZM4.317-14.1a4,4,0,0,1-.415-.985,4.087,4.087,0,0,1-.143-1.08,3.981,3.981,0,0,1,1.205-2.924,3.981,3.981,0,0,1,2.924-1.205,3.982,3.982,0,0,1,2.924,1.205,3.98,3.98,0,0,1,1.205,2.923,4.088,4.088,0,0,1-.143,1.082,4.006,4.006,0,0,1-.415.984l-1.186-.688a2.837,2.837,0,0,0,.275-.654,2.71,2.71,0,0,0,.092-.723,2.655,2.655,0,0,0-.8-1.95,2.655,2.655,0,0,0-1.95-.8,2.655,2.655,0,0,0-1.95.8,2.655,2.655,0,0,0-.8,1.95,2.71,2.71,0,0,0,.092.723,2.837,2.837,0,0,0,.275.654L4.317-14.1Z" transform="translate(-2.905 20.294)" fill="#16c784"/>
</svg>
