<svg xmlns="http://www.w3.org/2000/svg" width="12" height="10.803" viewBox="0 0 12 10.803">
  <path id="translate" d="M6.906-1.451,9.491-8.125H10.4l2.585,6.674h-.923L11.4-3.221H8.487l-.657,1.77ZM2.327-3.158,1.715-3.77,4.6-6.662a7.552,7.552,0,0,1-.955-1.205A8.418,8.418,0,0,1,2.9-9.286h.923a7.888,7.888,0,0,0,.611,1.054,7.313,7.313,0,0,0,.777.959,8.48,8.48,0,0,0,1.17-1.515,6.991,6.991,0,0,0,.779-1.658H.982v-.871H4.788v-.937h.871v.937H9.464v.871H8.043a9.212,9.212,0,0,1-.9,2.044A8.308,8.308,0,0,1,5.825-6.644L7.257-5.177l-.329.894L5.213-6.041,2.327-3.158Zm6.439-.833h2.357L9.944-7.157,8.766-3.991Z" transform="translate(-0.982 12.254)" fill="#616e85"/>
</svg>
