<svg xmlns="http://www.w3.org/2000/svg" xmlns:xlink="http://www.w3.org/1999/xlink" width="24" height="24" viewBox="0 0 24 24">
  <defs>
    <clipPath id="clip-path">
      <rect id="사각형_163" data-name="사각형 163" width="14" height="14" transform="translate(1864 19.8)" fill="#9d9d9d"/>
    </clipPath>
  </defs>
  <g id="user_icon" transform="translate(-1867 -20)">
    <rect id="사각형_13" data-name="사각형 13" width="24" height="24" rx="12" transform="translate(1867 20)" fill="#cacaca"/>
    <g id="마스크_그룹_59" data-name="마스크 그룹 59" transform="translate(8 5.2)" clip-path="url(#clip-path)">
      <path id="user-2-line" d="M4.571,14.8a5.2,5.2,0,1,1,10.407,0Zm5.854-3.849V13.5h3.03A3.908,3.908,0,0,0,10.425,10.953ZM9.124,13.5V10.953A3.908,3.908,0,0,0,6.094,13.5Zm.65-4.553a3.9,3.9,0,1,1,3.9-3.9A3.9,3.9,0,0,1,9.775,8.948Zm0-1.3a2.6,2.6,0,1,0-2.6-2.6A2.6,2.6,0,0,0,9.775,7.647Z" transform="translate(1861.055 18.82)" fill="#9d9d9d"/>
    </g>
  </g>
</svg>
