<svg xmlns="http://www.w3.org/2000/svg" xmlns:xlink="http://www.w3.org/1999/xlink" width="40" height="40" viewBox="0 0 40 40">
  <defs>
    <clipPath id="clip-path">
      <rect id="사각형_1107" data-name="사각형 1107" width="20" height="20" transform="translate(240 966)" fill="#58667e" stroke="#707070" stroke-width="1"/>
    </clipPath>
  </defs>
  <g id="user" transform="translate(-230 -956)">
    <circle id="타원_192" data-name="타원 192" cx="20" cy="20" r="20" transform="translate(230 956)" fill="#eff2f5"/>
    <g id="마스크_그룹_269" data-name="마스크 그룹 269" clip-path="url(#clip-path)">
      <path id="person_24dp_434343_FILL1_wght300_GRAD0_opsz24" d="M16-16.41a4.493,4.493,0,0,1-3.3-1.371,4.494,4.494,0,0,1-1.371-3.3,4.493,4.493,0,0,1,1.371-3.3A4.493,4.493,0,0,1,16-25.744a4.493,4.493,0,0,1,3.3,1.371,4.493,4.493,0,0,1,1.371,3.3,4.494,4.494,0,0,1-1.371,3.3A4.493,4.493,0,0,1,16-16.41ZM6-6.256V-9.221a3.31,3.31,0,0,1,.532-1.814,3.551,3.551,0,0,1,1.422-1.283,19.346,19.346,0,0,1,3.988-1.454,17.228,17.228,0,0,1,8.115,0,19.346,19.346,0,0,1,3.988,1.454,3.551,3.551,0,0,1,1.422,1.283A3.31,3.31,0,0,1,26-9.221v2.964Z" transform="translate(234 992)" fill="#58667e"/>
    </g>
  </g>
</svg>
