<svg xmlns="http://www.w3.org/2000/svg" width="11.5" height="12.246" viewBox="0 0 11.5 12.246">
  <path id="view" d="M3.312-6.884v-8.841a2.006,2.006,0,0,1,.36-1.2,1.046,1.046,0,0,1,.864-.5h9.052a1.046,1.046,0,0,1,.864.5,2.006,2.006,0,0,1,.36,1.2v8.841a2.006,2.006,0,0,1-.36,1.2,1.046,1.046,0,0,1-.864.5H4.536a1.046,1.046,0,0,1-.864-.5A2.006,2.006,0,0,1,3.312-6.884Zm1.214.29H6.8v-9.42H4.525a.18.18,0,0,0-.143.091.333.333,0,0,0-.065.2v8.841a.333.333,0,0,0,.065.2A.18.18,0,0,0,4.525-6.594Zm3.286,0h2.479v-9.42H7.812Zm3.495,0h2.271a.181.181,0,0,0,.143-.091.334.334,0,0,0,.065-.2v-8.841a.334.334,0,0,0-.065-.2.181.181,0,0,0-.143-.091H11.306Z" transform="translate(-3.312 17.428)" fill="#808a9d"/>
</svg>
