<svg xmlns="http://www.w3.org/2000/svg" xmlns:xlink="http://www.w3.org/1999/xlink" width="23" height="23" viewBox="0 0 23 23">
  <defs>
    <clipPath id="clip-path">
      <rect id="사각형_475" data-name="사각형 475" width="23" height="23" transform="translate(1140 453)" fill="#a6b0c3" stroke="#707070" stroke-width="1"/>
    </clipPath>
  </defs>
  <g id="마스크_그룹_128" data-name="마스크 그룹 128" transform="translate(-1140 -453)" clip-path="url(#clip-path)">
    <path id="visibility_on" d="M13.194-9.259a4.316,4.316,0,0,0,3.174-1.308,4.329,4.329,0,0,0,1.305-3.176,4.316,4.316,0,0,0-1.308-3.174,4.329,4.329,0,0,0-3.176-1.305,4.316,4.316,0,0,0-3.174,1.308A4.329,4.329,0,0,0,8.71-13.738a4.316,4.316,0,0,0,1.308,3.174,4.329,4.329,0,0,0,3.176,1.305Zm0-1.514a2.862,2.862,0,0,1-2.1-.866,2.862,2.862,0,0,1-.866-2.1,2.862,2.862,0,0,1,.866-2.1,2.862,2.862,0,0,1,2.1-.866,2.862,2.862,0,0,1,2.1.866,2.862,2.862,0,0,1,.866,2.1,2.862,2.862,0,0,1-.866,2.1A2.862,2.862,0,0,1,13.191-10.773Zm0,4.727a12.134,12.134,0,0,1-6.91-2.092,12.352,12.352,0,0,1-4.592-5.6,12.356,12.356,0,0,1,4.59-5.6,12.128,12.128,0,0,1,6.909-2.092,12.134,12.134,0,0,1,6.91,2.092,12.352,12.352,0,0,1,4.592,5.6,12.356,12.356,0,0,1-4.59,5.6A12.128,12.128,0,0,1,13.193-6.046ZM13.191-13.741Zm0,6.046a10.492,10.492,0,0,0,5.7-1.635,10.743,10.743,0,0,0,3.971-4.411,10.743,10.743,0,0,0-3.971-4.411,10.492,10.492,0,0,0-5.7-1.635,10.492,10.492,0,0,0-5.7,1.635,10.743,10.743,0,0,0-3.971,4.411A10.743,10.743,0,0,0,7.489-9.33,10.492,10.492,0,0,0,13.191-7.695Z" transform="translate(1138.309 478.241)" fill="#a6b0c3"/>
  </g>
</svg>
