<svg xmlns="http://www.w3.org/2000/svg" width="21" height="14.052" viewBox="0 0 21 14.052">
  <path id="visibility" d="M12.267-11.25a3.941,3.941,0,0,0,2.9-1.194,3.952,3.952,0,0,0,1.192-2.9,3.941,3.941,0,0,0-1.194-2.9,3.952,3.952,0,0,0-2.9-1.192,3.941,3.941,0,0,0-2.9,1.194,3.952,3.952,0,0,0-1.192,2.9,3.941,3.941,0,0,0,1.194,2.9,3.952,3.952,0,0,0,2.9,1.192Zm0-1.382a2.613,2.613,0,0,1-1.92-.79,2.613,2.613,0,0,1-.79-1.92,2.613,2.613,0,0,1,.79-1.92,2.613,2.613,0,0,1,1.92-.79,2.613,2.613,0,0,1,1.92.79,2.613,2.613,0,0,1,.79,1.92,2.613,2.613,0,0,1-.79,1.92A2.613,2.613,0,0,1,12.265-12.632Zm0,4.316a11.079,11.079,0,0,1-6.309-1.91,11.278,11.278,0,0,1-4.192-5.116,11.282,11.282,0,0,1,4.191-5.116,11.074,11.074,0,0,1,6.308-1.91,11.079,11.079,0,0,1,6.309,1.91,11.278,11.278,0,0,1,4.192,5.116,11.282,11.282,0,0,1-4.191,5.116A11.074,11.074,0,0,1,12.266-8.316ZM12.265-15.342Zm0,5.52a9.58,9.58,0,0,0,5.207-1.493A9.809,9.809,0,0,0,21.1-15.342a9.809,9.809,0,0,0-3.626-4.027,9.58,9.58,0,0,0-5.207-1.493,9.58,9.58,0,0,0-5.207,1.493,9.809,9.809,0,0,0-3.626,4.027,9.809,9.809,0,0,0,3.626,4.027A9.58,9.58,0,0,0,12.265-9.822Z" transform="translate(-1.765 22.368)" fill="#808a9d"/>
</svg>
