<svg xmlns="http://www.w3.org/2000/svg" width="20" height="16" viewBox="0 0 20 16">
  <path id="youtube" d="M12.244,4c.534,0,1.87.016,3.29.073l.5.022a20.437,20.437,0,0,1,3.566.381A2.811,2.811,0,0,1,21.543,6.5,29.351,29.351,0,0,1,22,11.836v.327a29.351,29.351,0,0,1-.456,5.339A2.811,2.811,0,0,1,19.6,19.524a20.441,20.441,0,0,1-3.566.381l-.5.022c-1.42.057-2.756.07-3.29.073h-.489a46.837,46.837,0,0,1-7.36-.476A2.811,2.811,0,0,1,2.456,17.5,29.357,29.357,0,0,1,2,12.163v-.327A29.357,29.357,0,0,1,2.456,6.5,2.811,2.811,0,0,1,4.395,4.476,46.831,46.831,0,0,1,11.755,4ZM10,8.5v7L16,12Z" transform="translate(-2 -4)"/>
</svg>
